SplineFontDB: 3.0
FontName: AutourOne-Regular
FullName: Autour One
FamilyName: Autour One
Weight: Book
Copyright: Copyright (c) 2012, Sorkin Type Co (www.sorkingtype.com), with Reserved Font Name 'Autour'
Version: 1.005
ItalicAngle: 0
UnderlinePosition: -50
UnderlineWidth: 50
Ascent: 1638
Descent: 410
sfntRevision: 0x00010083
LayerCount: 2
Layer: 0 1 "Back"  1
Layer: 1 1 "Fore"  0
XUID: [1021 541 1901542663 13082052]
FSType: 0
OS2Version: 3
OS2_WeightWidthSlopeOnly: 0
OS2_UseTypoMetrics: 1
CreationTime: 1344037200
ModificationTime: 1344020928
PfmFamily: 17
TTFWeight: 400
TTFWidth: 5
LineGap: 0
VLineGap: 0
Panose: 2 1 5 3 3 2 0 6 4 4
OS2TypoAscent: 2030
OS2TypoAOffset: 0
OS2TypoDescent: -530
OS2TypoDOffset: 0
OS2TypoLinegap: 0
OS2WinAscent: 2030
OS2WinAOffset: 0
OS2WinDescent: 530
OS2WinDOffset: 0
HheadAscent: 2030
HheadAOffset: 0
HheadDescent: -530
HheadDOffset: 0
OS2SubXSize: 1434
OS2SubYSize: 1331
OS2SubXOff: 0
OS2SubYOff: 287
OS2SupXSize: 1434
OS2SupYSize: 1331
OS2SupXOff: 0
OS2SupYOff: 977
OS2StrikeYSize: 102
OS2StrikeYPos: 512
OS2Vendor: 'STC '
OS2CodePages: 20000093.00000000
OS2UnicodeRanges: a00000af.5000204a.00000000.00000000
DEI: 91125
TtTable: prep
MPPEM
PUSHB_1
 200
GT
IF
PUSHB_2
 1
 1
INSTCTRL
EIF
PUSHW_2
 2048
 2048
MUL
DUP
PUSHB_1
 1
SWAP
WCVTP
DUP
PUSHB_1
 3
SWAP
WCVTF
PUSHB_1
 21
RCVT
DUP
DUP
PUSHB_1
 40
ADD
FLOOR
DUP
ROLL
NEQ
IF
PUSHB_1
 2
CINDEX
SUB
PUSHB_1
 1
RCVT
MUL
SWAP
DIV
PUSHB_1
 2
SWAP
WCVTP
PUSHB_4
 10
 11
 3
 2
CALL
PUSHB_4
 12
 17
 3
 2
CALL
PUSHB_4
 18
 23
 3
 2
CALL
EIF
PUSHB_3
 4
 40
 7
RCVT
GT
WCVTP
PUSHB_4
 12
 17
 4
 2
CALL
PUSHW_1
 511
SCANCTRL
PUSHB_1
 4
SCANTYPE
PUSHB_2
 5
 0
WCVTP
EndTTInstrs
TtTable: fpgm
PUSHB_1
 0
FDEF
DUP
ABS
PUSHB_1
 32
ADD
FLOOR
SWAP
PUSHB_1
 0
LT
IF
NEG
EIF
ENDF
PUSHB_1
 1
FDEF
DUP
ABS
DUP
PUSHB_1
 192
LT
PUSHB_1
 4
MINDEX
AND
PUSHB_1
 4
RCVT
OR
IF
POP
SWAP
POP
ELSE
ROLL
IF
DUP
PUSHB_1
 80
LT
IF
POP
PUSHB_1
 64
EIF
ELSE
DUP
PUSHB_1
 56
LT
IF
POP
PUSHB_1
 56
EIF
EIF
DUP
PUSHB_1
 10
RCVT
SUB
ABS
PUSHB_1

StartChar: exclam
Encoding: 33 33 26
Width: 599
GlyphClass: 2
Flags: W
LayerCount: 2
Fore
SplineSet
305 510 m 0,0,1
 284 510 284 510 265 516 c 128,-1,2
 246 522 246 522 231 535 c 128,-1,3
 216 548 216 548 207 567 c 128,-1,4
 198 586 198 586 198 612 c 0,5,6
 198 635 198 635 201 658 c 128,-1,7
 204 681 204 681 204 706 c 0,8,9
 204 842 204 842 200 979 c 128,-1,10
 196 1116 196 1116 191.5 1253.5 c 128,-1,11
 187 1391 187 1391 183.5 1530.5 c 128,-1,12
 180 1670 180 1670 180 1813 c 0,13,14
 180 1834 180 1834 187 1853 c 128,-1,15
 194 1872 194 1872 209 1887 c 128,-1,16
 224 1902 224 1902 248.5 1910.5 c 128,-1,17
 273 1919 273 1919 309 1919 c 0,18,19
 330 1919 330 1919 351 1913 c 128,-1,20
 372 1907 372 1907 388.5 1894 c 128,-1,21
 405 1881 405 1881 415.5 1859.5 c 128,-1,22
 426 1838 426 1838 426 1807 c 0,23,24
 426 1763 426 1763 425 1690.5 c 128,-1,25
 424 1618 424 1618 423 1527.5 c 128,-1,26
 422 1437 422 1437 420 1333 c 128,-1,27
 418 1229 418 1229 417 1121 c 128,-1,28
 416 1013 416 1013 415 906 c 128,-1,29
 414 799 414 799 414 703 c 0,30,31
 414 681 414 681 418 658.5 c 128,-1,32
 422 636 422 636 422 607 c 0,33,34
 422 559 422 559 390 534.5 c 128,-1,35
 358 510 358 510 305 510 c 0,0,1
175 87 m 0,36,37
 176 142 176 142 182 183 c 128,-1,38
 188 224 188 224 201.5 251 c 128,-1,39
 215 278 215 278 238 291 c 128,-1,40
 261 304 261 304 297 304 c 0,41,42
 349 304 349 304 385 274.5 c 128,-1,43
 421 245 421 245 421 188 c 0,44,45
 421 135 421 135 410.5 94.5 c 128,-1,46
 400 54 400 54 382 26 c 128,-1,47
 364 -2 364 -2 339.5 -16.5 c 128,-1,48
 315 -31 315 -31 287 -31 c 0,49,50
 260 -31 260 -31 238.5 -19 c 128,-1,51
 217 -7 217 -7 203 10.5 c 128,-1,52
 189 28 189 28 182 48.5 c 128,-1,53
 175 69 175 69 175 87 c 0,36,37
EndSplineSet
EndChar

StartChar: numbersign
Encoding: 35 35 28
Width: 1539
GlyphClass: 2
Flags: W
LayerCount: 2
Fore
SplineSet
261 58 m 2,0,1
 261 81 261 81 268 99.5 c 128,-1,2
 275 118 275 118 283 136 c 1,3,-1
 330 316 l 1,4,5
 289 316 289 316 254 316 c 128,-1,6
 219 316 219 316 196 317 c 0,7,8
 178 317 178 317 160 322 c 128,-1,9
 142 327 142 327 128 341.5 c 128,-1,10
 114 356 114 356 105 381 c 128,-1,11
 96 406 96 406 96 446 c 0,12,13
 96 470 96 470 105 486.5 c 128,-1,14
 114 503 114 503 127.5 513.5 c 128,-1,15
 141 524 141 524 158 529.5 c 128,-1,16
 175 535 175 535 190 537 c 0,17,18
 207 539 207 539 259 539.5 c 128,-1,19
 311 540 311 540 386 541 c 1,20,21
 406 622 406 622 423.5 693.5 c 128,-1,22
 441 765 441 765 456 828 c 1,23,24
 402 828 402 828 367 828 c 128,-1,25
 332 828 332 828 301 829 c 0,26,27
 283 829 283 829 265 834.5 c 128,-1,28
 247 840 247 840 233 854.5 c 128,-1,29
 219 869 219 869 210 894.5 c 128,-1,30
 201 920 201 920 201 960 c 0,31,32
 201 990 201 990 210.5 1008.5 c 128,-1,33
 220 1027 220 1027 238 1036.5 c 128,-1,34
 256 1046 256 1046 282.5 1049 c 128,-1,35
 309 1052 309 1052 344 1052 c 2,36,-1
 507 1052 l 1,37,38
 538 1195 538 1195 550 1261.5 c 128,-1,39
 562 1328 562 1328 563 1331 c 0,40,41
 567 1357 567 1357 575.5 1386.5 c 128,-1,42
 584 1416 584 1416 598.5 1440.5 c 128,-1,43
 613 1465 613 1465 633 1481.5 c 128,-1,44
 653 1498 653 1498 682 1498 c 0,45,46
 702 1498 702 1498 722.5 1494 c 128,-1,47
 743 1490 743 1490 759.5 1479.5 c 128,-1,48
 776 1469 776 1469 786.5 1451 c 128,-1,49
 797 1433 797 1433 797 1404 c 0,50,51
 797 1392 797 1392 792 1369.5 c 128,-1,52
 787 1347 787 1347 780 1323 c 128,-1,53
 773 1299 773 1299 766.5 1279 c 128,-1,54
 760 1259 760 1259 756 1252 c 1,55,-1
 757 1253 l 1,56,-1
 709 1053 l 1,57,58
 755 1053 755 1053 799.5 1053 c 128,-1,59
 844 1053 844 1053 887 1054 c 1,60,-1
 916 1054 l 1,61,62
 947 1195 947 1195 959 1261.5 c 128,-1,63
 971 1328 971 1328 972 1331 c 0,64,65
 976 1357 976 1357 984.5 1386.5 c 128,-1,66
 993 1416 993 1416 1007.5 1440.5 c 128,-1,67
 1022 1465 1022 1465 1042.5 1481.5 c 128,-1,68
 1063 1498 1063 1498 1091 1498 c 0,69,70
 1110 1498 1110 1498 1130.5 1494 c 128,-1,71
 1151 1490 1151 1490 1168 1479.5 c 128,-1,72
 1185 1469 1185 1469 1195.5 1451 c 128,-1,73
 1206 1433 1206 1433 1206 1404 c 0,74,75
 1206 1392 1206 1392 1201 1369.5 c 128,-1,76
 1196 1347 1196 1347 1189.5 1323.5 c 128,-1,77
 1183 1300 1183 1300 1176 1280 c 128,-1,78
 1169 1260 1169 1260 1166 1253 c 1,79,-1
 1166 1254 l 1,80,-1
 1121 1056 l 1,81,-1
 1212 1056 l 2,82,83
 1223 1056 1223 1056 1233 1058 c 128,-1,84
 1243 1060 1243 1060 1252 1062 c 2,85,-1
 1260 1064 l 2,86,87
 1270 1067 1270 1067 1283 1067 c 0,88,89
 1298 1067 1298 1067 1316 1061.5 c 128,-1,90
 1334 1056 1334 1056 1350 1042.5 c 128,-1,91
 1366 1029 1366 1029 1377 1006.5 c 128,-1,92
 1388 984 1388 984 1388 949 c 0,93,94
 1388 893 1388 893 1361.5 860.5 c 128,-1,95
 1335 828 1335 828 1290 828 c 2,96,-1
 1069 828 l 1,97,-1
 1005 543 l 1,98,-1
 1107 543 l 2,99,100
 1116 543 1116 543 1126 545 c 128,-1,101
 1136 547 1136 547 1147 550 c 0,102,103
 1155 552 1155 552 1162.5 554 c 128,-1,104
 1170 556 1170 556 1179 556 c 0,105,106
 1193 556 1193 556 1211 550.5 c 128,-1,107
 1229 545 1229 545 1245 531.5 c 128,-1,108
 1261 518 1261 518 1272 495 c 128,-1,109
 1283 472 1283 472 1283 438 c 0,110,111
 1283 382 1283 382 1256.5 349 c 128,-1,112
 1230 316 1230 316 1185 316 c 2,113,-1
 953 316 l 1,114,115
 935 238 935 238 921.5 180 c 128,-1,116
 908 122 908 122 897 71 c 0,117,118
 897 69 897 69 896 66.5 c 128,-1,119
 895 64 895 64 895 62 c 0,120,121
 890 43 890 43 884 25 c 128,-1,122
 878 7 878 7 867.5 -7.5 c 128,-1,123
 857 -22 857 -22 840 -31 c 128,-1,124
 823 -40 823 -40 796 -40 c 0,125,126
 733 -40 733 -40 702.5 -12.5 c 128,-1,127
 672 15 672 15 670 57 c 1,128,-1
 670 58 l 2,129,130
 670 82 670 82 677 100 c 128,-1,131
 684 118 684 118 692 136 c 1,132,133
 704 183 704 183 715.5 228 c 128,-1,134
 727 273 727 273 738 316 c 1,135,-1
 544 316 l 1,136,-1
 488 71 l 2,137,138
 484 53 484 53 478 33 c 128,-1,139
 472 13 472 13 460.5 -3 c 128,-1,140
 449 -19 449 -19 432 -29.5 c 128,-1,141
 415 -40 415 -40 388 -40 c 0,142,143
 325 -40 325 -40 294 -12.5 c 128,-1,144
 263 15 263 15 261 57 c 1,145,-1
 261 58 l 2,0,1
594 542 m 1,146,147
 645 543 645 543 695.5 543 c 128,-1,148
 746 543 746 543 796 543 c 1,149,-1
 865 828 l 1,150,-1
 658 828 l 1,151,152
 641 756 641 756 626 685 c 128,-1,153
 611 614 611 614 594 542 c 1,146,147
EndSplineSet
EndChar

StartChar: dollar
Encoding: 36 36 29
Width: 1292
GlyphClass: 2
Flags: W
LayerCount: 2
Fore
SplineSet
167 328 m 0,0,1
 167 373 167 373 169.5 419.5 c 128,-1,2
 172 466 172 466 184.5 504 c 128,-1,3
 197 542 197 542 225 566 c 128,-1,4
 253 590 253 590 304 590 c 0,5,6
 350 590 350 590 381.5 561.5 c 128,-1,7
 413 533 413 533 413 486 c 0,8,9
 413 462 413 462 410 441 c 128,-1,10
 407 420 407 420 403 400 c 0,11,12
 399 381 399 381 396 363.5 c 128,-1,13
 393 346 393 346 393 329 c 0,14,15
 393 285 393 285 418 255 c 128,-1,16
 443 225 443 225 482.5 206.5 c 128,-1,17
 522 188 522 188 570.5 180 c 128,-1,18
 619 172 619 172 666 172 c 0,19,20
 720 172 720 172 772 183 c 128,-1,21
 824 194 824 194 865 220 c 128,-1,22
 906 246 906 246 931 289 c 128,-1,23
 956 332 956 332 956 396 c 0,24,25
 956 462 956 462 926 510 c 128,-1,26
 896 558 896 558 849.5 593.5 c 128,-1,27
 803 629 803 629 746.5 655 c 128,-1,28
 690 681 690 681 636 703 c 0,29,30
 566 731 566 731 494.5 766.5 c 128,-1,31
 423 802 423 802 365 855 c 128,-1,32
 307 908 307 908 270.5 984.5 c 128,-1,33
 234 1061 234 1061 234 1173 c 0,34,35
 234 1247 234 1247 262.5 1308 c 128,-1,36
 291 1369 291 1369 339 1416.5 c 128,-1,37
 387 1464 387 1464 449.5 1496.5 c 128,-1,38
 512 1529 512 1529 580 1545 c 1,39,-1
 580 1634 l 2,40,41
 580 1666 580 1666 584 1693 c 128,-1,42
 588 1720 588 1720 599.5 1739.5 c 128,-1,43
 611 1759 611 1759 632.5 1769.5 c 128,-1,44
 654 1780 654 1780 689 1780 c 0,45,46
 713 1780 713 1780 732.5 1776 c 128,-1,47
 752 1772 752 1772 766 1762 c 128,-1,48
 780 1752 780 1752 787.5 1735 c 128,-1,49
 795 1718 795 1718 795 1692 c 0,50,51
 795 1664 795 1664 795 1626.5 c 128,-1,52
 795 1589 795 1589 794 1553 c 1,53,54
 852 1544 852 1544 915 1522.5 c 128,-1,55
 978 1501 978 1501 1029.5 1465 c 128,-1,56
 1081 1429 1081 1429 1114.5 1378 c 128,-1,57
 1148 1327 1148 1327 1148 1259 c 0,58,59
 1148 1231 1148 1231 1139 1209.5 c 128,-1,60
 1130 1188 1130 1188 1115 1173.5 c 128,-1,61
 1100 1159 1100 1159 1080.5 1151.5 c 128,-1,62
 1061 1144 1061 1144 1039 1144 c 0,63,64
 1018 1144 1018 1144 997.5 1152 c 128,-1,65
 977 1160 977 1160 960 1174 c 128,-1,66
 943 1188 943 1188 931.5 1207 c 128,-1,67
 920 1226 920 1226 918 1249 c 1,68,69
 903 1280 903 1280 878 1298 c 128,-1,70
 853 1316 853 1316 823 1325.5 c 128,-1,71
 793 1335 793 1335 759.5 1338 c 128,-1,72
 726 1341 726 1341 695 1341 c 0,73,74
 661 1341 661 1341 620 1330.5 c 128,-1,75
 579 1320 579 1320 543.5 1298 c 128,-1,76
 508 1276 508 1276 484 1243.5 c 128,-1,77
 460 1211 460 1211 460 1166 c 0,78,79
 460 1111 460 1111 485.5 1069 c 128,-1,80
 511 1027 511 1027 553.5 993.5 c 128,-1,81
 596 960 596 960 650.5 932.5 c 128,-1,82
 705 905 705 905 762 879 c 0,83,84
 834 847 834 847 908.5 807.5 c 128,-1,85
 983 768 983 768 1044 712 c 128,-1,86
 1105 656 1105 656 1143.5 579.5 c 128,-1,87
 1182 503 1182 503 1182 397 c 0,88,89
 1182 301 1182 301 1148 226.5 c 128,-1,90
 1114 152 1114 152 1058 98 c 128,-1,91
 1002 44 1002 44 928 10.5 c 128,-1,92
 854 -23 854 -23 775 -37 c 1,93,-1
 775 -163 l 2,94,95
 775 -195 775 -195 771 -222 c 128,-1,96
 767 -249 767 -249 755.5 -268.5 c 128,-1,97
 744 -288 744 -288 722.5 -299 c 128,-1,98
 701 -310 701 -310 666 -310 c 0,99,100
 642 -310 642 -310 622.5 -306 c 128,-1,101
 603 -302 603 -302 588.5 -292 c 128,-1,102
 574 -282 574 -282 566.5 -264.5 c 128,-1,103
 559 -247 559 -247 559 -221 c 0,104,105
 559 -206 559 -206 559 -184.5 c 128,-1,106
 559 -163 559 -163 559 -138.5 c 128,-1,107
 559 -114 559 -114 559.5 -88.5 c 128,-1,108
 560 -63 560 -63 561 -39 c 1,109,110
 484 -28 484 -28 413 -0.5 c 128,-1,111
 342 27 342 27 287 72.5 c 128,-1,112
 232 118 232 118 199.5 181.5 c 128,-1,113
 167 245 167 245 167 328 c 0,0,1
EndSplineSet
EndChar

StartChar: percent
Encoding: 37 37 30
Width: 2383
GlyphClass: 2
Flags: W
LayerCount: 2
Fore
SplineSet
776 75 m 0,0,1
 776 98 776 98 785 116 c 128,-1,2
 794 134 794 134 805 148 c 0,3,4
 806 150 806 150 808.5 154.5 c 128,-1,5
 811 159 811 159 818 175.5 c 128,-1,6
 825 192 825 192 838.5 226 c 128,-1,7
 852 260 852 260 876 321 c 128,-1,8
 900 382 900 382 936 475 c 128,-1,9
 972 568 972 568 1024 703 c 128,-1,10
 1076 838 1076 838 1145.5 1019 c 128,-1,11
 1215 1200 1215 1200 1306 1438 c 1,12,-1
 1306 1437 l 1,13,14
 1313 1466 1313 1466 1322.5 1495.5 c 128,-1,15
 1332 1525 1332 1525 1346.5 1549 c 128,-1,16
 1361 1573 1361 1573 1382.5 1588 c 128,-1,17
 1404 1603 1404 1603 1435 1603 c 0,18,19
 1454 1603 1454 1603 1473.5 1596.5 c 128,-1,20
 1493 1590 1493 1590 1508.5 1577 c 128,-1,21
 1524 1564 1524 1564 1533.5 1544.5 c 128,-1,22
 1543 1525 1543 1525 1543 1499 c 0,23,24
 1543 1486 1543 1486 1540 1470 c 128,-1,25
 1537 1454 1537 1454 1532.5 1439 c 128,-1,26
 1528 1424 1528 1424 1523.5 1411.5 c 128,-1,27
 1519 1399 1519 1399 1515 1392 c 1,28,-1
 998 58 l 1,29,-1
 998 59 l 1,30,31
 993 41 993 41 987 23 c 128,-1,32
 981 5 981 5 970.5 -9 c 128,-1,33
 960 -23 960 -23 943.5 -31.5 c 128,-1,34
 927 -40 927 -40 900 -40 c 0,35,36
 867 -40 867 -40 843.5 -29.5 c 128,-1,37
 820 -19 820 -19 805 -2.5 c 128,-1,38
 790 14 790 14 783 34.5 c 128,-1,39
 776 55 776 55 776 75 c 0,0,1
630 694 m 0,40,41
 550 694 550 694 469 722 c 128,-1,42
 388 750 388 750 322.5 803 c 128,-1,43
 257 856 257 856 215.5 932 c 128,-1,44
 174 1008 174 1008 174 1104 c 0,45,46
 174 1184 174 1184 203.5 1264 c 128,-1,47
 233 1344 233 1344 287 1407.5 c 128,-1,48
 341 1471 341 1471 416.5 1511 c 128,-1,49
 492 1551 492 1551 583 1551 c 0,50,51
 619 1551 619 1551 657 1545.5 c 128,-1,52
 695 1540 695 1540 728 1512 c 1,53,54
 738 1514 738 1514 746 1514 c 0,55,56
 761 1514 761 1514 773 1510 c 0,57,58
 834 1485 834 1485 882 1445.5 c 128,-1,59
 930 1406 930 1406 963 1356.5 c 128,-1,60
 996 1307 996 1307 1013 1250 c 128,-1,61
 1030 1193 1030 1193 1030 1134 c 0,62,63
 1030 1050 1030 1050 1000.5 971 c 128,-1,64
 971 892 971 892 918.5 830.5 c 128,-1,65
 866 769 866 769 792 731.5 c 128,-1,66
 718 694 718 694 630 694 c 0,40,41
617 901 m 0,67,68
 663 901 663 901 700 923 c 128,-1,69
 737 945 737 945 762 979.5 c 128,-1,70
 787 1014 787 1014 800.5 1056 c 128,-1,71
 814 1098 814 1098 814 1137 c 0,72,73
 814 1170 814 1170 802.5 1202 c 128,-1,74
 791 1234 791 1234 771 1262 c 128,-1,75
 751 1290 751 1290 724.5 1310.5 c 128,-1,76
 698 1331 698 1331 667 1342 c 1,77,78
 663 1341 663 1341 652 1341 c 0,79,80
 640 1341 640 1341 632 1341.5 c 128,-1,81
 624 1342 624 1342 617 1343 c 0,82,83
 612 1344 612 1344 609 1344 c 128,-1,84
 606 1344 606 1344 603 1344 c 0,85,86
 556 1344 556 1344 517 1324.5 c 128,-1,87
 478 1305 478 1305 450 1271 c 128,-1,88
 422 1237 422 1237 406.5 1191 c 128,-1,89
 391 1145 391 1145 391 1093 c 0,90,91
 391 1048 391 1048 410 1012.5 c 128,-1,92
 429 977 429 977 460.5 952.5 c 128,-1,93
 492 928 492 928 533 914.5 c 128,-1,94
 574 901 574 901 617 901 c 0,67,68
1299 393 m 0,95,96
 1299 473 1299 473 1328.5 553 c 128,-1,97
 1358 633 1358 633 1412 696.5 c 128,-1,98
 1466 760 1466 760 1541.5 800 c 128,-1,99
 1617 840 1617 840 1708 840 c 0,100,101
 1744 840 1744 840 1782 834.5 c 128,-1,102
 1820 829 1820 829 1853 801 c 1,103,104
 1863 803 1863 803 1871 803 c 0,105,106
 1886 803 1886 803 1898 799 c 0,107,108
 1959 774 1959 774 2007 734.5 c 128,-1,109
 2055 695 2055 695 2088 645.5 c 128,-1,110
 2121 596 2121 596 2138 539 c 128,-1,111
 2155 482 2155 482 2155 423 c 0,112,113
 2155 339 2155 339 2125.5 260 c 128,-1,114
 2096 181 2096 181 2043.5 119.5 c 128,-1,115
 1991 58 1991 58 1917 20.5 c 128,-1,116
 1843 -17 1843 -17 1755 -17 c 0,117,118
 1675 -17 1675 -17 1594 9.5 c 128,-1,119
 1513 36 1513 36 1447.5 88 c 128,-1,120
 1382 140 1382 140 1340.5 216.5 c 128,-1,121
 1299 293 1299 293 1299 393 c 0,95,96
1516 382 m 0,122,123
 1516 337 1516 337 1535 301.5 c 128,-1,124
 1554 266 1554 266 1585.5 241.5 c 128,-1,125
 1617 217 1617 217 1658 203.5 c 128,-1,126
 1699 190 1699 190 1742 190 c 0,127,128
 1788 190 1788 190 1825 212 c 128,-1,129
 1862 234 1862 234 1887 268.5 c 128,-1,130
 1912 303 1912 303 1925.5 345 c 128,-1,131
 1939 387 1939 387 1939 426 c 0,132,133
 1939 459 1939 459 1927.5 491 c 128,-1,134
 1916 523 1916 523 1896 551 c 128,-1,135
 1876 579 1876 579 1849.5 599.5 c 128,-1,136
 1823 620 1823 620 1792 631 c 1,137,138
 1788 630 1788 630 1777 630 c 0,139,140
 1765 630 1765 630 1757 630.5 c 128,-1,141
 1749 631 1749 631 1742 632 c 0,142,143
 1737 633 1737 633 1734 633 c 128,-1,144
 1731 633 1731 633 1728 633 c 0,145,146
 1681 633 1681 633 1642 613.5 c 128,-1,147
 1603 594 1603 594 1575 560 c 128,-1,148
 1547 526 1547 526 1531.5 480 c 128,-1,149
 1516 434 1516 434 1516 382 c 0,122,123
EndSplineSet
EndChar

StartChar: ampersand
Encoding: 38 38 31
Width: 1881
GlyphClass: 2
Flags: W
LayerCount: 2
Fore
SplineSet
267 405 m 0,0,1
 267 480 267 480 291.5 536.5 c 128,-1,2
 316 593 316 593 357.5 638 c 128,-1,3
 399 683 399 683 453.5 721 c 128,-1,4
 508 759 508 759 568 799 c 1,5,6
 534 842 534 842 504.5 886.5 c 128,-1,7
 475 931 475 931 453 978 c 128,-1,8
 431 1025 431 1025 418.5 1076 c 128,-1,9
 406 1127 406 1127 406 1183 c 0,10,11
 406 1276 406 1276 443 1350 c 128,-1,12
 480 1424 480 1424 540 1475.5 c 128,-1,13
 600 1527 600 1527 675.5 1554 c 128,-1,14
 751 1581 751 1581 827 1581 c 0,15,16
 898 1581 898 1581 967.5 1558.5 c 128,-1,17
 1037 1536 1037 1536 1092 1489.5 c 128,-1,18
 1147 1443 1147 1443 1181 1372 c 128,-1,19
 1215 1301 1215 1301 1215 1203 c 0,20,21
 1215 1120 1215 1120 1185.5 1054.5 c 128,-1,22
 1156 989 1156 989 1106.5 935 c 128,-1,23
 1057 881 1057 881 993 835.5 c 128,-1,24
 929 790 929 790 861 748 c 1,25,26
 941 645 941 645 1033 544 c 128,-1,27
 1125 443 1125 443 1220 363 c 1,28,29
 1272 399 1272 399 1309.5 444 c 128,-1,30
 1347 489 1347 489 1371.5 541 c 128,-1,31
 1396 593 1396 593 1408 648.5 c 128,-1,32
 1420 704 1420 704 1421 761 c 1,33,34
 1418 765 1418 765 1413.5 770 c 128,-1,35
 1409 775 1409 775 1404 779 c 0,36,37
 1388 794 1388 794 1373.5 815 c 128,-1,38
 1359 836 1359 836 1359 880 c 0,39,40
 1359 896 1359 896 1365 915.5 c 128,-1,41
 1371 935 1371 935 1385 952.5 c 128,-1,42
 1399 970 1399 970 1421.5 981.5 c 128,-1,43
 1444 993 1444 993 1477 993 c 0,44,45
 1524 993 1524 993 1554 972 c 128,-1,46
 1584 951 1584 951 1601.5 919 c 128,-1,47
 1619 887 1619 887 1625.5 848.5 c 128,-1,48
 1632 810 1632 810 1632 774 c 0,49,50
 1632 697 1632 697 1617 621 c 128,-1,51
 1602 545 1602 545 1572 475.5 c 128,-1,52
 1542 406 1542 406 1497.5 344 c 128,-1,53
 1453 282 1453 282 1393 232 c 1,54,55
 1412 217 1412 217 1429 204.5 c 128,-1,56
 1446 192 1446 192 1464 181 c 128,-1,57
 1482 170 1482 170 1503 160.5 c 128,-1,58
 1524 151 1524 151 1550 141 c 1,59,60
 1571 140 1571 140 1588.5 132.5 c 128,-1,61
 1606 125 1606 125 1618 112 c 128,-1,62
 1630 99 1630 99 1637 83 c 128,-1,63
 1644 67 1644 67 1644 49 c 0,64,65
 1644 32 1644 32 1637.5 12.5 c 128,-1,66
 1631 -7 1631 -7 1617.5 -23.5 c 128,-1,67
 1604 -40 1604 -40 1582 -51 c 128,-1,68
 1560 -62 1560 -62 1530 -62 c 0,69,70
 1497 -62 1497 -62 1466.5 -51.5 c 128,-1,71
 1436 -41 1436 -41 1407.5 -24 c 128,-1,72
 1379 -7 1379 -7 1352.5 13 c 128,-1,73
 1326 33 1326 33 1301 53 c 0,74,75
 1284 67 1284 67 1266.5 80.5 c 128,-1,76
 1249 94 1249 94 1229 108 c 1,77,78
 1178 70 1178 70 1120 44 c 128,-1,79
 1062 18 1062 18 1003.5 1.5 c 128,-1,80
 945 -15 945 -15 888 -22.5 c 128,-1,81
 831 -30 831 -30 781 -30 c 0,82,83
 662 -30 662 -30 567 1.5 c 128,-1,84
 472 33 472 33 405 90.5 c 128,-1,85
 338 148 338 148 302.5 228 c 128,-1,86
 267 308 267 308 267 405 c 0,0,1
742 912 m 1,87,88
 794 942 794 942 840.5 974 c 128,-1,89
 887 1006 887 1006 922 1041 c 128,-1,90
 957 1076 957 1076 978 1114 c 128,-1,91
 999 1152 999 1152 999 1196 c 0,92,93
 999 1245 999 1245 985 1280 c 128,-1,94
 971 1315 971 1315 946.5 1337.5 c 128,-1,95
 922 1360 922 1360 890 1371 c 128,-1,96
 858 1382 858 1382 822 1382 c 256,97,98
 786 1382 786 1382 751.5 1369.5 c 128,-1,99
 717 1357 717 1357 689.5 1331.5 c 128,-1,100
 662 1306 662 1306 645.5 1267 c 128,-1,101
 629 1228 629 1228 629 1174 c 0,102,103
 629 1139 629 1139 639 1104.5 c 128,-1,104
 649 1070 649 1070 664.5 1037 c 128,-1,105
 680 1004 680 1004 700.5 972.5 c 128,-1,106
 721 941 721 941 742 912 c 1,87,88
493 400 m 0,107,108
 493 336 493 336 522.5 292.5 c 128,-1,109
 552 249 552 249 596.5 223 c 128,-1,110
 641 197 641 197 694 185.5 c 128,-1,111
 747 174 747 174 795 174 c 0,112,113
 822 174 822 174 853.5 178 c 128,-1,114
 885 182 885 182 918.5 191 c 128,-1,115
 952 200 952 200 986 214.5 c 128,-1,116
 1020 229 1020 229 1052 250 c 1,117,118
 1005 293 1005 293 956.5 341.5 c 128,-1,119
 908 390 908 390 861 440 c 128,-1,120
 814 490 814 490 771 539 c 128,-1,121
 728 588 728 588 694 633 c 1,122,123
 648 603 648 603 611 577 c 128,-1,124
 574 551 574 551 547.5 524.5 c 128,-1,125
 521 498 521 498 507 468 c 128,-1,126
 493 438 493 438 493 400 c 0,107,108
EndSplineSet
EndChar

StartChar: quotesingle
Encoding: 39 39 32
Width: 512
GlyphClass: 2
Flags: W
LayerCount: 2
Fore
SplineSet
249 1117 m 0,0,1
 229 1117 229 1117 208.5 1123 c 128,-1,2
 188 1129 188 1129 171.5 1142 c 128,-1,3
 155 1155 155 1155 144.5 1174 c 128,-1,4
 134 1193 134 1193 134 1219 c 0,5,6
 134 1255 134 1255 136.5 1291.5 c 128,-1,7
 139 1328 139 1328 139 1370 c 0,8,9
 139 1404 139 1404 137 1436.5 c 128,-1,10
 135 1469 135 1469 132 1501 c 0,11,12
 129 1534 129 1534 126.5 1568 c 128,-1,13
 124 1602 124 1602 124 1638 c 0,14,15
 124 1659 124 1659 131 1678 c 128,-1,16
 138 1697 138 1697 153 1712 c 128,-1,17
 168 1727 168 1727 192.5 1735.5 c 128,-1,18
 217 1744 217 1744 252 1744 c 0,19,20
 274 1744 274 1744 295 1738.5 c 128,-1,21
 316 1733 316 1733 332.5 1720 c 128,-1,22
 349 1707 349 1707 359.5 1686 c 128,-1,23
 370 1665 370 1665 370 1634 c 0,24,25
 370 1599 370 1599 367.5 1565.5 c 128,-1,26
 365 1532 365 1532 362 1499 c 0,27,28
 359 1467 359 1467 357 1433.5 c 128,-1,29
 355 1400 355 1400 355 1365 c 256,30,31
 355 1330 355 1330 359 1293.5 c 128,-1,32
 363 1257 363 1257 363 1214 c 0,33,34
 363 1166 363 1166 332.5 1141.5 c 128,-1,35
 302 1117 302 1117 249 1117 c 0,0,1
EndSplineSet
EndChar

StartChar: parenleft
Encoding: 40 40 33
Width: 1024
GlyphClass: 2
Flags: W
LayerCount: 2
Fore
SplineSet
648 -281 m 0,0,1
 538 -223 538 -223 455.5 -145 c 128,-1,2
 373 -67 373 -67 313 22 c 128,-1,3
 253 111 253 111 213 207.5 c 128,-1,4
 173 304 173 304 149.5 400 c 128,-1,5
 126 496 126 496 116.5 587 c 128,-1,6
 107 678 107 678 107 756 c 0,7,8
 107 929 107 929 143 1077.5 c 128,-1,9
 179 1226 179 1226 237 1347 c 128,-1,10
 295 1468 295 1468 369.5 1561.5 c 128,-1,11
 444 1655 444 1655 521.5 1718.5 c 128,-1,12
 599 1782 599 1782 672 1815 c 128,-1,13
 745 1848 745 1848 802 1848 c 0,14,15
 850 1848 850 1848 879.5 1824.5 c 128,-1,16
 909 1801 909 1801 909 1753 c 0,17,18
 909 1715 909 1715 886 1691 c 128,-1,19
 863 1667 863 1667 815 1649 c 0,20,21
 777 1635 777 1635 726.5 1606.5 c 128,-1,22
 676 1578 676 1578 622 1530.5 c 128,-1,23
 568 1483 568 1483 515.5 1414 c 128,-1,24
 463 1345 463 1345 421.5 1250.5 c 128,-1,25
 380 1156 380 1156 354.5 1032.5 c 128,-1,26
 329 909 329 909 329 753 c 0,27,28
 329 610 329 610 349 496 c 128,-1,29
 369 382 369 382 402.5 293 c 128,-1,30
 436 204 436 204 478.5 138.5 c 128,-1,31
 521 73 521 73 566 26 c 128,-1,32
 611 -21 611 -21 654 -51.5 c 128,-1,33
 697 -82 697 -82 732 -99 c 1,34,35
 782 -107 782 -107 811.5 -120 c 128,-1,36
 841 -133 841 -133 856.5 -148.5 c 128,-1,37
 872 -164 872 -164 876.5 -182 c 128,-1,38
 881 -200 881 -200 881 -218 c 0,39,40
 881 -273 881 -273 853 -296.5 c 128,-1,41
 825 -320 825 -320 776 -320 c 0,42,43
 747 -320 747 -320 713.5 -309 c 128,-1,44
 680 -298 680 -298 648 -281 c 0,0,1
EndSplineSet
EndChar

StartChar: asterisk
Encoding: 42 42 35
Width: 1196
GlyphClass: 2
Flags: W
LayerCount: 2
Fore
SplineSet
376 1116 m 0,0,1
 322 1116 322 1116 292 1139.5 c 128,-1,2
 262 1163 262 1163 262 1226 c 0,3,4
 262 1261 262 1261 277.5 1290.5 c 128,-1,5
 293 1320 293 1320 316.5 1346 c 128,-1,6
 340 1372 340 1372 366.5 1396 c 128,-1,7
 393 1420 393 1420 415 1445 c 1,8,9
 390 1455 390 1455 365 1464.5 c 128,-1,10
 340 1474 340 1474 319 1481.5 c 128,-1,11
 298 1489 298 1489 282.5 1495 c 128,-1,12
 267 1501 267 1501 261 1503 c 0,13,14
 240 1510 240 1510 222 1519 c 128,-1,15
 204 1528 204 1528 190 1541.5 c 128,-1,16
 176 1555 176 1555 168 1575 c 128,-1,17
 160 1595 160 1595 160 1624 c 0,18,19
 160 1646 160 1646 170 1663 c 128,-1,20
 180 1680 180 1680 196 1691.5 c 128,-1,21
 212 1703 212 1703 231.5 1709 c 128,-1,22
 251 1715 251 1715 270 1715 c 0,23,24
 293 1715 293 1715 347.5 1695.5 c 128,-1,25
 402 1676 402 1676 484 1636 c 1,26,27
 484 1677 484 1677 480.5 1717.5 c 128,-1,28
 477 1758 477 1758 477 1803 c 0,29,30
 477 1831 477 1831 487 1854 c 128,-1,31
 497 1877 497 1877 513.5 1893.5 c 128,-1,32
 530 1910 530 1910 552 1918.5 c 128,-1,33
 574 1927 574 1927 597 1927 c 0,34,35
 653 1927 653 1927 677 1894 c 128,-1,36
 701 1861 701 1861 701 1803 c 0,37,38
 701 1783 701 1783 700.5 1766 c 128,-1,39
 700 1749 700 1749 699 1729.5 c 128,-1,40
 698 1710 698 1710 696.5 1686.5 c 128,-1,41
 695 1663 695 1663 692 1631 c 1,42,43
 718 1641 718 1641 736 1648 c 128,-1,44
 754 1655 754 1655 766 1660 c 128,-1,45
 778 1665 778 1665 786 1669 c 128,-1,46
 794 1673 794 1673 801 1676 c 0,47,48
 836 1692 836 1692 870 1705.5 c 128,-1,49
 904 1719 904 1719 937 1719 c 0,50,51
 981 1719 981 1719 1011.5 1695 c 128,-1,52
 1042 1671 1042 1671 1042 1621 c 0,53,54
 1042 1596 1042 1596 1030 1575.5 c 128,-1,55
 1018 1555 1018 1555 1000.5 1539 c 128,-1,56
 983 1523 983 1523 964 1512.5 c 128,-1,57
 945 1502 945 1502 932 1497 c 0,58,59
 870 1476 870 1476 835 1464.5 c 128,-1,60
 800 1453 800 1453 781.5 1447 c 128,-1,61
 763 1441 763 1441 756.5 1438.5 c 128,-1,62
 750 1436 750 1436 745 1434 c 1,63,64
 764 1406 764 1406 787 1380 c 128,-1,65
 810 1354 810 1354 829.5 1326 c 128,-1,66
 849 1298 849 1298 863 1266 c 128,-1,67
 877 1234 877 1234 879 1195 c 1,68,69
 879 1165 879 1165 867 1145.5 c 128,-1,70
 855 1126 855 1126 838 1114.5 c 128,-1,71
 821 1103 821 1103 801 1099 c 128,-1,72
 781 1095 781 1095 766 1095 c 0,73,74
 741 1095 741 1095 719.5 1110.5 c 128,-1,75
 698 1126 698 1126 679 1150.5 c 128,-1,76
 660 1175 660 1175 642.5 1205.5 c 128,-1,77
 625 1236 625 1236 609 1266 c 0,78,79
 601 1281 601 1281 594.5 1294.5 c 128,-1,80
 588 1308 588 1308 577 1324 c 1,81,82
 568 1310 568 1310 557.5 1290.5 c 128,-1,83
 547 1271 547 1271 533 1248.5 c 128,-1,84
 519 1226 519 1226 502 1203 c 128,-1,85
 485 1180 485 1180 463 1159 c 1,86,87
 457 1151 457 1151 446 1143.5 c 128,-1,88
 435 1136 435 1136 422.5 1130 c 128,-1,89
 410 1124 410 1124 397.5 1120 c 128,-1,90
 385 1116 385 1116 376 1116 c 0,0,1
EndSplineSet
EndChar

StartChar: plus
Encoding: 43 43 36
Width: 1196
GlyphClass: 2
Flags: W
LayerCount: 2
Fore
SplineSet
466 362 m 0,0,1
 466 400 466 400 466 443 c 128,-1,2
 466 486 466 486 467 531 c 0,3,4
 467 547 467 547 467.5 567 c 128,-1,5
 468 587 468 587 468 619 c 1,6,-1
 206 622 l 2,7,8
 188 622 188 622 170.5 627 c 128,-1,9
 153 632 153 632 138.5 646 c 128,-1,10
 124 660 124 660 115 685 c 128,-1,11
 106 710 106 710 106 750 c 0,12,13
 106 781 106 781 116.5 798.5 c 128,-1,14
 127 816 127 816 146 825 c 128,-1,15
 165 834 165 834 191.5 836.5 c 128,-1,16
 218 839 218 839 250 839 c 2,17,-1
 470 838 l 1,18,-1
 473 1110 l 2,19,20
 473 1128 473 1128 476.5 1146 c 128,-1,21
 480 1164 480 1164 492 1178 c 128,-1,22
 504 1192 504 1192 527.5 1201 c 128,-1,23
 551 1210 551 1210 592 1210 c 0,24,25
 622 1210 622 1210 641.5 1199.5 c 128,-1,26
 661 1189 661 1189 672.5 1170 c 128,-1,27
 684 1151 684 1151 688 1124 c 128,-1,28
 692 1097 692 1097 692 1064 c 2,29,-1
 692 991 l 1,30,31
 691 948 691 948 691 910 c 128,-1,32
 691 872 691 872 691 838 c 1,33,-1
 877 838 l 1,34,-1
 948 850 l 1,35,36
 962 850 962 850 980 845 c 128,-1,37
 998 840 998 840 1014.5 826.5 c 128,-1,38
 1031 813 1031 813 1042.5 790.5 c 128,-1,39
 1054 768 1054 768 1054 734 c 0,40,41
 1054 680 1054 680 1027 647.5 c 128,-1,42
 1000 615 1000 615 955 615 c 0,43,44
 917 615 917 615 875.5 615 c 128,-1,45
 834 615 834 615 789 616 c 0,46,47
 772 616 772 616 749.5 616.5 c 128,-1,48
 727 617 727 617 690 617 c 1,49,50
 689 548 689 548 689.5 507 c 128,-1,51
 690 466 690 466 690 440 c 1,52,-1
 703 368 l 1,53,54
 703 354 703 354 697.5 336 c 128,-1,55
 692 318 692 318 679 302.5 c 128,-1,56
 666 287 666 287 643 276 c 128,-1,57
 620 265 620 265 586 265 c 0,58,59
 531 265 531 265 498.5 291 c 128,-1,60
 466 317 466 317 466 362 c 0,0,1
EndSplineSet
EndChar

StartChar: comma
Encoding: 44 44 37
Width: 855
GlyphClass: 2
Flags: W
LayerCount: 2
Fore
SplineSet
258 -99 m 0,0,1
 278 -69 278 -69 286.5 -41 c 128,-1,2
 295 -13 295 -13 302 13 c 1,3,4
 297 23 297 23 293 38.5 c 128,-1,5
 289 54 289 54 286.5 70.5 c 128,-1,6
 284 87 284 87 283 102 c 128,-1,7
 282 117 282 117 282 127 c 0,8,9
 282 157 282 157 288 188.5 c 128,-1,10
 294 220 294 220 309 245 c 128,-1,11
 324 270 324 270 350 286 c 128,-1,12
 376 302 376 302 417 302 c 256,13,14
 458 302 458 302 483.5 288 c 128,-1,15
 509 274 509 274 523 250 c 128,-1,16
 537 226 537 226 542 193.5 c 128,-1,17
 547 161 547 161 547 124 c 0,18,19
 547 94 547 94 540.5 57 c 128,-1,20
 534 20 534 20 522 -19.5 c 128,-1,21
 510 -59 510 -59 492.5 -98.5 c 128,-1,22
 475 -138 475 -138 454 -173 c 0,23,24
 446 -185 446 -185 433 -200.5 c 128,-1,25
 420 -216 420 -216 403 -230 c 128,-1,26
 386 -244 386 -244 366 -253.5 c 128,-1,27
 346 -263 346 -263 325 -263 c 0,28,29
 279 -263 279 -263 254.5 -234.5 c 128,-1,30
 230 -206 230 -206 230 -167 c 0,31,32
 230 -147 230 -147 239.5 -130 c 128,-1,33
 249 -113 249 -113 258 -99 c 0,0,1
EndSplineSet
EndChar

StartChar: hyphen
Encoding: 45 45 38
Width: 1196
GlyphClass: 2
Flags: W
LayerCount: 2
Fore
SplineSet
206 622 m 0,0,1
 188 622 188 622 170.5 627 c 128,-1,2
 153 632 153 632 138.5 646 c 128,-1,3
 124 660 124 660 115 685 c 128,-1,4
 106 710 106 710 106 750 c 0,5,6
 106 781 106 781 116.5 798.5 c 128,-1,7
 127 816 127 816 146 825 c 128,-1,8
 165 834 165 834 191.5 836.5 c 128,-1,9
 218 839 218 839 250 839 c 2,10,-1
 877 838 l 1,11,12
 891 843 891 843 908 846.5 c 128,-1,13
 925 850 925 850 948 850 c 0,14,15
 967 850 967 850 986 845 c 128,-1,16
 1005 840 1005 840 1020 826.5 c 128,-1,17
 1035 813 1035 813 1044.5 790.5 c 128,-1,18
 1054 768 1054 768 1054 734 c 0,19,20
 1054 680 1054 680 1027 647.5 c 128,-1,21
 1000 615 1000 615 955 615 c 0,22,23
 929 615 929 615 899 615.5 c 128,-1,24
 869 616 869 616 828 616 c 0,25,26
 808 616 808 616 786.5 616 c 128,-1,27
 765 616 765 616 735 616.5 c 128,-1,28
 705 617 705 617 662 617.5 c 128,-1,29
 619 618 619 618 556.5 618.5 c 128,-1,30
 494 619 494 619 408 620 c 128,-1,31
 322 621 322 621 206 622 c 0,0,1
EndSplineSet
EndChar

StartChar: period
Encoding: 46 46 39
Width: 853
GlyphClass: 2
Flags: W
LayerCount: 2
Fore
SplineSet
301 94 m 0,0,1
 301 121 301 121 304.5 160 c 128,-1,2
 308 199 308 199 321 235.5 c 128,-1,3
 334 272 334 272 359 298 c 128,-1,4
 384 324 384 324 427 324 c 256,5,6
 470 324 470 324 493 305 c 128,-1,7
 516 286 516 286 526.5 260.5 c 128,-1,8
 537 235 537 235 538.5 208.5 c 128,-1,9
 540 182 540 182 540 167 c 2,10,-1
 540 161 l 2,11,12
 540 116 540 116 534 80.5 c 128,-1,13
 528 45 528 45 513.5 20.5 c 128,-1,14
 499 -4 499 -4 474.5 -17 c 128,-1,15
 450 -30 450 -30 414 -30 c 0,16,17
 379 -30 379 -30 357.5 -19.5 c 128,-1,18
 336 -9 336 -9 323 8 c 128,-1,19
 310 25 310 25 305.5 47.5 c 128,-1,20
 301 70 301 70 301 94 c 0,0,1
EndSplineSet
EndChar

StartChar: slash
Encoding: 47 47 40
Width: 1025
GlyphClass: 2
Flags: W
LayerCount: 2
Fore
SplineSet
114 15 m 1,0,1
 131 65 131 65 155.5 134.5 c 128,-1,2
 180 204 180 204 214 300.5 c 128,-1,3
 248 397 248 397 293.5 525 c 128,-1,4
 339 653 339 653 399 821.5 c 128,-1,5
 459 990 459 990 535 1203 c 128,-1,6
 611 1416 611 1416 706 1682 c 0,7,8
 710 1693 710 1693 717 1705 c 128,-1,9
 724 1717 724 1717 735.5 1727 c 128,-1,10
 747 1737 747 1737 762.5 1743.5 c 128,-1,11
 778 1750 778 1750 799 1750 c 0,12,13
 855 1750 855 1750 886 1720.5 c 128,-1,14
 917 1691 917 1691 917 1649 c 0,15,16
 917 1642 917 1642 916 1632.5 c 128,-1,17
 915 1623 915 1623 913 1617 c 0,18,19
 913 1616 913 1616 912.5 1615 c 128,-1,20
 912 1614 912 1614 912 1613 c 0,21,22
 906 1592 906 1592 881.5 1520.5 c 128,-1,23
 857 1449 857 1449 817 1336 c 128,-1,24
 777 1223 777 1223 724 1072 c 128,-1,25
 671 921 671 921 607 742 c 128,-1,26
 543 563 543 563 470.5 360.5 c 128,-1,27
 398 158 398 158 320 -60 c 0,28,29
 318 -68 318 -68 317 -75 c 128,-1,30
 316 -82 316 -82 315 -88 c 0,31,32
 314 -98 314 -98 310 -117 c 128,-1,33
 306 -136 306 -136 295 -155 c 128,-1,34
 284 -174 284 -174 263 -188 c 128,-1,35
 242 -202 242 -202 208 -202 c 0,36,37
 177 -202 177 -202 152.5 -191.5 c 128,-1,38
 128 -181 128 -181 111 -164.5 c 128,-1,39
 94 -148 94 -148 85 -128.5 c 128,-1,40
 76 -109 76 -109 76 -91 c 0,41,42
 76 -89 76 -89 77.5 -77.5 c 128,-1,43
 79 -66 79 -66 83.5 -50.5 c 128,-1,44
 88 -35 88 -35 95.5 -17 c 128,-1,45
 103 1 103 1 115 16 c 1,46,-1
 114 15 l 1,47,-1
 114 15 l 1,0,1
EndSplineSet
EndChar

StartChar: zero
Encoding: 48 48 41
Width: 1536
GlyphClass: 2
Flags: W
LayerCount: 2
Fore
SplineSet
744 -30 m 0,0,1
 596 -30 596 -30 484 34.5 c 128,-1,2
 372 99 372 99 296.5 210 c 128,-1,3
 221 321 221 321 183 469 c 128,-1,4
 145 617 145 617 145 785 c 0,5,6
 145 962 145 962 187 1110 c 128,-1,7
 229 1258 229 1258 307 1364.5 c 128,-1,8
 385 1471 385 1471 496 1530.5 c 128,-1,9
 607 1590 607 1590 744 1590 c 0,10,11
 886 1590 886 1590 996.5 1530.5 c 128,-1,12
 1107 1471 1107 1471 1182 1364.5 c 128,-1,13
 1257 1258 1257 1258 1296 1110 c 128,-1,14
 1335 962 1335 962 1335 785 c 0,15,16
 1335 617 1335 617 1297.5 469 c 128,-1,17
 1260 321 1260 321 1185.5 210 c 128,-1,18
 1111 99 1111 99 1000.5 34.5 c 128,-1,19
 890 -30 890 -30 744 -30 c 0,0,1
749 178 m 0,20,21
 814 178 814 178 865.5 202.5 c 128,-1,22
 917 227 917 227 957 269.5 c 128,-1,23
 997 312 997 312 1025.5 370 c 128,-1,24
 1054 428 1054 428 1072 495.5 c 128,-1,25
 1090 563 1090 563 1098.5 636.5 c 128,-1,26
 1107 710 1107 710 1107 785 c 0,27,28
 1107 904 1107 904 1086 1012.5 c 128,-1,29
 1065 1121 1065 1121 1021 1203 c 128,-1,30
 977 1285 977 1285 909.5 1333.5 c 128,-1,31
 842 1382 842 1382 749 1382 c 0,32,33
 657 1382 657 1382 586.5 1338.5 c 128,-1,34
 516 1295 516 1295 469 1216.5 c 128,-1,35
 422 1138 422 1138 398 1028 c 128,-1,36
 374 918 374 918 374 785 c 0,37,38
 374 673 374 673 395.5 564.5 c 128,-1,39
 417 456 417 456 463 370 c 128,-1,40
 509 284 509 284 579.5 231 c 128,-1,41
 650 178 650 178 749 178 c 0,20,21
EndSplineSet
EndChar

StartChar: one
Encoding: 49 49 42
Width: 1031
GlyphClass: 2
Flags: W
LayerCount: 2
Fore
SplineSet
447 89 m 0,0,1
 447 138 447 138 454 187.5 c 128,-1,2
 461 237 461 237 461 297 c 0,3,4
 461 363 461 363 461 423.5 c 128,-1,5
 461 484 461 484 461 547.5 c 128,-1,6
 461 611 461 611 460.5 682.5 c 128,-1,7
 460 754 460 754 459.5 842 c 128,-1,8
 459 930 459 930 458.5 1039 c 128,-1,9
 458 1148 458 1148 457 1287 c 1,10,11
 433 1275 433 1275 406.5 1257 c 128,-1,12
 380 1239 380 1239 352 1222.5 c 128,-1,13
 324 1206 324 1206 295 1194.5 c 128,-1,14
 266 1183 266 1183 238 1183 c 0,15,16
 187 1183 187 1183 155.5 1214 c 128,-1,17
 124 1245 124 1245 124 1295 c 0,18,19
 124 1363 124 1363 205 1405 c 0,20,21
 255 1430 255 1430 302.5 1457.5 c 128,-1,22
 350 1485 350 1485 388 1508 c 0,23,24
 449 1545 449 1545 495.5 1567.5 c 128,-1,25
 542 1590 542 1590 579 1590 c 0,26,27
 608 1590 608 1590 630 1578 c 128,-1,28
 652 1566 652 1566 666.5 1547 c 128,-1,29
 681 1528 681 1528 688 1504.5 c 128,-1,30
 695 1481 695 1481 695 1459 c 0,31,32
 695 1445 695 1445 690.5 1432.5 c 128,-1,33
 686 1420 686 1420 686 1406 c 0,34,35
 684 1320 684 1320 683.5 1205 c 128,-1,36
 683 1090 683 1090 683 966 c 0,37,38
 683 899 683 899 682 822.5 c 128,-1,39
 681 746 681 746 680.5 667 c 128,-1,40
 680 588 680 588 680 510 c 128,-1,41
 680 432 680 432 681.5 363 c 128,-1,42
 683 294 683 294 686.5 236.5 c 128,-1,43
 690 179 690 179 697 142 c 0,44,45
 699 128 699 128 701 115.5 c 128,-1,46
 703 103 703 103 703 89 c 0,47,48
 703 66 703 66 698 46.5 c 128,-1,49
 693 27 693 27 679.5 12 c 128,-1,50
 666 -3 666 -3 643 -11.5 c 128,-1,51
 620 -20 620 -20 584 -20 c 0,52,53
 544 -20 544 -20 517.5 -13 c 128,-1,54
 491 -6 491 -6 475.5 8 c 128,-1,55
 460 22 460 22 453.5 42.5 c 128,-1,56
 447 63 447 63 447 89 c 0,0,1
EndSplineSet
EndChar

StartChar: two
Encoding: 50 50 43
Width: 1539
GlyphClass: 2
Flags: W
LayerCount: 2
Fore
SplineSet
126 97 m 0,0,1
 126 122 126 122 136 141 c 128,-1,2
 146 160 146 160 162.5 175 c 128,-1,3
 179 190 179 190 200.5 202.5 c 128,-1,4
 222 215 222 215 245 228 c 1,5,-1
 244 228 l 1,6,7
 308 267 308 267 393.5 319 c 128,-1,8
 479 371 479 371 569.5 434.5 c 128,-1,9
 660 498 660 498 748 571.5 c 128,-1,10
 836 645 836 645 905.5 727 c 128,-1,11
 975 809 975 809 1017.5 898.5 c 128,-1,12
 1060 988 1060 988 1060 1084 c 0,13,14
 1060 1154 1060 1154 1031 1209.5 c 128,-1,15
 1002 1265 1002 1265 955 1304 c 128,-1,16
 908 1343 908 1343 848 1363.5 c 128,-1,17
 788 1384 788 1384 726 1384 c 0,18,19
 653 1384 653 1384 589 1363 c 128,-1,20
 525 1342 525 1342 476.5 1301.5 c 128,-1,21
 428 1261 428 1261 398.5 1202.5 c 128,-1,22
 369 1144 369 1144 365 1068 c 1,23,24
 369 1061 369 1061 373 1053.5 c 128,-1,25
 377 1046 377 1046 385 1035 c 0,26,27
 399 1013 399 1013 407 993.5 c 128,-1,28
 415 974 415 974 415 937 c 0,29,30
 415 914 415 914 404.5 896 c 128,-1,31
 394 878 394 878 377.5 865 c 128,-1,32
 361 852 361 852 341 845 c 128,-1,33
 321 838 321 838 302 838 c 0,34,35
 271 838 271 838 246 850.5 c 128,-1,36
 221 863 221 863 203 883.5 c 128,-1,37
 185 904 185 904 172 929.5 c 128,-1,38
 159 955 159 955 151 982 c 128,-1,39
 143 1009 143 1009 139.5 1034 c 128,-1,40
 136 1059 136 1059 136 1078 c 0,41,42
 136 1163 136 1163 160 1234 c 128,-1,43
 184 1305 184 1305 226 1362 c 128,-1,44
 268 1419 268 1419 325 1462 c 128,-1,45
 382 1505 382 1505 447.5 1533.5 c 128,-1,46
 513 1562 513 1562 584.5 1576 c 128,-1,47
 656 1590 656 1590 727 1590 c 0,48,49
 844 1590 844 1590 947.5 1555.5 c 128,-1,50
 1051 1521 1051 1521 1128 1455 c 128,-1,51
 1205 1389 1205 1389 1249.5 1294.5 c 128,-1,52
 1294 1200 1294 1200 1294 1080 c 0,53,54
 1294 988 1294 988 1260.5 898 c 128,-1,55
 1227 808 1227 808 1171.5 723.5 c 128,-1,56
 1116 639 1116 639 1043.5 561 c 128,-1,57
 971 483 971 483 893 415.5 c 128,-1,58
 815 348 815 348 736.5 291.5 c 128,-1,59
 658 235 658 235 591 194 c 1,60,61
 618 194 618 194 657.5 194.5 c 128,-1,62
 697 195 697 195 737.5 195.5 c 128,-1,63
 778 196 778 196 814.5 196 c 128,-1,64
 851 196 851 196 872 196 c 0,65,66
 947 196 947 196 1024 198 c 128,-1,67
 1101 200 1101 200 1190 200 c 0,68,69
 1222 200 1222 200 1252.5 207 c 128,-1,70
 1283 214 1283 214 1318 214 c 0,71,72
 1359 214 1359 214 1387.5 181 c 128,-1,73
 1416 148 1416 148 1416 96 c 0,74,75
 1416 64 1416 64 1406 43 c 128,-1,76
 1396 22 1396 22 1380.5 10 c 128,-1,77
 1365 -2 1365 -2 1346 -7 c 128,-1,78
 1327 -12 1327 -12 1309 -12 c 0,79,80
 1263 -12 1263 -12 1217 -6.5 c 128,-1,81
 1171 -1 1171 -1 1119 0 c 1,82,-1
 246 0 l 2,83,84
 221 0 221 0 199.5 7.5 c 128,-1,85
 178 15 178 15 161.5 28 c 128,-1,86
 145 41 145 41 135.5 59 c 128,-1,87
 126 77 126 77 126 97 c 0,0,1
EndSplineSet
EndChar

StartChar: three
Encoding: 51 51 44
Width: 1704
GlyphClass: 2
Flags: W
LayerCount: 2
Fore
SplineSet
206 477 m 0,0,1
 206 518 206 518 210 563.5 c 128,-1,2
 214 609 214 609 228.5 647 c 128,-1,3
 243 685 243 685 270 710 c 128,-1,4
 297 735 297 735 343 735 c 0,5,6
 362 735 362 735 383.5 730 c 128,-1,7
 405 725 405 725 423 712.5 c 128,-1,8
 441 700 441 700 453 678.5 c 128,-1,9
 465 657 465 657 465 623 c 0,10,11
 465 583 465 583 454 543.5 c 128,-1,12
 443 504 443 504 443 461 c 0,13,14
 443 403 443 403 472.5 352 c 128,-1,15
 502 301 502 301 555.5 263.5 c 128,-1,16
 609 226 609 226 682.5 204.5 c 128,-1,17
 756 183 756 183 843 183 c 0,18,19
 917 183 917 183 990 201 c 128,-1,20
 1063 219 1063 219 1120.5 256.5 c 128,-1,21
 1178 294 1178 294 1214 351.5 c 128,-1,22
 1250 409 1250 409 1250 487 c 0,23,24
 1250 566 1250 566 1223.5 621.5 c 128,-1,25
 1197 677 1197 677 1153 711.5 c 128,-1,26
 1109 746 1109 746 1051.5 761.5 c 128,-1,27
 994 777 994 777 933 777 c 0,28,29
 912 777 912 777 892 773 c 128,-1,30
 872 769 872 769 851.5 764.5 c 128,-1,31
 831 760 831 760 810.5 756 c 128,-1,32
 790 752 790 752 768 752 c 0,33,34
 739 752 739 752 717.5 761.5 c 128,-1,35
 696 771 696 771 682 787 c 128,-1,36
 668 803 668 803 660.5 823.5 c 128,-1,37
 653 844 653 844 653 866 c 0,38,39
 653 875 653 875 657.5 888.5 c 128,-1,40
 662 902 662 902 669 917 c 128,-1,41
 676 932 676 932 684.5 945.5 c 128,-1,42
 693 959 693 959 701 967 c 0,43,44
 740 1006 740 1006 775 1041.5 c 128,-1,45
 810 1077 810 1077 849 1119.5 c 128,-1,46
 888 1162 888 1162 934.5 1215.5 c 128,-1,47
 981 1269 981 1269 1044 1344 c 1,48,-1
 439 1344 l 2,49,50
 409 1344 409 1344 385.5 1353 c 128,-1,51
 362 1362 362 1362 346 1377 c 128,-1,52
 330 1392 330 1392 322 1411 c 128,-1,53
 314 1430 314 1430 314 1451 c 0,54,55
 314 1469 314 1469 321 1488.5 c 128,-1,56
 328 1508 328 1508 342 1524 c 128,-1,57
 356 1540 356 1540 377 1550.5 c 128,-1,58
 398 1561 398 1561 427 1561 c 2,59,-1
 1285 1561 l 2,60,61
 1336 1561 1336 1561 1367 1536.5 c 128,-1,62
 1398 1512 1398 1512 1398 1465 c 0,63,64
 1398 1417 1398 1417 1370 1382 c 0,65,66
 1350 1357 1350 1357 1315 1318 c 128,-1,67
 1280 1279 1280 1279 1232.5 1227.5 c 128,-1,68
 1185 1176 1185 1176 1126 1113 c 128,-1,69
 1067 1050 1067 1050 1000 977 c 1,70,71
 1105 972 1105 972 1195 939 c 128,-1,72
 1285 906 1285 906 1351.5 845 c 128,-1,73
 1418 784 1418 784 1455.5 697 c 128,-1,74
 1493 610 1493 610 1493 498 c 0,75,76
 1493 371 1493 371 1438.5 272.5 c 128,-1,77
 1384 174 1384 174 1293.5 106.5 c 128,-1,78
 1203 39 1203 39 1085 4 c 128,-1,79
 967 -31 967 -31 840 -31 c 0,80,81
 711 -31 711 -31 596 3.5 c 128,-1,82
 481 38 481 38 394 103.5 c 128,-1,83
 307 169 307 169 256.5 263.5 c 128,-1,84
 206 358 206 358 206 477 c 0,0,1
EndSplineSet
EndChar

StartChar: four
Encoding: 52 52 45
Width: 1538
GlyphClass: 2
Flags: W
LayerCount: 2
Fore
SplineSet
146 311 m 0,0,1
 125 311 125 311 102 316.5 c 128,-1,2
 79 322 79 322 60.5 335.5 c 128,-1,3
 42 349 42 349 30 370.5 c 128,-1,4
 18 392 18 392 18 425 c 0,5,6
 18 462 18 462 32.5 485.5 c 128,-1,7
 47 509 47 509 69 523 c 128,-1,8
 91 537 91 537 118 542.5 c 128,-1,9
 145 548 145 548 170 549 c 1,10,11
 234 618 234 618 287 704 c 128,-1,12
 340 790 340 790 378.5 886.5 c 128,-1,13
 417 983 417 983 441 1087 c 128,-1,14
 465 1191 465 1191 473 1297 c 0,15,16
 474 1317 474 1317 475 1336 c 128,-1,17
 476 1355 476 1355 476.5 1380.5 c 128,-1,18
 477 1406 477 1406 477 1442.5 c 128,-1,19
 477 1479 477 1479 477 1535 c 0,20,21
 477 1563 477 1563 488 1584 c 128,-1,22
 499 1605 499 1605 516 1619.5 c 128,-1,23
 533 1634 533 1634 553.5 1641 c 128,-1,24
 574 1648 574 1648 594 1648 c 0,25,26
 630 1648 630 1648 653 1636.5 c 128,-1,27
 676 1625 676 1625 688.5 1601 c 128,-1,28
 701 1577 701 1577 706 1540 c 128,-1,29
 711 1503 711 1503 711 1452 c 0,30,31
 711 1366 711 1366 699.5 1276 c 128,-1,32
 688 1186 688 1186 668.5 1097.5 c 128,-1,33
 649 1009 649 1009 622.5 925 c 128,-1,34
 596 841 596 841 565.5 768.5 c 128,-1,35
 535 696 535 696 501.5 637.5 c 128,-1,36
 468 579 468 579 436 541 c 1,37,38
 559 541 559 541 680.5 542 c 128,-1,39
 802 543 802 543 926 545 c 1,40,41
 925 655 925 655 925 767 c 128,-1,42
 925 879 925 879 925 1000 c 0,43,44
 925 1028 925 1028 935 1049 c 128,-1,45
 945 1070 945 1070 961.5 1084 c 128,-1,46
 978 1098 978 1098 998 1105.5 c 128,-1,47
 1018 1113 1018 1113 1038 1113 c 0,48,49
 1057 1113 1057 1113 1077.5 1105.5 c 128,-1,50
 1098 1098 1098 1098 1114.5 1084 c 128,-1,51
 1131 1070 1131 1070 1141.5 1049 c 128,-1,52
 1152 1028 1152 1028 1152 1000 c 0,53,54
 1152 927 1152 927 1152.5 856.5 c 128,-1,55
 1153 786 1153 786 1153 717 c 2,56,-1
 1153 549 l 1,57,-1
 1289 551 l 2,58,59
 1316 551 1316 551 1337.5 541 c 128,-1,60
 1359 531 1359 531 1373.5 515 c 128,-1,61
 1388 499 1388 499 1396 480 c 128,-1,62
 1404 461 1404 461 1404 443 c 0,63,64
 1404 427 1404 427 1398.5 408 c 128,-1,65
 1393 389 1393 389 1381 372.5 c 128,-1,66
 1369 356 1369 356 1349.5 345 c 128,-1,67
 1330 334 1330 334 1303 334 c 0,68,69
 1269 334 1269 334 1232 334.5 c 128,-1,70
 1195 335 1195 335 1153 335 c 1,71,72
 1153 279 1153 279 1153.5 218 c 128,-1,73
 1154 157 1154 157 1154 97 c 128,-1,74
 1154 37 1154 37 1154 -19 c 128,-1,75
 1154 -75 1154 -75 1154 -122 c 0,76,77
 1154 -149 1154 -149 1143 -168.5 c 128,-1,78
 1132 -188 1132 -188 1115.5 -200.5 c 128,-1,79
 1099 -213 1099 -213 1079 -219.5 c 128,-1,80
 1059 -226 1059 -226 1041 -226 c 256,81,82
 1023 -226 1023 -226 1003.5 -219.5 c 128,-1,83
 984 -213 984 -213 967 -200.5 c 128,-1,84
 950 -188 950 -188 939 -168.5 c 128,-1,85
 928 -149 928 -149 928 -122 c 0,86,87
 928 -4 928 -4 928 109.5 c 128,-1,88
 928 223 928 223 927 337 c 1,89,-1
 667 337 l 2,90,91
 544 337 544 337 438 336.5 c 128,-1,92
 332 336 332 336 263 334 c 1,93,-1
 265 334 l 1,94,95
 248 326 248 326 229 321.5 c 128,-1,96
 210 317 210 317 193 314.5 c 128,-1,97
 176 312 176 312 163.5 311.5 c 128,-1,98
 151 311 151 311 146 311 c 0,0,1
EndSplineSet
EndChar

StartChar: five
Encoding: 53 53 46
Width: 1712
GlyphClass: 2
Flags: W
LayerCount: 2
Fore
SplineSet
226 441 m 0,0,1
 226 490 226 490 250.5 519 c 128,-1,2
 275 548 275 548 329 554 c 1,3,4
 363 553 363 553 391.5 530.5 c 128,-1,5
 420 508 420 508 432 470 c 0,6,7
 447 423 447 423 474 370.5 c 128,-1,8
 501 318 501 318 549 273.5 c 128,-1,9
 597 229 597 229 669.5 199.5 c 128,-1,10
 742 170 742 170 847 170 c 0,11,12
 917 170 917 170 982.5 193 c 128,-1,13
 1048 216 1048 216 1099 262.5 c 128,-1,14
 1150 309 1150 309 1181 379 c 128,-1,15
 1212 449 1212 449 1212 543 c 0,16,17
 1212 614 1212 614 1189.5 682.5 c 128,-1,18
 1167 751 1167 751 1120 804.5 c 128,-1,19
 1073 858 1073 858 1001.5 891 c 128,-1,20
 930 924 930 924 831 924 c 0,21,22
 737 924 737 924 656.5 905.5 c 128,-1,23
 576 887 576 887 506 845 c 1,24,25
 498 789 498 789 463 753 c 128,-1,26
 428 717 428 717 367 717 c 0,27,28
 342 717 342 717 322 726.5 c 128,-1,29
 302 736 302 736 288 752 c 128,-1,30
 274 768 274 768 266.5 788.5 c 128,-1,31
 259 809 259 809 259 831 c 0,32,33
 259 873 259 873 272 905.5 c 128,-1,34
 285 938 285 938 302 967 c 1,35,36
 304 976 304 976 305.5 986.5 c 128,-1,37
 307 997 307 997 309.5 1013.5 c 128,-1,38
 312 1030 312 1030 315 1055.5 c 128,-1,39
 318 1081 318 1081 322.5 1120 c 128,-1,40
 327 1159 327 1159 333.5 1214 c 128,-1,41
 340 1269 340 1269 349 1345 c 1,42,-1
 349 1344 l 1,43,44
 353 1384 353 1384 358 1423 c 128,-1,45
 363 1462 363 1462 376 1492 c 128,-1,46
 389 1522 389 1522 412.5 1541 c 128,-1,47
 436 1560 436 1560 477 1561 c 1,48,-1
 1239 1561 l 2,49,50
 1268 1561 1268 1561 1289.5 1551.5 c 128,-1,51
 1311 1542 1311 1542 1325 1527.5 c 128,-1,52
 1339 1513 1339 1513 1346 1494.5 c 128,-1,53
 1353 1476 1353 1476 1353 1458 c 0,54,55
 1353 1437 1353 1437 1345 1417 c 128,-1,56
 1337 1397 1337 1397 1321 1382 c 128,-1,57
 1305 1367 1305 1367 1282 1358.5 c 128,-1,58
 1259 1350 1259 1350 1229 1351 c 0,59,60
 1183 1353 1183 1353 1107.5 1354 c 128,-1,61
 1032 1355 1032 1355 943 1355.5 c 128,-1,62
 854 1356 854 1356 760 1356 c 128,-1,63
 666 1356 666 1356 583 1356 c 1,64,-1
 546 1079 l 1,65,66
 615 1106 615 1106 694.5 1117.5 c 128,-1,67
 774 1129 774 1129 845 1129 c 0,68,69
 988 1129 988 1129 1100 1085.5 c 128,-1,70
 1212 1042 1212 1042 1289 965.5 c 128,-1,71
 1366 889 1366 889 1406.5 784.5 c 128,-1,72
 1447 680 1447 680 1447 558 c 0,73,74
 1447 408 1447 408 1392.5 297.5 c 128,-1,75
 1338 187 1338 187 1249 114 c 128,-1,76
 1160 41 1160 41 1047.5 5 c 128,-1,77
 935 -31 935 -31 819 -31 c 0,78,79
 750 -31 750 -31 679.5 -15.5 c 128,-1,80
 609 0 609 0 543 29 c 128,-1,81
 477 58 477 58 419.5 100 c 128,-1,82
 362 142 362 142 319 194.5 c 128,-1,83
 276 247 276 247 251 309 c 128,-1,84
 226 371 226 371 226 441 c 0,0,1
EndSplineSet
EndChar

StartChar: six
Encoding: 54 54 47
Width: 1538
GlyphClass: 2
Flags: W
LayerCount: 2
Fore
SplineSet
126 709 m 0,0,1
 126 828 126 828 147.5 940.5 c 128,-1,2
 169 1053 169 1053 211 1152.5 c 128,-1,3
 253 1252 253 1252 316.5 1335 c 128,-1,4
 380 1418 380 1418 463.5 1478 c 128,-1,5
 547 1538 547 1538 651 1571 c 128,-1,6
 755 1604 755 1604 879 1604 c 0,7,8
 906 1604 906 1604 944 1601.5 c 128,-1,9
 982 1599 982 1599 1023.5 1592.5 c 128,-1,10
 1065 1586 1065 1586 1105.5 1574.5 c 128,-1,11
 1146 1563 1146 1563 1178 1544 c 0,12,13
 1211 1525 1211 1525 1226.5 1502 c 128,-1,14
 1242 1479 1242 1479 1242 1440 c 0,15,16
 1242 1413 1242 1413 1232.5 1393.5 c 128,-1,17
 1223 1374 1223 1374 1207 1361.5 c 128,-1,18
 1191 1349 1191 1349 1171.5 1342.5 c 128,-1,19
 1152 1336 1152 1336 1133 1336 c 0,20,21
 1110 1336 1110 1336 1093.5 1338 c 128,-1,22
 1077 1340 1077 1340 1065 1344 c 128,-1,23
 1053 1348 1053 1348 1044.5 1352.5 c 128,-1,24
 1036 1357 1036 1357 1027 1363 c 0,25,26
 1018 1368 1018 1368 1007.5 1373.5 c 128,-1,27
 997 1379 997 1379 980 1383 c 128,-1,28
 963 1387 963 1387 937.5 1389.5 c 128,-1,29
 912 1392 912 1392 873 1392 c 0,30,31
 778 1392 778 1392 700 1363.5 c 128,-1,32
 622 1335 622 1335 561.5 1283.5 c 128,-1,33
 501 1232 501 1232 457.5 1159 c 128,-1,34
 414 1086 414 1086 388 998 c 1,35,36
 431 1042 431 1042 484 1072.5 c 128,-1,37
 537 1103 537 1103 592 1121.5 c 128,-1,38
 647 1140 647 1140 700.5 1148.5 c 128,-1,39
 754 1157 754 1157 799 1157 c 0,40,41
 931 1157 931 1157 1036.5 1117 c 128,-1,42
 1142 1077 1142 1077 1216 1000.5 c 128,-1,43
 1290 924 1290 924 1329.5 813.5 c 128,-1,44
 1369 703 1369 703 1369 562 c 0,45,46
 1369 498 1369 498 1353.5 429 c 128,-1,47
 1338 360 1338 360 1306 294.5 c 128,-1,48
 1274 229 1274 229 1225.5 169.5 c 128,-1,49
 1177 110 1177 110 1110.5 65.5 c 128,-1,50
 1044 21 1044 21 960 -5 c 128,-1,51
 876 -31 876 -31 774 -31 c 0,52,53
 656 -31 656 -31 561.5 -2 c 128,-1,54
 467 27 467 27 395 78 c 128,-1,55
 323 129 323 129 272 199 c 128,-1,56
 221 269 221 269 188.5 351.5 c 128,-1,57
 156 434 156 434 141 525 c 128,-1,58
 126 616 126 616 126 709 c 0,0,1
365 594 m 2,59,60
 365 514 365 514 391.5 438.5 c 128,-1,61
 418 363 418 363 469 304 c 128,-1,62
 520 245 520 245 595 209 c 128,-1,63
 670 173 670 173 767 173 c 0,64,65
 828 173 828 173 895 195.5 c 128,-1,66
 962 218 962 218 1017.5 265 c 128,-1,67
 1073 312 1073 312 1109 386 c 128,-1,68
 1145 460 1145 460 1145 563 c 256,69,70
 1145 666 1145 666 1115 739.5 c 128,-1,71
 1085 813 1085 813 1036.5 860 c 128,-1,72
 988 907 988 907 925.5 929 c 128,-1,73
 863 951 863 951 799 951 c 0,74,75
 742 951 742 951 677 934.5 c 128,-1,76
 612 918 612 918 551.5 885 c 128,-1,77
 491 852 491 852 441 802 c 128,-1,78
 391 752 391 752 365 685 c 1,79,-1
 365 594 l 2,59,60
EndSplineSet
EndChar

StartChar: seven
Encoding: 55 55 48
Width: 1196
GlyphClass: 2
Flags: W
LayerCount: 2
Fore
SplineSet
402 98 m 0,0,1
 402 133 402 133 417 167.5 c 128,-1,2
 432 202 432 202 446 228 c 1,3,4
 468 284 468 284 489 341 c 128,-1,5
 510 398 510 398 533 464.5 c 128,-1,6
 556 531 556 531 582 612.5 c 128,-1,7
 608 694 608 694 641 799.5 c 128,-1,8
 674 905 674 905 714.5 1038.5 c 128,-1,9
 755 1172 755 1172 807 1344 c 1,10,11
 788 1344 788 1344 768 1344 c 128,-1,12
 748 1344 748 1344 723 1344 c 128,-1,13
 698 1344 698 1344 665.5 1343.5 c 128,-1,14
 633 1343 633 1343 588.5 1343 c 128,-1,15
 544 1343 544 1343 485.5 1343 c 128,-1,16
 427 1343 427 1343 350 1343 c 1,17,18
 303 1339 303 1339 275.5 1336.5 c 128,-1,19
 248 1334 248 1334 233 1333 c 128,-1,20
 218 1332 218 1332 212.5 1332 c 128,-1,21
 207 1332 207 1332 204 1332 c 0,22,23
 146 1332 146 1332 111.5 1360 c 128,-1,24
 77 1388 77 1388 77 1451 c 0,25,26
 77 1487 77 1487 90.5 1509 c 128,-1,27
 104 1531 104 1531 127.5 1542.5 c 128,-1,28
 151 1554 151 1554 181.5 1557.5 c 128,-1,29
 212 1561 212 1561 245 1561 c 2,30,-1
 944 1561 l 2,31,32
 962 1561 962 1561 982.5 1554.5 c 128,-1,33
 1003 1548 1003 1548 1021 1533 c 128,-1,34
 1039 1518 1039 1518 1050.5 1494.5 c 128,-1,35
 1062 1471 1062 1471 1062 1437 c 0,36,37
 1062 1419 1062 1419 1059 1398.5 c 128,-1,38
 1056 1378 1056 1378 1048 1356 c 0,39,40
 1030 1306 1030 1306 1011.5 1251.5 c 128,-1,41
 993 1197 993 1197 970.5 1128 c 128,-1,42
 948 1059 948 1059 920 971 c 128,-1,43
 892 883 892 883 856 766 c 128,-1,44
 820 649 820 649 774 498.5 c 128,-1,45
 728 348 728 348 670 154 c 1,46,47
 668 122 668 122 661 89 c 128,-1,48
 654 56 654 56 638.5 29.5 c 128,-1,49
 623 3 623 3 596 -14 c 128,-1,50
 569 -31 569 -31 528 -31 c 0,51,52
 507 -31 507 -31 484.5 -23 c 128,-1,53
 462 -15 462 -15 443.5 0.5 c 128,-1,54
 425 16 425 16 413.5 40.5 c 128,-1,55
 402 65 402 65 402 98 c 0,0,1
EndSplineSet
EndChar

StartChar: eight
Encoding: 56 56 49
Width: 1537
GlyphClass: 2
Flags: W
LayerCount: 2
Fore
SplineSet
158 443 m 0,0,1
 158 515 158 515 182.5 574.5 c 128,-1,2
 207 634 207 634 250.5 682 c 128,-1,3
 294 730 294 730 352.5 766 c 128,-1,4
 411 802 411 802 479 826 c 1,5,6
 430 851 430 851 387 885.5 c 128,-1,7
 344 920 344 920 312.5 963.5 c 128,-1,8
 281 1007 281 1007 263 1058.5 c 128,-1,9
 245 1110 245 1110 245 1170 c 0,10,11
 245 1268 245 1268 283 1344.5 c 128,-1,12
 321 1421 321 1421 389 1473 c 128,-1,13
 457 1525 457 1525 550 1552 c 128,-1,14
 643 1579 643 1579 753 1579 c 256,15,16
 863 1579 863 1579 954.5 1552.5 c 128,-1,17
 1046 1526 1046 1526 1112 1474.5 c 128,-1,18
 1178 1423 1178 1423 1214.5 1346 c 128,-1,19
 1251 1269 1251 1269 1251 1167 c 0,20,21
 1251 1116 1251 1116 1234.5 1066.5 c 128,-1,22
 1218 1017 1218 1017 1189 972.5 c 128,-1,23
 1160 928 1160 928 1119 889 c 128,-1,24
 1078 850 1078 850 1030 820 c 1,25,26
 1110 786 1110 786 1171 749 c 128,-1,27
 1232 712 1232 712 1273.5 667.5 c 128,-1,28
 1315 623 1315 623 1336 568 c 128,-1,29
 1357 513 1357 513 1357 443 c 0,30,31
 1357 330 1357 330 1307.5 242 c 128,-1,32
 1258 154 1258 154 1175 93 c 128,-1,33
 1092 32 1092 32 983.5 0.5 c 128,-1,34
 875 -31 875 -31 757 -31 c 0,35,36
 683 -31 683 -31 610.5 -16.5 c 128,-1,37
 538 -2 538 -2 471 25.5 c 128,-1,38
 404 53 404 53 347 93.5 c 128,-1,39
 290 134 290 134 248 186.5 c 128,-1,40
 206 239 206 239 182 303.5 c 128,-1,41
 158 368 158 368 158 443 c 0,0,1
778 916 m 1,42,43
 830 928 830 928 874.5 952.5 c 128,-1,44
 919 977 919 977 951.5 1010.5 c 128,-1,45
 984 1044 984 1044 1002.5 1084.5 c 128,-1,46
 1021 1125 1021 1125 1021 1168 c 0,47,48
 1021 1225 1021 1225 998 1264.5 c 128,-1,49
 975 1304 975 1304 937.5 1328 c 128,-1,50
 900 1352 900 1352 852 1363 c 128,-1,51
 804 1374 804 1374 754 1374 c 0,52,53
 705 1374 705 1374 655 1364.5 c 128,-1,54
 605 1355 605 1355 565 1332 c 128,-1,55
 525 1309 525 1309 500 1269 c 128,-1,56
 475 1229 475 1229 475 1169 c 0,57,58
 475 1125 475 1125 501.5 1087.5 c 128,-1,59
 528 1050 528 1050 571 1018.5 c 128,-1,60
 614 987 614 987 668.5 961.5 c 128,-1,61
 723 936 723 936 778 916 c 1,42,43
397 455 m 0,62,63
 397 391 397 391 426.5 340 c 128,-1,64
 456 289 456 289 505 253.5 c 128,-1,65
 554 218 554 218 618 199 c 128,-1,66
 682 180 682 180 752 180 c 0,67,68
 825 180 825 180 892.5 196.5 c 128,-1,69
 960 213 960 213 1012 246.5 c 128,-1,70
 1064 280 1064 280 1095 330 c 128,-1,71
 1126 380 1126 380 1126 447 c 0,72,73
 1126 482 1126 482 1107.5 511.5 c 128,-1,74
 1089 541 1089 541 1057.5 565 c 128,-1,75
 1026 589 1026 589 984 609 c 128,-1,76
 942 629 942 629 895.5 646.5 c 128,-1,77
 849 664 849 664 800 678.5 c 128,-1,78
 751 693 751 693 706 707 c 1,79,80
 645 695 645 695 589 675 c 128,-1,81
 533 655 533 655 490.5 624.5 c 128,-1,82
 448 594 448 594 422.5 552.5 c 128,-1,83
 397 511 397 511 397 455 c 0,62,63
EndSplineSet
EndChar

StartChar: nine
Encoding: 57 57 50
Width: 1533
GlyphClass: 2
Flags: W
LayerCount: 2
Fore
SplineSet
290 157 m 0,0,1
 290 185 290 185 299.5 204.5 c 128,-1,2
 309 224 309 224 325 236.5 c 128,-1,3
 341 249 341 249 360 254.5 c 128,-1,4
 379 260 379 260 399 260 c 0,5,6
 443 260 443 260 468.5 248.5 c 128,-1,7
 494 237 494 237 515 224 c 0,8,9
 527 216 527 216 541 208.5 c 128,-1,10
 555 201 555 201 574.5 195 c 128,-1,11
 594 189 594 189 622 185.5 c 128,-1,12
 650 182 650 182 689 182 c 0,13,14
 779 182 779 182 853 211.5 c 128,-1,15
 927 241 927 241 982.5 294 c 128,-1,16
 1038 347 1038 347 1074 421 c 128,-1,17
 1110 495 1110 495 1125 584 c 1,18,19
 1080 546 1080 546 1026.5 518.5 c 128,-1,20
 973 491 973 491 918.5 473 c 128,-1,21
 864 455 864 455 811 446.5 c 128,-1,22
 758 438 758 438 714 438 c 0,23,24
 582 438 582 438 473.5 475 c 128,-1,25
 365 512 365 512 288 585.5 c 128,-1,26
 211 659 211 659 168.5 768 c 128,-1,27
 126 877 126 877 126 1021 c 0,28,29
 126 1128 126 1128 163 1230 c 128,-1,30
 200 1332 200 1332 275 1412 c 128,-1,31
 350 1492 350 1492 463.5 1541 c 128,-1,32
 577 1590 577 1590 731 1590 c 0,33,34
 849 1590 849 1590 943 1563 c 128,-1,35
 1037 1536 1037 1536 1109 1487.5 c 128,-1,36
 1181 1439 1181 1439 1232.5 1372 c 128,-1,37
 1284 1305 1284 1305 1316.5 1225.5 c 128,-1,38
 1349 1146 1349 1146 1364 1056.5 c 128,-1,39
 1379 967 1379 967 1379 874 c 0,40,41
 1379 768 1379 768 1362.5 659.5 c 128,-1,42
 1346 551 1346 551 1311 450.5 c 128,-1,43
 1276 350 1276 350 1220.5 262.5 c 128,-1,44
 1165 175 1165 175 1088 110 c 128,-1,45
 1011 45 1011 45 910 7.5 c 128,-1,46
 809 -30 809 -30 682 -30 c 0,47,48
 655 -30 655 -30 615 -26 c 128,-1,49
 575 -22 575 -22 531.5 -13 c 128,-1,50
 488 -4 488 -4 445 10.5 c 128,-1,51
 402 25 402 25 367.5 45.5 c 128,-1,52
 333 66 333 66 311.5 93.5 c 128,-1,53
 290 121 290 121 290 157 c 0,0,1
714 644 m 0,54,55
 771 644 771 644 835 661.5 c 128,-1,56
 899 679 899 679 958 713.5 c 128,-1,57
 1017 748 1017 748 1065.5 799 c 128,-1,58
 1114 850 1114 850 1140 917 c 1,59,-1
 1140 990 l 2,60,61
 1140 1070 1140 1070 1113.5 1141 c 128,-1,62
 1087 1212 1087 1212 1036 1265.5 c 128,-1,63
 985 1319 985 1319 910.5 1350 c 128,-1,64
 836 1381 836 1381 740 1381 c 0,65,66
 671 1381 671 1381 601.5 1362 c 128,-1,67
 532 1343 532 1343 476 1302.5 c 128,-1,68
 420 1262 420 1262 385 1197.5 c 128,-1,69
 350 1133 350 1133 350 1043 c 0,70,71
 350 962 350 962 365 901 c 128,-1,72
 380 840 380 840 406 795.5 c 128,-1,73
 432 751 432 751 467.5 722 c 128,-1,74
 503 693 503 693 543.5 675.5 c 128,-1,75
 584 658 584 658 627.5 651 c 128,-1,76
 671 644 671 644 714 644 c 0,54,55
EndSplineSet
EndChar

StartChar: less
Encoding: 60 60 53
Width: 1196
GlyphClass: 2
Flags: W
LayerCount: 2
Fore
SplineSet
195 507 m 0,0,1
 181 513 181 513 171 526.5 c 128,-1,2
 161 540 161 540 155 557.5 c 128,-1,3
 149 575 149 575 146 593.5 c 128,-1,4
 143 612 143 612 143 628 c 0,5,6
 143 654 143 654 148.5 671.5 c 128,-1,7
 154 689 154 689 165 701 c 128,-1,8
 176 713 176 713 193.5 721 c 128,-1,9
 211 729 211 729 234 735 c 1,10,11
 362 788 362 788 488 849.5 c 128,-1,12
 614 911 614 911 755 973 c 1,13,14
 762 979 762 979 773.5 986 c 128,-1,15
 785 993 785 993 798 999 c 128,-1,16
 811 1005 811 1005 825 1009.5 c 128,-1,17
 839 1014 839 1014 852 1014 c 0,18,19
 871 1014 871 1014 889 1002.5 c 128,-1,20
 907 991 907 991 921.5 972.5 c 128,-1,21
 936 954 936 954 945 931.5 c 128,-1,22
 954 909 954 909 954 888 c 0,23,24
 954 862 954 862 947.5 845.5 c 128,-1,25
 941 829 941 829 929.5 818 c 128,-1,26
 918 807 918 807 903 799.5 c 128,-1,27
 888 792 888 792 872 785 c 1,28,-1
 872 786 l 1,29,-1
 480 603 l 1,30,-1
 854 425 l 1,31,32
 865 423 865 423 882.5 417 c 128,-1,33
 900 411 900 411 916.5 398.5 c 128,-1,34
 933 386 933 386 945 366 c 128,-1,35
 957 346 957 346 957 317 c 0,36,37
 957 297 957 297 950.5 275.5 c 128,-1,38
 944 254 944 254 931 236.5 c 128,-1,39
 918 219 918 219 898.5 207.5 c 128,-1,40
 879 196 879 196 853 196 c 0,41,42
 823 196 823 196 800.5 206 c 128,-1,43
 778 216 778 216 760 227 c 1,44,45
 738 239 738 239 695 261 c 128,-1,46
 652 283 652 283 598.5 310 c 128,-1,47
 545 337 545 337 486 367 c 128,-1,48
 427 397 427 397 371.5 424 c 128,-1,49
 316 451 316 451 269.5 473 c 128,-1,50
 223 495 223 495 195 507 c 0,0,1
EndSplineSet
EndChar

StartChar: equal
Encoding: 61 61 54
Width: 1196
GlyphClass: 2
Flags: W
LayerCount: 2
Fore
SplineSet
206 838 m 2,0,1
 188 838 188 838 170.5 843 c 128,-1,2
 153 848 153 848 138.5 862 c 128,-1,3
 124 876 124 876 115 901 c 128,-1,4
 106 926 106 926 106 966 c 0,5,6
 106 997 106 997 116.5 1014.5 c 128,-1,7
 127 1032 127 1032 146 1041 c 128,-1,8
 165 1050 165 1050 191.5 1052.5 c 128,-1,9
 218 1055 218 1055 250 1055 c 2,10,-1
 877 1054 l 2,11,12
 884 1054 884 1054 892 1056 c 128,-1,13
 900 1058 900 1058 908 1060 c 0,14,15
 917 1062 917 1062 927 1064 c 128,-1,16
 937 1066 937 1066 948 1066 c 0,17,18
 962 1066 962 1066 980 1061 c 128,-1,19
 998 1056 998 1056 1014.5 1042.5 c 128,-1,20
 1031 1029 1031 1029 1042.5 1006.5 c 128,-1,21
 1054 984 1054 984 1054 950 c 0,22,23
 1054 896 1054 896 1027 863.5 c 128,-1,24
 1000 831 1000 831 955 831 c 0,25,26
 929 831 929 831 899 831.5 c 128,-1,27
 869 832 869 832 828 832 c 2,28,-1
 206 838 l 2,0,1
206 334 m 2,29,30
 188 334 188 334 170.5 339 c 128,-1,31
 153 344 153 344 138.5 358 c 128,-1,32
 124 372 124 372 115 397 c 128,-1,33
 106 422 106 422 106 462 c 0,34,35
 106 493 106 493 116.5 510.5 c 128,-1,36
 127 528 127 528 146 537 c 128,-1,37
 165 546 165 546 191.5 548.5 c 128,-1,38
 218 551 218 551 250 551 c 2,39,-1
 877 550 l 2,40,41
 884 550 884 550 892 552 c 128,-1,42
 900 554 900 554 908 556 c 0,43,44
 917 558 917 558 927 560 c 128,-1,45
 937 562 937 562 948 562 c 0,46,47
 962 562 962 562 980 557 c 128,-1,48
 998 552 998 552 1014.5 538.5 c 128,-1,49
 1031 525 1031 525 1042.5 502.5 c 128,-1,50
 1054 480 1054 480 1054 446 c 0,51,52
 1054 392 1054 392 1027 359.5 c 128,-1,53
 1000 327 1000 327 955 327 c 0,54,55
 929 327 929 327 899 327.5 c 128,-1,56
 869 328 869 328 828 328 c 2,57,-1
 206 334 l 2,29,30
EndSplineSet
EndChar

StartChar: question
Encoding: 63 63 56
Width: 1368
GlyphClass: 2
Flags: W
LayerCount: 2
Fore
SplineSet
614 424 m 0,0,1
 580 424 580 424 557.5 436 c 128,-1,2
 535 448 535 448 521.5 471 c 128,-1,3
 508 494 508 494 502 527 c 128,-1,4
 496 560 496 560 496 603 c 0,5,6
 496 665 496 665 514 728 c 128,-1,7
 532 791 532 791 574 845 c 0,8,9
 601 880 601 880 639.5 917.5 c 128,-1,10
 678 955 678 955 719 990 c 1,11,12
 758 1025 758 1025 798.5 1063.5 c 128,-1,13
 839 1102 839 1102 872 1145.5 c 128,-1,14
 905 1189 905 1189 925.5 1237 c 128,-1,15
 946 1285 946 1285 946 1339 c 0,16,17
 946 1403 946 1403 920.5 1449 c 128,-1,18
 895 1495 895 1495 853.5 1524 c 128,-1,19
 812 1553 812 1553 758.5 1567 c 128,-1,20
 705 1581 705 1581 650 1581 c 0,21,22
 599 1581 599 1581 547.5 1571.5 c 128,-1,23
 496 1562 496 1562 454 1541.5 c 128,-1,24
 412 1521 412 1521 386 1490 c 128,-1,25
 360 1459 360 1459 360 1416 c 0,26,27
 360 1392 360 1392 368.5 1373.5 c 128,-1,28
 377 1355 377 1355 391 1332 c 1,29,30
 402 1312 402 1312 412.5 1291.5 c 128,-1,31
 423 1271 423 1271 423 1245 c 0,32,33
 423 1197 423 1197 391 1170 c 128,-1,34
 359 1143 359 1143 314 1143 c 0,35,36
 275 1143 275 1143 241.5 1171 c 128,-1,37
 208 1199 208 1199 184 1240 c 128,-1,38
 160 1281 160 1281 146.5 1327.5 c 128,-1,39
 133 1374 133 1374 133 1412 c 0,40,41
 133 1505 133 1505 176.5 1577 c 128,-1,42
 220 1649 220 1649 291.5 1698 c 128,-1,43
 363 1747 363 1747 456 1772 c 128,-1,44
 549 1797 549 1797 648 1797 c 0,45,46
 752 1797 752 1797 847 1768 c 128,-1,47
 942 1739 942 1739 1014.5 1681.5 c 128,-1,48
 1087 1624 1087 1624 1130 1538.5 c 128,-1,49
 1173 1453 1173 1453 1173 1341 c 0,50,51
 1173 1278 1173 1278 1156.5 1218.5 c 128,-1,52
 1140 1159 1140 1159 1111.5 1104 c 128,-1,53
 1083 1049 1083 1049 1044 1000 c 128,-1,54
 1005 951 1005 951 960 909 c 1,55,56
 927 880 927 880 885.5 849 c 128,-1,57
 844 818 844 818 807.5 781.5 c 128,-1,58
 771 745 771 745 746 701.5 c 128,-1,59
 721 658 721 658 721 605 c 0,60,61
 721 590 721 590 722.5 574.5 c 128,-1,62
 724 559 724 559 724 539 c 0,63,64
 724 511 724 511 715 489.5 c 128,-1,65
 706 468 706 468 690.5 453.5 c 128,-1,66
 675 439 675 439 655 431.5 c 128,-1,67
 635 424 635 424 614 424 c 0,0,1
468 86 m 0,68,69
 469 148 469 148 475.5 189.5 c 128,-1,70
 482 231 482 231 497.5 256 c 128,-1,71
 513 281 513 281 539.5 291.5 c 128,-1,72
 566 302 566 302 607 302 c 0,73,74
 642 302 642 302 663 289.5 c 128,-1,75
 684 277 684 277 695 259.5 c 128,-1,76
 706 242 706 242 709.5 222.5 c 128,-1,77
 713 203 713 203 713 189 c 0,78,79
 713 83 713 83 675 25.5 c 128,-1,80
 637 -32 637 -32 580 -32 c 0,81,82
 553 -32 553 -32 531.5 -20 c 128,-1,83
 510 -8 510 -8 496 9.5 c 128,-1,84
 482 27 482 27 475 47.5 c 128,-1,85
 468 68 468 68 468 86 c 0,68,69
EndSplineSet
EndChar

StartChar: at
Encoding: 64 64 57
Width: 2222
GlyphClass: 2
Flags: W
LayerCount: 2
Fore
SplineSet
129 449 m 0,0,1
 129 591 129 591 167.5 725.5 c 128,-1,2
 206 860 206 860 276.5 979 c 128,-1,3
 347 1098 347 1098 444.5 1197.5 c 128,-1,4
 542 1297 542 1297 660.5 1368.5 c 128,-1,5
 779 1440 779 1440 914.5 1479.5 c 128,-1,6
 1050 1519 1050 1519 1195 1519 c 0,7,8
 1405 1519 1405 1519 1566 1457.5 c 128,-1,9
 1727 1396 1727 1396 1836.5 1288.5 c 128,-1,10
 1946 1181 1946 1181 2002 1036 c 128,-1,11
 2058 891 2058 891 2058 723 c 0,12,13
 2058 647 2058 647 2050.5 563 c 128,-1,14
 2043 479 2043 479 2023.5 398 c 128,-1,15
 2004 317 2004 317 1971 243.5 c 128,-1,16
 1938 170 1938 170 1886 114.5 c 128,-1,17
 1834 59 1834 59 1762 26 c 128,-1,18
 1690 -7 1690 -7 1593 -7 c 0,19,20
 1565 -7 1565 -7 1527.5 5.5 c 128,-1,21
 1490 18 1490 18 1453.5 45 c 128,-1,22
 1417 72 1417 72 1385.5 114.5 c 128,-1,23
 1354 157 1354 157 1338 217 c 1,24,25
 1312 174 1312 174 1279 136 c 128,-1,26
 1246 98 1246 98 1202.5 69.5 c 128,-1,27
 1159 41 1159 41 1102.5 24.5 c 128,-1,28
 1046 8 1046 8 972 8 c 0,29,30
 891 8 891 8 824.5 36.5 c 128,-1,31
 758 65 758 65 710.5 119.5 c 128,-1,32
 663 174 663 174 637.5 252.5 c 128,-1,33
 612 331 612 331 612 430 c 0,34,35
 612 494 612 494 627.5 565.5 c 128,-1,36
 643 637 643 637 675 706.5 c 128,-1,37
 707 776 707 776 755.5 839 c 128,-1,38
 804 902 804 902 870 950 c 128,-1,39
 936 998 936 998 1020.5 1026.5 c 128,-1,40
 1105 1055 1105 1055 1208 1055 c 0,41,42
 1290 1055 1290 1055 1349.5 1042.5 c 128,-1,43
 1409 1030 1409 1030 1449.5 1005.5 c 128,-1,44
 1490 981 1490 981 1513.5 945 c 128,-1,45
 1537 909 1537 909 1546 861 c 0,46,47
 1553 825 1553 825 1554.5 794 c 128,-1,48
 1556 763 1556 763 1554 735.5 c 128,-1,49
 1552 708 1552 708 1548 682.5 c 128,-1,50
 1544 657 1544 657 1540 630 c 0,51,52
 1529 561 1529 561 1522 497 c 128,-1,53
 1515 433 1515 433 1515 378 c 0,54,55
 1515 282 1515 282 1537 239 c 128,-1,56
 1559 196 1559 196 1612 196 c 0,57,58
 1656 196 1656 196 1690 215.5 c 128,-1,59
 1724 235 1724 235 1750 268.5 c 128,-1,60
 1776 302 1776 302 1794.5 346 c 128,-1,61
 1813 390 1813 390 1824.5 439 c 128,-1,62
 1836 488 1836 488 1841 539 c 128,-1,63
 1846 590 1846 590 1846 637 c 0,64,65
 1846 826 1846 826 1797 957 c 128,-1,66
 1748 1088 1748 1088 1661.5 1170 c 128,-1,67
 1575 1252 1575 1252 1457 1288.5 c 128,-1,68
 1339 1325 1339 1325 1201 1325 c 0,69,70
 1064 1325 1064 1325 948 1290.5 c 128,-1,71
 832 1256 832 1256 737 1195 c 128,-1,72
 642 1134 642 1134 569.5 1051 c 128,-1,73
 497 968 497 968 447.5 871.5 c 128,-1,74
 398 775 398 775 373 669.5 c 128,-1,75
 348 564 348 564 348 457 c 0,76,77
 348 291 348 291 394 161 c 128,-1,78
 440 31 440 31 524.5 -58 c 128,-1,79
 609 -147 609 -147 730 -194 c 128,-1,80
 851 -241 851 -241 1001 -241 c 0,81,82
 1053 -241 1053 -241 1090.5 -236.5 c 128,-1,83
 1128 -232 1128 -232 1155 -225 c 128,-1,84
 1182 -218 1182 -218 1200.5 -209.5 c 128,-1,85
 1219 -201 1219 -201 1234 -192 c 1,86,87
 1259 -179 1259 -179 1287 -168 c 128,-1,88
 1315 -157 1315 -157 1359 -157 c 0,89,90
 1382 -157 1382 -157 1401 -167 c 128,-1,91
 1420 -177 1420 -177 1433.5 -192.5 c 128,-1,92
 1447 -208 1447 -208 1454 -226 c 128,-1,93
 1461 -244 1461 -244 1461 -260 c 0,94,95
 1461 -265 1461 -265 1460 -272.5 c 128,-1,96
 1459 -280 1459 -280 1455 -288 c 0,97,98
 1438 -321 1438 -321 1403.5 -345 c 128,-1,99
 1369 -369 1369 -369 1324.5 -385 c 128,-1,100
 1280 -401 1280 -401 1229.5 -411 c 128,-1,101
 1179 -421 1179 -421 1130.5 -426 c 128,-1,102
 1082 -431 1082 -431 1039 -432.5 c 128,-1,103
 996 -434 996 -434 967 -434 c 0,104,105
 849 -434 849 -434 741 -405 c 128,-1,106
 633 -376 633 -376 540 -321 c 128,-1,107
 447 -266 447 -266 371 -188 c 128,-1,108
 295 -110 295 -110 241.5 -12 c 128,-1,109
 188 86 188 86 158.5 202 c 128,-1,110
 129 318 129 318 129 449 c 0,0,1
831 455 m 0,111,112
 831 334 831 334 872.5 263.5 c 128,-1,113
 914 193 914 193 993 193 c 0,114,115
 1026 193 1026 193 1065.5 212.5 c 128,-1,116
 1105 232 1105 232 1144.5 267.5 c 128,-1,117
 1184 303 1184 303 1220.5 353 c 128,-1,118
 1257 403 1257 403 1285.5 464 c 128,-1,119
 1314 525 1314 525 1331 595 c 128,-1,120
 1348 665 1348 665 1348 742 c 0,121,122
 1348 782 1348 782 1337.5 806.5 c 128,-1,123
 1327 831 1327 831 1305.5 845 c 128,-1,124
 1284 859 1284 859 1252 864 c 128,-1,125
 1220 869 1220 869 1177 869 c 0,126,127
 1104 869 1104 869 1040.5 830 c 128,-1,128
 977 791 977 791 930.5 730.5 c 128,-1,129
 884 670 884 670 857.5 597 c 128,-1,130
 831 524 831 524 831 455 c 0,111,112
EndSplineSet
EndChar

StartChar: A
Encoding: 65 65 58
Width: 1538
GlyphClass: 2
Flags: W
LayerCount: 2
Fore
SplineSet
29 78 m 0,0,1
 29 110 29 110 38 143 c 128,-1,2
 47 176 47 176 72 209 c 1,3,4
 90 238 90 238 119.5 298 c 128,-1,5
 149 358 149 358 186 438.5 c 128,-1,6
 223 519 223 519 266 614.5 c 128,-1,7
 309 710 309 710 353.5 810 c 128,-1,8
 398 910 398 910 442 1009 c 128,-1,9
 486 1108 486 1108 525.5 1195.5 c 128,-1,10
 565 1283 565 1283 597.5 1353.5 c 128,-1,11
 630 1424 630 1424 652 1468 c 1,12,13
 655 1490 655 1490 664 1512 c 128,-1,14
 673 1534 673 1534 688 1551 c 128,-1,15
 703 1568 703 1568 724.5 1579 c 128,-1,16
 746 1590 746 1590 774 1590 c 0,17,18
 810 1590 810 1590 833 1580 c 128,-1,19
 856 1570 856 1570 870.5 1552.5 c 128,-1,20
 885 1535 885 1535 894 1511.5 c 128,-1,21
 903 1488 903 1488 912 1462 c 0,22,23
 920 1439 920 1439 927 1418 c 128,-1,24
 934 1397 934 1397 940 1386 c 0,25,26
 1008 1251 1008 1251 1072 1113 c 128,-1,27
 1136 975 1136 975 1199.5 833.5 c 128,-1,28
 1263 692 1263 692 1327.5 546.5 c 128,-1,29
 1392 401 1392 401 1462 251 c 1,30,-1
 1481 222 l 2,31,32
 1489 211 1489 211 1500 195.5 c 128,-1,33
 1511 180 1511 180 1520.5 161.5 c 128,-1,34
 1530 143 1530 143 1536.5 123 c 128,-1,35
 1543 103 1543 103 1543 83 c 0,36,37
 1543 53 1543 53 1534 31.5 c 128,-1,38
 1525 10 1525 10 1509 -3.5 c 128,-1,39
 1493 -17 1493 -17 1471.5 -23 c 128,-1,40
 1450 -29 1450 -29 1425 -29 c 0,41,42
 1398 -29 1398 -29 1375.5 -20.5 c 128,-1,43
 1353 -12 1353 -12 1336 2.5 c 128,-1,44
 1319 17 1319 17 1308.5 36.5 c 128,-1,45
 1298 56 1298 56 1295 79 c 1,46,47
 1267 140 1267 140 1242.5 194.5 c 128,-1,48
 1218 249 1218 249 1195.5 299.5 c 128,-1,49
 1173 350 1173 350 1152 398 c 128,-1,50
 1131 446 1131 446 1109 494 c 1,51,52
 1093 494 1093 494 1064 494.5 c 128,-1,53
 1035 495 1035 495 998 497 c 1,54,55
 882 497 882 497 761 499.5 c 128,-1,56
 640 502 640 502 496 496 c 0,57,58
 485 495 485 495 474.5 494.5 c 128,-1,59
 464 494 464 494 454 494 c 1,60,61
 426 426 426 426 400.5 363.5 c 128,-1,62
 375 301 375 301 354.5 248.5 c 128,-1,63
 334 196 334 196 318.5 155 c 128,-1,64
 303 114 303 114 295 89 c 1,65,-1
 295 90 l 1,66,67
 289 68 289 68 281.5 46.5 c 128,-1,68
 274 25 274 25 260 8.5 c 128,-1,69
 246 -8 246 -8 221 -18.5 c 128,-1,70
 196 -29 196 -29 156 -29 c 0,71,72
 102 -29 102 -29 65.5 -2 c 128,-1,73
 29 25 29 25 29 78 c 0,0,1
546 714 m 1,74,75
 567 714 567 714 601 714 c 128,-1,76
 635 714 635 714 689 713.5 c 128,-1,77
 743 713 743 713 822 712.5 c 128,-1,78
 901 712 901 712 1012 711 c 1,79,80
 966 812 966 812 907.5 938.5 c 128,-1,81
 849 1065 849 1065 769 1234 c 1,82,83
 746 1182 746 1182 719.5 1120.5 c 128,-1,84
 693 1059 693 1059 664.5 992.5 c 128,-1,85
 636 926 636 926 606 855.5 c 128,-1,86
 576 785 576 785 546 714 c 1,74,75
EndSplineSet
EndChar

StartChar: B
Encoding: 66 66 59
Width: 1534
GlyphClass: 2
Flags: W
LayerCount: 2
Fore
SplineSet
228 76 m 0,0,1
 224 103 224 103 229.5 134 c 128,-1,2
 235 165 235 165 240 189 c 1,3,4
 241 259 241 259 242 331 c 128,-1,5
 243 403 243 403 243 480.5 c 128,-1,6
 243 558 243 558 242.5 643.5 c 128,-1,7
 242 729 242 729 241 827.5 c 128,-1,8
 240 926 240 926 239.5 1039.5 c 128,-1,9
 239 1153 239 1153 239 1286 c 1,10,-1
 227 1422 l 1,11,12
 227 1465 227 1465 231 1492.5 c 128,-1,13
 235 1520 235 1520 247.5 1535.5 c 128,-1,14
 260 1551 260 1551 282.5 1557.5 c 128,-1,15
 305 1564 305 1564 342 1564 c 0,16,17
 393 1564 393 1564 442 1565.5 c 128,-1,18
 491 1567 491 1567 542 1569 c 256,19,20
 593 1571 593 1571 643.5 1574.5 c 128,-1,21
 694 1578 694 1578 747 1578 c 0,22,23
 783 1578 783 1578 835.5 1576 c 128,-1,24
 888 1574 888 1574 946.5 1561.5 c 128,-1,25
 1005 1549 1005 1549 1062.5 1522.5 c 128,-1,26
 1120 1496 1120 1496 1166.5 1447.5 c 128,-1,27
 1213 1399 1213 1399 1241.5 1324.5 c 128,-1,28
 1270 1250 1270 1250 1270 1142 c 0,29,30
 1270 1049 1270 1049 1232 971 c 128,-1,31
 1194 893 1194 893 1134 836 c 1,32,33
 1159 826 1159 826 1182.5 812.5 c 128,-1,34
 1206 799 1206 799 1224.5 785.5 c 128,-1,35
 1243 772 1243 772 1257 760 c 128,-1,36
 1271 748 1271 748 1278 739 c 0,37,38
 1321 686 1321 686 1349 619 c 128,-1,39
 1377 552 1377 552 1377 486 c 0,40,41
 1377 373 1377 373 1353.5 291.5 c 128,-1,42
 1330 210 1330 210 1286.5 154 c 128,-1,43
 1243 98 1243 98 1181 63.5 c 128,-1,44
 1119 29 1119 29 1042.5 10.5 c 128,-1,45
 966 -8 966 -8 877 -14 c 128,-1,46
 788 -20 788 -20 690 -20 c 0,47,48
 672 -20 672 -20 641 -18 c 128,-1,49
 610 -16 610 -16 572.5 -12.5 c 128,-1,50
 535 -9 535 -9 495.5 -4 c 128,-1,51
 456 1 456 1 423 7 c 1,52,53
 398 -4 398 -4 354 -4 c 0,54,55
 300 -4 300 -4 267 14.5 c 128,-1,56
 234 33 234 33 228 76 c 0,0,1
465 901 m 1,57,58
 503 896 503 896 541 892.5 c 128,-1,59
 579 889 579 889 610 889 c 0,60,61
 730 889 730 889 813 898.5 c 128,-1,62
 896 908 896 908 947 934 c 128,-1,63
 998 960 998 960 1021 1007.5 c 128,-1,64
 1044 1055 1044 1055 1044 1132 c 0,65,66
 1044 1196 1044 1196 1026.5 1240.5 c 128,-1,67
 1009 1285 1009 1285 972.5 1313 c 128,-1,68
 936 1341 936 1341 879 1353.5 c 128,-1,69
 822 1366 822 1366 743 1366 c 0,70,71
 714 1366 714 1366 647.5 1365 c 128,-1,72
 581 1364 581 1364 465 1360 c 1,73,-1
 465 1358 l 2,74,75
 465 1356 465 1356 465.5 1354.5 c 128,-1,76
 466 1353 466 1353 466 1351 c 0,77,78
 468 1246 468 1246 467.5 1139 c 128,-1,79
 467 1032 467 1032 465 914 c 1,80,-1
 465 901 l 1,57,58
465 211 m 1,81,82
 489 207 489 207 516.5 204.5 c 128,-1,83
 544 202 544 202 578.5 201 c 128,-1,84
 613 200 613 200 657.5 199.5 c 128,-1,85
 702 199 702 199 762 199 c 0,86,87
 831 199 831 199 900.5 205.5 c 128,-1,88
 970 212 970 212 1026.5 237.5 c 128,-1,89
 1083 263 1083 263 1118 313.5 c 128,-1,90
 1153 364 1153 364 1153 451 c 0,91,92
 1153 515 1153 515 1125.5 562 c 128,-1,93
 1098 609 1098 609 1057 640 c 128,-1,94
 1016 671 1016 671 969 686 c 128,-1,95
 922 701 922 701 882 701 c 0,96,97
 847 701 847 701 810 700 c 128,-1,98
 773 699 773 699 725.5 697.5 c 128,-1,99
 678 696 678 696 614.5 694.5 c 128,-1,100
 551 693 551 693 464 692 c 1,101,102
 464 571 464 571 464 492.5 c 128,-1,103
 464 414 464 414 464.5 361.5 c 128,-1,104
 465 309 465 309 465 275.5 c 128,-1,105
 465 242 465 242 465 211 c 1,81,82
EndSplineSet
EndChar

StartChar: C
Encoding: 67 67 60
Width: 1538
GlyphClass: 2
Flags: W
LayerCount: 2
Fore
SplineSet
110 764 m 0,0,1
 110 909 110 909 141.5 1026.5 c 128,-1,2
 173 1144 173 1144 228.5 1236 c 128,-1,3
 284 1328 284 1328 359.5 1394.5 c 128,-1,4
 435 1461 435 1461 521.5 1504.5 c 128,-1,5
 608 1548 608 1548 702.5 1569 c 128,-1,6
 797 1590 797 1590 891 1590 c 0,7,8
 977 1590 977 1590 1059.5 1574.5 c 128,-1,9
 1142 1559 1142 1559 1223 1530 c 0,10,11
 1248 1521 1248 1521 1272.5 1512.5 c 128,-1,12
 1297 1504 1297 1504 1316.5 1491 c 128,-1,13
 1336 1478 1336 1478 1348.5 1457.5 c 128,-1,14
 1361 1437 1361 1437 1361 1406 c 0,15,16
 1361 1370 1361 1370 1349 1346 c 128,-1,17
 1337 1322 1337 1322 1319 1308 c 128,-1,18
 1301 1294 1301 1294 1279 1288 c 128,-1,19
 1257 1282 1257 1282 1237 1282 c 0,20,21
 1223 1282 1223 1282 1207 1286.5 c 128,-1,22
 1191 1291 1191 1291 1174 1298 c 128,-1,23
 1157 1305 1157 1305 1140.5 1314.5 c 128,-1,24
 1124 1324 1124 1324 1111 1333 c 1,25,26
 1075 1348 1075 1348 1043 1356 c 128,-1,27
 1011 1364 1011 1364 981.5 1367.5 c 128,-1,28
 952 1371 952 1371 924 1371.5 c 128,-1,29
 896 1372 896 1372 868 1372 c 0,30,31
 773 1372 773 1372 678 1338.5 c 128,-1,32
 583 1305 583 1305 507 1234.5 c 128,-1,33
 431 1164 431 1164 383.5 1055 c 128,-1,34
 336 946 336 946 336 795 c 0,35,36
 336 627 336 627 384 511.5 c 128,-1,37
 432 396 432 396 509.5 324 c 128,-1,38
 587 252 587 252 684 220.5 c 128,-1,39
 781 189 781 189 880 189 c 0,40,41
 925 189 925 189 969 194.5 c 128,-1,42
 1013 200 1013 200 1051 208.5 c 128,-1,43
 1089 217 1089 217 1118 227.5 c 128,-1,44
 1147 238 1147 238 1163 249 c 1,45,46
 1193 275 1193 275 1216 289 c 128,-1,47
 1239 303 1239 303 1270 303 c 0,48,49
 1293 303 1293 303 1313.5 298 c 128,-1,50
 1334 293 1334 293 1349.5 280.5 c 128,-1,51
 1365 268 1365 268 1374 247.5 c 128,-1,52
 1383 227 1383 227 1383 197 c 0,53,54
 1383 155 1383 155 1354 120 c 128,-1,55
 1325 85 1325 85 1262 55 c 1,56,-1
 1262 56 l 1,57,58
 1240 43 1240 43 1199.5 28 c 128,-1,59
 1159 13 1159 13 1108 0.5 c 128,-1,60
 1057 -12 1057 -12 1000 -20.5 c 128,-1,61
 943 -29 943 -29 889 -29 c 0,62,63
 765 -29 765 -29 659.5 0.5 c 128,-1,64
 554 30 554 30 467 83 c 128,-1,65
 380 136 380 136 313.5 210 c 128,-1,66
 247 284 247 284 202 372 c 128,-1,67
 157 460 157 460 133.5 559.5 c 128,-1,68
 110 659 110 659 110 764 c 0,0,1
EndSplineSet
EndChar

StartChar: D
Encoding: 68 68 61
Width: 1706
GlyphClass: 2
Flags: W
LayerCount: 2
Fore
SplineSet
243 118 m 0,0,1
 243 164 243 164 247 208.5 c 128,-1,2
 251 253 251 253 251 313 c 0,3,4
 251 582 251 582 249.5 851.5 c 128,-1,5
 248 1121 248 1121 240 1397 c 1,6,7
 229 1418 229 1418 220.5 1443.5 c 128,-1,8
 212 1469 212 1469 212 1487 c 0,9,10
 212 1508 212 1508 217.5 1527 c 128,-1,11
 223 1546 223 1546 235.5 1560 c 128,-1,12
 248 1574 248 1574 268 1582 c 128,-1,13
 288 1590 288 1590 317 1590 c 256,14,15
 346 1590 346 1590 374.5 1582.5 c 128,-1,16
 403 1575 403 1575 435 1575 c 0,17,18
 506 1575 506 1575 576 1582.5 c 128,-1,19
 646 1590 646 1590 718 1590 c 0,20,21
 867 1590 867 1590 984.5 1561.5 c 128,-1,22
 1102 1533 1102 1533 1191 1481.5 c 128,-1,23
 1280 1430 1280 1430 1342 1359.5 c 128,-1,24
 1404 1289 1404 1289 1443.5 1206 c 128,-1,25
 1483 1123 1483 1123 1501 1029.5 c 128,-1,26
 1519 936 1519 936 1519 840 c 0,27,28
 1519 754 1519 754 1501.5 657 c 128,-1,29
 1484 560 1484 560 1443.5 464.5 c 128,-1,30
 1403 369 1403 369 1338 281.5 c 128,-1,31
 1273 194 1273 194 1178.5 127 c 128,-1,32
 1084 60 1084 60 957 20.5 c 128,-1,33
 830 -19 830 -19 667 -19 c 0,34,35
 629 -19 629 -19 591 -15.5 c 128,-1,36
 553 -12 553 -12 514.5 -7.5 c 128,-1,37
 476 -3 476 -3 436.5 0.5 c 128,-1,38
 397 4 397 4 357 4 c 0,39,40
 296 4 296 4 269.5 32 c 128,-1,41
 243 60 243 60 243 118 c 0,0,1
469 222 m 1,42,43
 490 216 490 216 520 212.5 c 128,-1,44
 550 209 550 209 580 207 c 128,-1,45
 610 205 610 205 637 204.5 c 128,-1,46
 664 204 664 204 679 204 c 0,47,48
 804 204 804 204 898 235 c 128,-1,49
 992 266 992 266 1059.5 316.5 c 128,-1,50
 1127 367 1127 367 1171 430.5 c 128,-1,51
 1215 494 1215 494 1241 559 c 128,-1,52
 1267 624 1267 624 1277 683.5 c 128,-1,53
 1287 743 1287 743 1287 786 c 0,54,55
 1287 954 1287 954 1247 1065.5 c 128,-1,56
 1207 1177 1207 1177 1130 1243.5 c 128,-1,57
 1053 1310 1053 1310 940 1337.5 c 128,-1,58
 827 1365 827 1365 681 1365 c 0,59,60
 661 1365 661 1365 633.5 1364 c 128,-1,61
 606 1363 606 1363 575.5 1362 c 128,-1,62
 545 1361 545 1361 515.5 1359 c 128,-1,63
 486 1357 486 1357 463 1356 c 1,64,-1
 469 222 l 1,42,43
EndSplineSet
EndChar

StartChar: E
Encoding: 69 69 62
Width: 1368
GlyphClass: 2
Flags: W
LayerCount: 2
Fore
SplineSet
242 114 m 0,0,1
 242 131 242 131 246.5 150.5 c 128,-1,2
 251 170 251 170 256 186 c 2,3,-1
 265 218 l 1,4,-1
 242 1426 l 2,5,6
 242 1476 242 1476 253.5 1503.5 c 128,-1,7
 265 1531 265 1531 283.5 1543.5 c 128,-1,8
 302 1556 302 1556 325.5 1558.5 c 128,-1,9
 349 1561 349 1561 373 1561 c 2,10,-1
 906 1561 l 1,11,12
 924 1563 924 1563 946.5 1566.5 c 128,-1,13
 969 1570 969 1570 978 1570 c 0,14,15
 1016 1570 1016 1570 1040 1563 c 128,-1,16
 1064 1556 1064 1556 1077.5 1542.5 c 128,-1,17
 1091 1529 1091 1529 1096 1508.5 c 128,-1,18
 1101 1488 1101 1488 1101 1461 c 0,19,20
 1101 1422 1101 1422 1091 1399 c 128,-1,21
 1081 1376 1081 1376 1064.5 1363 c 128,-1,22
 1048 1350 1048 1350 1025.5 1346 c 128,-1,23
 1003 1342 1003 1342 978 1342 c 0,24,25
 967 1342 967 1342 949 1342.5 c 128,-1,26
 931 1343 931 1343 911 1345 c 1,27,28
 813 1345 813 1345 752.5 1345 c 128,-1,29
 692 1345 692 1345 656 1344.5 c 128,-1,30
 620 1344 620 1344 602 1344 c 128,-1,31
 584 1344 584 1344 569 1344 c 2,32,-1
 475 1344 l 1,33,-1
 475 1024 l 1,34,35
 482 1024 482 1024 490.5 1023.5 c 128,-1,36
 499 1023 499 1023 517 1023 c 128,-1,37
 535 1023 535 1023 567 1023 c 128,-1,38
 599 1023 599 1023 652.5 1023 c 128,-1,39
 706 1023 706 1023 784.5 1023 c 128,-1,40
 863 1023 863 1023 975 1023 c 0,41,42
 986 1023 986 1023 1000.5 1024 c 128,-1,43
 1015 1025 1015 1025 1029 1027 c 0,44,45
 1047 1029 1047 1029 1071 1031 c 128,-1,46
 1095 1033 1095 1033 1124 1033 c 0,47,48
 1151 1033 1151 1033 1172.5 1022 c 128,-1,49
 1194 1011 1194 1011 1208.5 994.5 c 128,-1,50
 1223 978 1223 978 1230.5 958.5 c 128,-1,51
 1238 939 1238 939 1238 922 c 0,52,53
 1238 868 1238 868 1202 842.5 c 128,-1,54
 1166 817 1166 817 1110 817 c 2,55,-1
 475 816 l 1,56,-1
 475 211 l 1,57,58
 575 211 575 211 676 208 c 128,-1,59
 777 205 777 205 887 205 c 0,60,61
 918 205 918 205 943.5 208 c 128,-1,62
 969 211 969 211 992 215 c 0,63,64
 1013 218 1013 218 1034.5 220.5 c 128,-1,65
 1056 223 1056 223 1082 223 c 0,66,67
 1112 223 1112 223 1138 218.5 c 128,-1,68
 1164 214 1164 214 1183.5 202 c 128,-1,69
 1203 190 1203 190 1214 170.5 c 128,-1,70
 1225 151 1225 151 1225 121 c 0,71,72
 1225 77 1225 77 1209.5 52.5 c 128,-1,73
 1194 28 1194 28 1168.5 16.5 c 128,-1,74
 1143 5 1143 5 1110 2.5 c 128,-1,75
 1077 0 1077 0 1042 0 c 2,76,-1
 362 0 l 2,77,78
 311 0 311 0 276.5 26 c 128,-1,79
 242 52 242 52 242 114 c 0,0,1
EndSplineSet
EndChar

StartChar: F
Encoding: 70 70 63
Width: 1368
GlyphClass: 2
Flags: W
LayerCount: 2
Fore
SplineSet
261 99 m 1,0,1
 259 140 259 140 262 181.5 c 128,-1,2
 265 223 265 223 266 268 c 1,3,-1
 243 1430 l 1,4,5
 243 1498 243 1498 266.5 1534 c 128,-1,6
 290 1570 290 1570 334 1570 c 0,7,8
 373 1570 373 1570 395.5 1568 c 128,-1,9
 418 1566 418 1566 435 1564 c 0,10,11
 445 1562 445 1562 455 1562 c 128,-1,12
 465 1562 465 1562 476 1562 c 2,13,-1
 1034 1562 l 2,14,15
 1118 1562 1118 1562 1153 1538 c 128,-1,16
 1188 1514 1188 1514 1188 1464 c 0,17,18
 1188 1429 1188 1429 1178.5 1406.5 c 128,-1,19
 1169 1384 1169 1384 1150 1371 c 128,-1,20
 1131 1358 1131 1358 1102 1353 c 128,-1,21
 1073 1348 1073 1348 1035 1348 c 2,22,-1
 478 1349 l 1,23,-1
 484 966 l 1,24,25
 596 966 596 966 684.5 966.5 c 128,-1,26
 773 967 773 967 842 968 c 128,-1,27
 911 969 911 969 963.5 970.5 c 128,-1,28
 1016 972 1016 972 1055 973 c 0,29,30
 1065 973 1065 973 1074 973.5 c 128,-1,31
 1083 974 1083 974 1091 974 c 0,32,33
 1108 975 1108 975 1126 975 c 128,-1,34
 1144 975 1144 975 1155 975 c 0,35,36
 1182 975 1182 975 1203.5 964 c 128,-1,37
 1225 953 1225 953 1239.5 936.5 c 128,-1,38
 1254 920 1254 920 1261.5 900.5 c 128,-1,39
 1269 881 1269 881 1269 864 c 0,40,41
 1269 810 1269 810 1233 784.5 c 128,-1,42
 1197 759 1197 759 1141 759 c 2,43,-1
 484 758 l 1,44,-1
 484 250 l 2,45,46
 484 230 484 230 488 210 c 128,-1,47
 492 190 492 190 496.5 170.5 c 128,-1,48
 501 151 501 151 505 130.5 c 128,-1,49
 509 110 509 110 509 89 c 0,50,51
 509 62 509 62 503 40.5 c 128,-1,52
 497 19 497 19 481 3.5 c 128,-1,53
 465 -12 465 -12 438.5 -20.5 c 128,-1,54
 412 -29 412 -29 372 -29 c 0,55,56
 318 -29 318 -29 289.5 1.5 c 128,-1,57
 261 32 261 32 261 99 c 1,0,1
EndSplineSet
EndChar

StartChar: G
Encoding: 71 71 64
Width: 1707
GlyphClass: 2
Flags: W
LayerCount: 2
Fore
SplineSet
139 764 m 0,0,1
 139 971 139 971 198.5 1125.5 c 128,-1,2
 258 1280 258 1280 363 1383 c 128,-1,3
 468 1486 468 1486 611.5 1537.5 c 128,-1,4
 755 1589 755 1589 923 1589 c 0,5,6
 967 1589 967 1589 1021.5 1587.5 c 128,-1,7
 1076 1586 1076 1586 1133 1580 c 128,-1,8
 1190 1574 1190 1574 1246 1563 c 128,-1,9
 1302 1552 1302 1552 1349 1533 c 0,10,11
 1386 1519 1386 1519 1411 1492.5 c 128,-1,12
 1436 1466 1436 1466 1436 1417 c 0,13,14
 1436 1388 1436 1388 1428 1365 c 128,-1,15
 1420 1342 1420 1342 1407 1325 c 128,-1,16
 1394 1308 1394 1308 1377 1299 c 128,-1,17
 1360 1290 1360 1290 1341 1290 c 0,18,19
 1333 1290 1333 1290 1319.5 1292 c 128,-1,20
 1306 1294 1306 1294 1297 1299 c 0,21,22
 1257 1320 1257 1320 1201 1333.5 c 128,-1,23
 1145 1347 1145 1347 1086 1355 c 128,-1,24
 1027 1363 1027 1363 970.5 1366 c 128,-1,25
 914 1369 914 1369 873 1369 c 0,26,27
 818 1369 818 1369 759 1355 c 128,-1,28
 700 1341 700 1341 644 1312 c 128,-1,29
 588 1283 588 1283 538 1237.5 c 128,-1,30
 488 1192 488 1192 450.5 1129 c 128,-1,31
 413 1066 413 1066 391 985 c 128,-1,32
 369 904 369 904 369 803 c 0,33,34
 369 685 369 685 396.5 594 c 128,-1,35
 424 503 424 503 472.5 435.5 c 128,-1,36
 521 368 521 368 587 322.5 c 128,-1,37
 653 277 653 277 729 248.5 c 128,-1,38
 805 220 805 220 888 208 c 128,-1,39
 971 196 971 196 1054 196 c 0,40,41
 1090 196 1090 196 1136 197.5 c 128,-1,42
 1182 199 1182 199 1227 207 c 1,43,44
 1227 306 1227 306 1226.5 376 c 128,-1,45
 1226 446 1226 446 1225 500.5 c 128,-1,46
 1224 555 1224 555 1222.5 600.5 c 128,-1,47
 1221 646 1221 646 1219 697 c 1,48,49
 1219 733 1219 733 1214 770 c 128,-1,50
 1209 807 1209 807 1209 849 c 0,51,52
 1209 864 1209 864 1215.5 882 c 128,-1,53
 1222 900 1222 900 1237 916 c 128,-1,54
 1252 932 1252 932 1276 942.5 c 128,-1,55
 1300 953 1300 953 1336 953 c 0,56,57
 1396 953 1396 953 1429 925 c 128,-1,58
 1462 897 1462 897 1462 849 c 0,59,60
 1462 829 1462 829 1461 810.5 c 128,-1,61
 1460 792 1460 792 1460 771 c 0,62,63
 1459 739 1459 739 1457.5 692.5 c 128,-1,64
 1456 646 1456 646 1455 575 c 128,-1,65
 1454 504 1454 504 1453 402.5 c 128,-1,66
 1452 301 1452 301 1452 160 c 1,67,68
 1451 102 1451 102 1436.5 69.5 c 128,-1,69
 1422 37 1422 37 1398 21.5 c 128,-1,70
 1374 6 1374 6 1342.5 3 c 128,-1,71
 1311 0 1311 0 1276 0 c 0,72,73
 1247 0 1247 0 1214 -3 c 128,-1,74
 1181 -6 1181 -6 1148 -10 c 128,-1,75
 1115 -14 1115 -14 1083 -17 c 128,-1,76
 1051 -20 1051 -20 1023 -20 c 0,77,78
 880 -20 880 -20 758.5 9 c 128,-1,79
 637 38 637 38 539 90 c 128,-1,80
 441 142 441 142 366 214.5 c 128,-1,81
 291 287 291 287 240.5 374 c 128,-1,82
 190 461 190 461 164.5 560 c 128,-1,83
 139 659 139 659 139 764 c 0,0,1
EndSplineSet
EndChar

StartChar: H
Encoding: 72 72 65
Width: 1707
GlyphClass: 2
Flags: W
LayerCount: 2
Fore
SplineSet
278 75 m 0,0,1
 278 126 278 126 281.5 176.5 c 128,-1,2
 285 227 285 227 285 285 c 0,3,4
 285 302 285 302 285 322.5 c 128,-1,5
 285 343 285 343 284.5 383.5 c 128,-1,6
 284 424 284 424 283 493.5 c 128,-1,7
 282 563 282 563 280.5 677 c 128,-1,8
 279 791 279 791 277 958 c 128,-1,9
 275 1125 275 1125 272 1362 c 0,10,11
 272 1390 272 1390 264.5 1418.5 c 128,-1,12
 257 1447 257 1447 257 1480 c 0,13,14
 257 1506 257 1506 263.5 1526.5 c 128,-1,15
 270 1547 270 1547 287.5 1561 c 128,-1,16
 305 1575 305 1575 334.5 1582.5 c 128,-1,17
 364 1590 364 1590 410 1590 c 0,18,19
 433 1590 433 1590 450 1580.5 c 128,-1,20
 467 1571 467 1571 478.5 1555.5 c 128,-1,21
 490 1540 490 1540 495.5 1520.5 c 128,-1,22
 501 1501 501 1501 501 1482 c 0,23,24
 501 1437 501 1437 498 1390 c 128,-1,25
 495 1343 495 1343 495 1283 c 2,26,-1
 495 1060 l 1,27,28
 600 1057 600 1057 697.5 1054 c 128,-1,29
 795 1051 795 1051 899 1051 c 0,30,31
 971 1051 971 1051 1044 1056.5 c 128,-1,32
 1117 1062 1117 1062 1197 1064 c 1,33,34
 1197 1083 1197 1083 1197.5 1107 c 128,-1,35
 1198 1131 1198 1131 1198 1165 c 128,-1,36
 1198 1199 1198 1199 1198 1246.5 c 128,-1,37
 1198 1294 1198 1294 1198 1362 c 0,38,39
 1198 1391 1198 1391 1192 1420 c 128,-1,40
 1186 1449 1186 1449 1186 1480 c 0,41,42
 1186 1506 1186 1506 1193 1526.5 c 128,-1,43
 1200 1547 1200 1547 1217.5 1561 c 128,-1,44
 1235 1575 1235 1575 1264.5 1582.5 c 128,-1,45
 1294 1590 1294 1590 1340 1590 c 0,46,47
 1364 1590 1364 1590 1381 1578.5 c 128,-1,48
 1398 1567 1398 1567 1408.5 1550.5 c 128,-1,49
 1419 1534 1419 1534 1424 1515.5 c 128,-1,50
 1429 1497 1429 1497 1429 1482 c 0,51,52
 1429 1405 1429 1405 1424.5 1327.5 c 128,-1,53
 1420 1250 1420 1250 1418 1165 c 1,54,55
 1418 1096 1418 1096 1418 1026 c 128,-1,56
 1418 956 1418 956 1418.5 882 c 128,-1,57
 1419 808 1419 808 1419 728.5 c 128,-1,58
 1419 649 1419 649 1419 561 c 0,59,60
 1419 459 1419 459 1421.5 388.5 c 128,-1,61
 1424 318 1424 318 1427.5 270 c 128,-1,62
 1431 222 1431 222 1435 192.5 c 128,-1,63
 1439 163 1439 163 1442 143 c 0,64,65
 1445 126 1445 126 1447 110 c 128,-1,66
 1449 94 1449 94 1449 76 c 0,67,68
 1449 53 1449 53 1443.5 34 c 128,-1,69
 1438 15 1438 15 1424.5 1 c 128,-1,70
 1411 -13 1411 -13 1388 -21 c 128,-1,71
 1365 -29 1365 -29 1329 -29 c 0,72,73
 1289 -29 1289 -29 1262.5 -22.5 c 128,-1,74
 1236 -16 1236 -16 1220 -2.5 c 128,-1,75
 1204 11 1204 11 1197.5 30.5 c 128,-1,76
 1191 50 1191 50 1191 76 c 0,77,78
 1191 128 1191 128 1198.5 179.5 c 128,-1,79
 1206 231 1206 231 1206 286 c 0,80,81
 1206 352 1206 352 1204.5 418.5 c 128,-1,82
 1203 485 1203 485 1201.5 553.5 c 128,-1,83
 1200 622 1200 622 1198 694 c 128,-1,84
 1196 766 1196 766 1196 844 c 1,85,86
 1148 845 1148 845 1090 845 c 128,-1,87
 1032 845 1032 845 969.5 844 c 128,-1,88
 907 843 907 843 842 842 c 128,-1,89
 777 841 777 841 715.5 840 c 128,-1,90
 654 839 654 839 598 837.5 c 128,-1,91
 542 836 542 836 497 835 c 1,92,93
 499 673 499 673 502 562.5 c 128,-1,94
 505 452 505 452 508.5 378.5 c 128,-1,95
 512 305 512 305 515.5 261.5 c 128,-1,96
 519 218 519 218 522 189 c 0,97,98
 525 162 525 162 526.5 136.5 c 128,-1,99
 528 111 528 111 528 75 c 0,100,101
 528 52 528 52 523 33 c 128,-1,102
 518 14 518 14 504.5 0 c 128,-1,103
 491 -14 491 -14 468 -21.5 c 128,-1,104
 445 -29 445 -29 409 -29 c 0,105,106
 368 -29 368 -29 342.5 -22.5 c 128,-1,107
 317 -16 317 -16 303 -3 c 128,-1,108
 289 10 289 10 283.5 29.5 c 128,-1,109
 278 49 278 49 278 75 c 0,0,1
EndSplineSet
EndChar

StartChar: I
Encoding: 73 73 66
Width: 856
GlyphClass: 2
Flags: W
LayerCount: 2
Fore
SplineSet
289 81 m 0,0,1
 289 132 289 132 296.5 182 c 128,-1,2
 304 232 304 232 304 289 c 0,3,4
 304 546 304 546 299.5 806.5 c 128,-1,5
 295 1067 295 1067 295 1342 c 0,6,7
 295 1371 295 1371 289 1399.5 c 128,-1,8
 283 1428 283 1428 283 1462 c 0,9,10
 283 1488 283 1488 290 1511.5 c 128,-1,11
 297 1535 297 1535 314.5 1552.5 c 128,-1,12
 332 1570 332 1570 361.5 1580 c 128,-1,13
 391 1590 391 1590 437 1590 c 256,14,15
 483 1590 483 1590 509 1555.5 c 128,-1,16
 535 1521 535 1521 535 1464 c 0,17,18
 535 1446 535 1446 532 1429.5 c 128,-1,19
 529 1413 529 1413 526 1395 c 1,20,21
 524 1309 524 1309 523 1208.5 c 128,-1,22
 522 1108 522 1108 522 979 c 0,23,24
 522 863 522 863 523 743.5 c 128,-1,25
 524 624 524 624 526 512.5 c 128,-1,26
 528 401 528 401 531.5 304 c 128,-1,27
 535 207 535 207 540 138 c 1,28,-1
 540 139 l 1,29,30
 542 124 542 124 543.5 110.5 c 128,-1,31
 545 97 545 97 545 83 c 0,32,33
 545 58 545 58 539.5 37.5 c 128,-1,34
 534 17 534 17 520.5 2 c 128,-1,35
 507 -13 507 -13 484.5 -21 c 128,-1,36
 462 -29 462 -29 427 -29 c 0,37,38
 387 -29 387 -29 360.5 -22 c 128,-1,39
 334 -15 334 -15 318 -1 c 128,-1,40
 302 13 302 13 295.5 33.5 c 128,-1,41
 289 54 289 54 289 81 c 0,0,1
EndSplineSet
EndChar

StartChar: J
Encoding: 74 74 67
Width: 1538
GlyphClass: 2
Flags: W
LayerCount: 2
Fore
SplineSet
154 452 m 0,0,1
 154 490 154 490 157.5 540.5 c 128,-1,2
 161 591 161 591 175.5 636.5 c 128,-1,3
 190 682 190 682 220.5 713.5 c 128,-1,4
 251 745 251 745 305 745 c 0,5,6
 328 745 328 745 348.5 738.5 c 128,-1,7
 369 732 369 732 384.5 718.5 c 128,-1,8
 400 705 400 705 409 683 c 128,-1,9
 418 661 418 661 418 631 c 0,10,11
 418 607 418 607 412.5 584 c 128,-1,12
 407 561 407 561 401 538 c 128,-1,13
 395 515 395 515 389.5 491 c 128,-1,14
 384 467 384 467 384 442 c 0,15,16
 384 378 384 378 411.5 330 c 128,-1,17
 439 282 439 282 485.5 250.5 c 128,-1,18
 532 219 532 219 592.5 203.5 c 128,-1,19
 653 188 653 188 720 188 c 0,20,21
 792 188 792 188 848.5 210.5 c 128,-1,22
 905 233 905 233 943.5 284.5 c 128,-1,23
 982 336 982 336 1002 419.5 c 128,-1,24
 1022 503 1022 503 1022 625 c 2,25,-1
 1022 1093 l 2,26,27
 1022 1174 1022 1174 1019.5 1225.5 c 128,-1,28
 1017 1277 1017 1277 1013.5 1317 c 128,-1,29
 1010 1357 1010 1357 1007.5 1394 c 128,-1,30
 1005 1431 1005 1431 1005 1482 c 0,31,32
 1005 1540 1005 1540 1041 1565 c 128,-1,33
 1077 1590 1077 1590 1130 1590 c 0,34,35
 1163 1590 1163 1590 1185 1580.5 c 128,-1,36
 1207 1571 1207 1571 1220 1552.5 c 128,-1,37
 1233 1534 1233 1534 1238 1507.5 c 128,-1,38
 1243 1481 1243 1481 1243 1447 c 0,39,40
 1243 1409 1243 1409 1242.5 1379.5 c 128,-1,41
 1242 1350 1242 1350 1241.5 1313.5 c 128,-1,42
 1241 1277 1241 1277 1240.5 1227 c 128,-1,43
 1240 1177 1240 1177 1240 1098 c 1,44,-1
 1249 581 l 1,45,46
 1249 505 1249 505 1238.5 430.5 c 128,-1,47
 1228 356 1228 356 1203.5 288 c 128,-1,48
 1179 220 1179 220 1139.5 162 c 128,-1,49
 1100 104 1100 104 1041.5 61.5 c 128,-1,50
 983 19 983 19 904 -5 c 128,-1,51
 825 -29 825 -29 723 -29 c 0,52,53
 667 -29 667 -29 603 -20 c 128,-1,54
 539 -11 539 -11 476 11 c 128,-1,55
 413 33 413 33 354.5 69 c 128,-1,56
 296 105 296 105 251.5 158 c 128,-1,57
 207 211 207 211 180.5 284 c 128,-1,58
 154 357 154 357 154 452 c 0,0,1
EndSplineSet
EndChar

StartChar: K
Encoding: 75 75 68
Width: 1538
GlyphClass: 2
Flags: W
LayerCount: 2
Fore
SplineSet
265 94 m 0,0,1
 265 438 265 438 263.5 777 c 128,-1,2
 262 1116 262 1116 260 1461 c 0,3,4
 260 1530 260 1530 289.5 1560 c 128,-1,5
 319 1590 319 1590 382 1590 c 0,6,7
 405 1590 405 1590 426.5 1583 c 128,-1,8
 448 1576 448 1576 464 1562.5 c 128,-1,9
 480 1549 480 1549 489.5 1529.5 c 128,-1,10
 499 1510 499 1510 499 1486 c 0,11,12
 499 1343 499 1343 498.5 1215 c 128,-1,13
 498 1087 498 1087 497 957 c 1,14,-1
 1036 1458 l 1,15,16
 1047 1474 1047 1474 1070.5 1496.5 c 128,-1,17
 1094 1519 1094 1519 1121.5 1540 c 128,-1,18
 1149 1561 1149 1561 1177.5 1575.5 c 128,-1,19
 1206 1590 1206 1590 1227 1590 c 0,20,21
 1250 1590 1250 1590 1271 1584 c 128,-1,22
 1292 1578 1292 1578 1308 1564.5 c 128,-1,23
 1324 1551 1324 1551 1333.5 1530.5 c 128,-1,24
 1343 1510 1343 1510 1343 1480 c 0,25,26
 1343 1449 1343 1449 1333 1426 c 128,-1,27
 1323 1403 1323 1403 1307.5 1385.5 c 128,-1,28
 1292 1368 1292 1368 1272 1354 c 128,-1,29
 1252 1340 1252 1340 1231 1328 c 1,30,31
 1087 1200 1087 1200 939.5 1077 c 128,-1,32
 792 954 792 954 640 826 c 1,33,34
 707 808 707 808 765 765 c 128,-1,35
 823 722 823 722 873.5 666 c 128,-1,36
 924 610 924 610 968 546.5 c 128,-1,37
 1012 483 1012 483 1050 423 c 0,38,39
 1080 377 1080 377 1108.5 335 c 128,-1,40
 1137 293 1137 293 1165 261 c 128,-1,41
 1193 229 1193 229 1220 210 c 128,-1,42
 1247 191 1247 191 1273 191 c 0,43,44
 1294 191 1294 191 1320 189.5 c 128,-1,45
 1346 188 1346 188 1369 178.5 c 128,-1,46
 1392 169 1392 169 1408 148.5 c 128,-1,47
 1424 128 1424 128 1424 91 c 0,48,49
 1424 49 1424 49 1407 25 c 128,-1,50
 1390 1 1390 1 1363.5 -11 c 128,-1,51
 1337 -23 1337 -23 1304 -26 c 128,-1,52
 1271 -29 1271 -29 1240 -29 c 0,53,54
 1182 -29 1182 -29 1130.5 1 c 128,-1,55
 1079 31 1079 31 1031.5 79.5 c 128,-1,56
 984 128 984 128 940.5 189.5 c 128,-1,57
 897 251 897 251 855 315 c 0,58,59
 817 373 817 373 777 430.5 c 128,-1,60
 737 488 737 488 692.5 536.5 c 128,-1,61
 648 585 648 585 599.5 620.5 c 128,-1,62
 551 656 551 656 496 671 c 1,63,-1
 496 568 l 2,64,65
 496 454 496 454 496.5 350.5 c 128,-1,66
 497 247 497 247 498 165 c 1,67,68
 501 136 501 136 502 114.5 c 128,-1,69
 503 93 503 93 504 73 c 1,70,71
 504 20 504 20 470.5 -4.5 c 128,-1,72
 437 -29 437 -29 377 -29 c 0,73,74
 364 -29 364 -29 345 -24.5 c 128,-1,75
 326 -20 326 -20 308 -6.5 c 128,-1,76
 290 7 290 7 277.5 31 c 128,-1,77
 265 55 265 55 265 94 c 0,0,1
EndSplineSet
EndChar

StartChar: L
Encoding: 76 76 69
Width: 1198
GlyphClass: 2
Flags: W
LayerCount: 2
Fore
SplineSet
270 112 m 0,0,1
 270 142 270 142 278.5 170.5 c 128,-1,2
 287 199 287 199 287 231 c 2,3,-1
 272 1437 l 1,4,5
 273 1514 273 1514 298.5 1551 c 128,-1,6
 324 1588 324 1588 387 1588 c 0,7,8
 422 1588 422 1588 445 1582 c 128,-1,9
 468 1576 468 1576 482 1561 c 128,-1,10
 496 1546 496 1546 501.5 1521.5 c 128,-1,11
 507 1497 507 1497 507 1461 c 2,12,-1
 507 1309 l 2,13,14
 507 1246 507 1246 506.5 1160 c 128,-1,15
 506 1074 506 1074 506 976 c 128,-1,16
 506 878 506 878 506 773 c 128,-1,17
 506 668 506 668 506 568.5 c 128,-1,18
 506 469 506 469 506 380.5 c 128,-1,19
 506 292 506 292 507 225 c 1,20,21
 625 225 625 225 706.5 225.5 c 128,-1,22
 788 226 788 226 841 228 c 0,23,24
 869 230 869 230 897.5 234.5 c 128,-1,25
 926 239 926 239 958 239 c 0,26,27
 1024 239 1024 239 1059 209 c 128,-1,28
 1094 179 1094 179 1094 120 c 0,29,30
 1094 81 1094 81 1079 57.5 c 128,-1,31
 1064 34 1064 34 1039.5 21 c 128,-1,32
 1015 8 1015 8 984 4 c 128,-1,33
 953 0 953 0 922 0 c 2,34,-1
 385 0 l 2,35,36
 360 0 360 0 339 4.5 c 128,-1,37
 318 9 318 9 302.5 21 c 128,-1,38
 287 33 287 33 278.5 55 c 128,-1,39
 270 77 270 77 270 112 c 0,0,1
EndSplineSet
EndChar

StartChar: M
Encoding: 77 77 70
Width: 2047
GlyphClass: 2
Flags: W
LayerCount: 2
Fore
SplineSet
44 80 m 0,0,1
 44 98 44 98 49 111 c 0,2,3
 56 133 56 133 76.5 197 c 128,-1,4
 97 261 97 261 126.5 356.5 c 128,-1,5
 156 452 156 452 192.5 572.5 c 128,-1,6
 229 693 229 693 269.5 826.5 c 128,-1,7
 310 960 310 960 352 1101 c 128,-1,8
 394 1242 394 1242 434 1378 c 1,9,-1
 434 1377 l 1,10,11
 441 1405 441 1405 449.5 1434 c 128,-1,12
 458 1463 458 1463 467 1487 c 128,-1,13
 476 1511 476 1511 484.5 1529 c 128,-1,14
 493 1547 493 1547 499 1553 c 0,15,16
 515 1570 515 1570 542.5 1580 c 128,-1,17
 570 1590 570 1590 596 1590 c 0,18,19
 632 1590 632 1590 655 1577.5 c 128,-1,20
 678 1565 678 1565 694.5 1540 c 128,-1,21
 711 1515 711 1515 723.5 1479 c 128,-1,22
 736 1443 736 1443 751 1396 c 2,23,-1
 999 591 l 1,24,-1
 1006 558 l 1,25,26
 1065 724 1065 724 1105.5 854.5 c 128,-1,27
 1146 985 1146 985 1175 1087 c 128,-1,28
 1204 1189 1204 1189 1225 1267.5 c 128,-1,29
 1246 1346 1246 1346 1266 1408 c 0,30,31
 1276 1439 1276 1439 1286 1471.5 c 128,-1,32
 1296 1504 1296 1504 1311.5 1530.5 c 128,-1,33
 1327 1557 1327 1557 1352 1573.5 c 128,-1,34
 1377 1590 1377 1590 1418 1590 c 0,35,36
 1454 1590 1454 1590 1480 1579.5 c 128,-1,37
 1506 1569 1506 1569 1521 1531 c 0,38,39
 1528 1514 1528 1514 1535 1496 c 128,-1,40
 1542 1478 1542 1478 1552 1450 c 128,-1,41
 1562 1422 1562 1422 1577 1379.5 c 128,-1,42
 1592 1337 1592 1337 1613.5 1271.5 c 128,-1,43
 1635 1206 1635 1206 1665.5 1113 c 128,-1,44
 1696 1020 1696 1020 1737 890 c 128,-1,45
 1778 760 1778 760 1832 589.5 c 128,-1,46
 1886 419 1886 419 1955 198 c 1,47,48
 1967 166 1967 166 1974.5 142.5 c 128,-1,49
 1982 119 1982 119 1984 99 c 0,50,51
 1986 73 1986 73 1981.5 49.5 c 128,-1,52
 1977 26 1977 26 1965 8.5 c 128,-1,53
 1953 -9 1953 -9 1932 -19 c 128,-1,54
 1911 -29 1911 -29 1879 -29 c 0,55,56
 1839 -29 1839 -29 1812.5 -12.5 c 128,-1,57
 1786 4 1786 4 1769 28.5 c 128,-1,58
 1752 53 1752 53 1743 81 c 128,-1,59
 1734 109 1734 109 1729 133 c 1,60,61
 1710 203 1710 203 1686.5 290 c 128,-1,62
 1663 377 1663 377 1636 471.5 c 128,-1,63
 1609 566 1609 566 1580.5 665 c 128,-1,64
 1552 764 1552 764 1523.5 858 c 128,-1,65
 1495 952 1495 952 1467.5 1037.5 c 128,-1,66
 1440 1123 1440 1123 1416 1191 c 1,67,68
 1378 1084 1378 1084 1345.5 974.5 c 128,-1,69
 1313 865 1313 865 1281.5 754 c 128,-1,70
 1250 643 1250 643 1216.5 532.5 c 128,-1,71
 1183 422 1183 422 1143 313 c 0,72,73
 1135 293 1135 293 1131 269 c 128,-1,74
 1127 245 1127 245 1127 228 c 0,75,76
 1127 200 1127 200 1116 182 c 128,-1,77
 1105 164 1105 164 1087 153 c 128,-1,78
 1069 142 1069 142 1047 137.5 c 128,-1,79
 1025 133 1025 133 1003 133 c 0,80,81
 966 133 966 133 943 144 c 128,-1,82
 920 155 920 155 906.5 173 c 128,-1,83
 893 191 893 191 886.5 214 c 128,-1,84
 880 237 880 237 876 261 c 0,85,86
 874 275 874 275 871.5 288.5 c 128,-1,87
 869 302 869 302 865 316 c 0,88,89
 848 377 848 377 827.5 450.5 c 128,-1,90
 807 524 807 524 784 603 c 128,-1,91
 761 682 761 682 737 763.5 c 128,-1,92
 713 845 713 845 689 922 c 128,-1,93
 665 999 665 999 642 1068.5 c 128,-1,94
 619 1138 619 1138 598 1194 c 1,95,96
 573 1125 573 1125 545.5 1033 c 128,-1,97
 518 941 518 941 490 837 c 128,-1,98
 462 733 462 733 433.5 624 c 128,-1,99
 405 515 405 515 378 411.5 c 128,-1,100
 351 308 351 308 325 216.5 c 128,-1,101
 299 125 299 125 277 57 c 1,102,103
 254 17 254 17 231 -6 c 128,-1,104
 208 -29 208 -29 164 -29 c 0,105,106
 138 -29 138 -29 116 -20.5 c 128,-1,107
 94 -12 94 -12 78 3 c 128,-1,108
 62 18 62 18 53 37.5 c 128,-1,109
 44 57 44 57 44 80 c 0,0,1
EndSplineSet
EndChar

StartChar: N
Encoding: 78 78 71
Width: 1877
GlyphClass: 2
Flags: W
LayerCount: 2
Fore
SplineSet
273 65 m 0,0,1
 273 86 273 86 275 104.5 c 128,-1,2
 277 123 277 123 279 136.5 c 128,-1,3
 281 150 281 150 283.5 157.5 c 128,-1,4
 286 165 286 165 286 164 c 1,5,6
 288 274 288 274 289.5 387 c 128,-1,7
 291 500 291 500 291 626 c 0,8,9
 291 706 291 706 291 799.5 c 128,-1,10
 291 893 291 893 289.5 988 c 128,-1,11
 288 1083 288 1083 285 1175.5 c 128,-1,12
 282 1268 282 1268 277 1347 c 1,13,14
 273 1371 273 1371 271 1389.5 c 128,-1,15
 269 1408 269 1408 269 1429 c 0,16,17
 269 1479 269 1479 290 1507.5 c 128,-1,18
 311 1536 311 1536 359 1547 c 1,19,20
 379 1564 379 1564 404 1571 c 128,-1,21
 429 1578 429 1578 452 1578 c 0,22,23
 476 1578 476 1578 496 1564 c 128,-1,24
 516 1550 516 1550 531 1530.5 c 128,-1,25
 546 1511 546 1511 556 1490.5 c 128,-1,26
 566 1470 566 1470 570 1457 c 1,27,28
 601 1410 601 1410 644.5 1351 c 128,-1,29
 688 1292 688 1292 740 1224 c 128,-1,30
 792 1156 792 1156 850 1082.5 c 128,-1,31
 908 1009 908 1009 967.5 934 c 128,-1,32
 1027 859 1027 859 1086 784.5 c 128,-1,33
 1145 710 1145 710 1198.5 640.5 c 128,-1,34
 1252 571 1252 571 1297.5 509.5 c 128,-1,35
 1343 448 1343 448 1377 398 c 1,36,37
 1377 615 1377 615 1376 770 c 128,-1,38
 1375 925 1375 925 1373.5 1034 c 128,-1,39
 1372 1143 1372 1143 1370 1213 c 128,-1,40
 1368 1283 1368 1283 1366.5 1329 c 128,-1,41
 1365 1375 1365 1375 1364 1404 c 128,-1,42
 1363 1433 1363 1433 1363 1460 c 0,43,44
 1363 1501 1363 1501 1371.5 1526.5 c 128,-1,45
 1380 1552 1380 1552 1395.5 1566 c 128,-1,46
 1411 1580 1411 1580 1434.5 1585 c 128,-1,47
 1458 1590 1458 1590 1488 1590 c 0,48,49
 1527 1590 1527 1590 1549.5 1574 c 128,-1,50
 1572 1558 1572 1558 1583.5 1533 c 128,-1,51
 1595 1508 1595 1508 1597.5 1477.5 c 128,-1,52
 1600 1447 1600 1447 1600 1417 c 2,53,-1
 1600 259 l 2,54,55
 1600 222 1600 222 1604 185.5 c 128,-1,56
 1608 149 1608 149 1608 107 c 0,57,58
 1608 68 1608 68 1602 42 c 128,-1,59
 1596 16 1596 16 1582.5 0 c 128,-1,60
 1569 -16 1569 -16 1547.5 -22.5 c 128,-1,61
 1526 -29 1526 -29 1495 -29 c 0,62,63
 1439 -29 1439 -29 1405 -1 c 128,-1,64
 1371 27 1371 27 1357 68 c 1,65,66
 1254 208 1254 208 1148.5 345 c 128,-1,67
 1043 482 1043 482 936 619 c 128,-1,68
 829 756 829 756 721 895.5 c 128,-1,69
 613 1035 613 1035 506 1179 c 1,70,71
 507 1024 507 1024 507.5 905 c 128,-1,72
 508 786 508 786 508.5 694 c 128,-1,73
 509 602 509 602 509 532.5 c 128,-1,74
 509 463 509 463 509.5 407.5 c 128,-1,75
 510 352 510 352 510 306.5 c 128,-1,76
 510 261 510 261 510 217 c 1,77,78
 511 191 511 191 513.5 161 c 128,-1,79
 516 131 516 131 516 103 c 0,80,81
 516 76 516 76 511.5 52 c 128,-1,82
 507 28 507 28 494 10 c 128,-1,83
 481 -8 481 -8 457.5 -18.5 c 128,-1,84
 434 -29 434 -29 395 -29 c 0,85,86
 344 -29 344 -29 308.5 -4 c 128,-1,87
 273 21 273 21 273 65 c 0,0,1
EndSplineSet
EndChar

StartChar: O
Encoding: 79 79 72
Width: 1707
GlyphClass: 2
Flags: W
LayerCount: 2
Fore
SplineSet
127 781 m 0,0,1
 127 961 127 961 178 1109.5 c 128,-1,2
 229 1258 229 1258 322.5 1365 c 128,-1,3
 416 1472 416 1472 548 1531 c 128,-1,4
 680 1590 680 1590 841 1590 c 0,5,6
 1010 1590 1010 1590 1140 1531 c 128,-1,7
 1270 1472 1270 1472 1358.5 1365 c 128,-1,8
 1447 1258 1447 1258 1492.5 1109.5 c 128,-1,9
 1538 961 1538 961 1538 781 c 0,10,11
 1538 610 1538 610 1488.5 462.5 c 128,-1,12
 1439 315 1439 315 1347 205.5 c 128,-1,13
 1255 96 1255 96 1124.5 33.5 c 128,-1,14
 994 -29 994 -29 833 -29 c 256,15,16
 672 -29 672 -29 541.5 33.5 c 128,-1,17
 411 96 411 96 319 205.5 c 128,-1,18
 227 315 227 315 177 462.5 c 128,-1,19
 127 610 127 610 127 781 c 0,0,1
836 185 m 0,20,21
 955 185 955 185 1043 235.5 c 128,-1,22
 1131 286 1131 286 1189 369.5 c 128,-1,23
 1247 453 1247 453 1275.5 560 c 128,-1,24
 1304 667 1304 667 1304 781 c 0,25,26
 1304 902 1304 902 1276 1009.5 c 128,-1,27
 1248 1117 1248 1117 1190.5 1198 c 128,-1,28
 1133 1279 1133 1279 1045 1326.5 c 128,-1,29
 957 1374 957 1374 836 1374 c 0,30,31
 722 1374 722 1374 633 1332 c 128,-1,32
 544 1290 544 1290 483.5 1212.5 c 128,-1,33
 423 1135 423 1135 391.5 1025.5 c 128,-1,34
 360 916 360 916 360 781 c 0,35,36
 360 667 360 667 391.5 560 c 128,-1,37
 423 453 423 453 483.5 369.5 c 128,-1,38
 544 286 544 286 633 235.5 c 128,-1,39
 722 185 722 185 836 185 c 0,20,21
EndSplineSet
EndChar

StartChar: P
Encoding: 80 80 73
Width: 1534
GlyphClass: 2
Flags: W
LayerCount: 2
Fore
SplineSet
271 84 m 0,0,1
 271 116 271 116 275.5 149 c 128,-1,2
 280 182 280 182 281 217 c 1,3,-1
 277 1379 l 1,4,5
 271 1393 271 1393 266.5 1418 c 128,-1,6
 262 1443 262 1443 262 1466 c 0,7,8
 262 1486 262 1486 269 1506 c 128,-1,9
 276 1526 276 1526 289.5 1541.5 c 128,-1,10
 303 1557 303 1557 323 1567 c 128,-1,11
 343 1577 343 1577 370 1577 c 0,12,13
 415 1577 415 1577 459.5 1572.5 c 128,-1,14
 504 1568 504 1568 552 1568 c 0,15,16
 590 1568 590 1568 629 1572.5 c 128,-1,17
 668 1577 668 1577 712 1577 c 0,18,19
 854 1577 854 1577 977 1537.5 c 128,-1,20
 1100 1498 1100 1498 1190 1422 c 128,-1,21
 1280 1346 1280 1346 1331.5 1235 c 128,-1,22
 1383 1124 1383 1124 1383 981 c 0,23,24
 1383 845 1383 845 1349 744.5 c 128,-1,25
 1315 644 1315 644 1256 572.5 c 128,-1,26
 1197 501 1197 501 1117 455 c 128,-1,27
 1037 409 1037 409 946 382.5 c 128,-1,28
 855 356 855 356 757 346 c 128,-1,29
 659 336 659 336 563 336 c 1,30,31
 543 335 543 335 532.5 335 c 128,-1,32
 522 335 522 335 504 336 c 1,33,34
 504 301 504 301 504 280 c 128,-1,35
 504 259 504 259 504.5 246 c 128,-1,36
 505 233 505 233 505 224 c 128,-1,37
 505 215 505 215 505 203 c 0,38,39
 505 171 505 171 512 138.5 c 128,-1,40
 519 106 519 106 519 70 c 0,41,42
 519 43 519 43 506.5 24 c 128,-1,43
 494 5 494 5 476 -6.5 c 128,-1,44
 458 -18 458 -18 436.5 -23.5 c 128,-1,45
 415 -29 415 -29 397 -29 c 0,46,47
 373 -29 373 -29 350 -21.5 c 128,-1,48
 327 -14 327 -14 309.5 0.5 c 128,-1,49
 292 15 292 15 281.5 36 c 128,-1,50
 271 57 271 57 271 84 c 0,0,1
505 556 m 1,51,52
 526 555 526 555 547.5 554 c 128,-1,53
 569 553 569 553 588.5 552 c 128,-1,54
 608 551 608 551 623 550.5 c 128,-1,55
 638 550 638 550 646 550 c 0,56,57
 758 550 758 550 839 568 c 128,-1,58
 920 586 920 586 976 617 c 128,-1,59
 1032 648 1032 648 1066 690.5 c 128,-1,60
 1100 733 1100 733 1118.5 782 c 128,-1,61
 1137 831 1137 831 1143 883.5 c 128,-1,62
 1149 936 1149 936 1149 989 c 0,63,64
 1149 1073 1149 1073 1125.5 1133.5 c 128,-1,65
 1102 1194 1102 1194 1063.5 1236 c 128,-1,66
 1025 1278 1025 1278 975.5 1303.5 c 128,-1,67
 926 1329 926 1329 875.5 1342.5 c 128,-1,68
 825 1356 825 1356 776.5 1360.5 c 128,-1,69
 728 1365 728 1365 691 1365 c 0,70,71
 645 1365 645 1365 598 1363.5 c 128,-1,72
 551 1362 551 1362 497 1361 c 1,73,74
 498 1229 498 1229 499.5 1128 c 128,-1,75
 501 1027 501 1027 501.5 950 c 128,-1,76
 502 873 502 873 502.5 815.5 c 128,-1,77
 503 758 503 758 503.5 712.5 c 128,-1,78
 504 667 504 667 504.5 629.5 c 128,-1,79
 505 592 505 592 505 556 c 1,51,52
EndSplineSet
EndChar

StartChar: Q
Encoding: 81 81 74
Width: 1707
GlyphClass: 2
Flags: W
LayerCount: 2
Fore
SplineSet
692 506 m 0,0,1
 692 540 692 540 705 562 c 128,-1,2
 718 584 718 584 738.5 596.5 c 128,-1,3
 759 609 759 609 784.5 614 c 128,-1,4
 810 619 810 619 835 619 c 0,5,6
 897 619 897 619 946 605 c 128,-1,7
 995 591 995 591 1039 564 c 128,-1,8
 1083 537 1083 537 1126.5 497 c 128,-1,9
 1170 457 1170 457 1220 406 c 1,10,11
 1239 383 1239 383 1266.5 346.5 c 128,-1,12
 1294 310 1294 310 1325 275.5 c 128,-1,13
 1356 241 1356 241 1388.5 216.5 c 128,-1,14
 1421 192 1421 192 1451 192 c 0,15,16
 1463 192 1463 192 1475 196.5 c 128,-1,17
 1487 201 1487 201 1500.5 206.5 c 128,-1,18
 1514 212 1514 212 1528 216.5 c 128,-1,19
 1542 221 1542 221 1559 221 c 0,20,21
 1577 221 1577 221 1595.5 214.5 c 128,-1,22
 1614 208 1614 208 1628 194.5 c 128,-1,23
 1642 181 1642 181 1651 161 c 128,-1,24
 1660 141 1660 141 1660 114 c 0,25,26
 1660 78 1660 78 1644.5 51 c 128,-1,27
 1629 24 1629 24 1602.5 6 c 128,-1,28
 1576 -12 1576 -12 1540.5 -20.5 c 128,-1,29
 1505 -29 1505 -29 1465 -29 c 0,30,31
 1399 -29 1399 -29 1342.5 3 c 128,-1,32
 1286 35 1286 35 1236 82.5 c 128,-1,33
 1186 130 1186 130 1141.5 185.5 c 128,-1,34
 1097 241 1097 241 1054.5 288.5 c 128,-1,35
 1012 336 1012 336 969.5 368 c 128,-1,36
 927 400 927 400 883 400 c 0,37,38
 875 400 875 400 863 398.5 c 128,-1,39
 851 397 851 397 837 397 c 256,40,41
 823 397 823 397 798.5 400.5 c 128,-1,42
 774 404 774 404 750.5 415.5 c 128,-1,43
 727 427 727 427 709.5 448.5 c 128,-1,44
 692 470 692 470 692 506 c 0,0,1
149 781 m 0,45,46
 149 961 149 961 200 1109.5 c 128,-1,47
 251 1258 251 1258 344.5 1365 c 128,-1,48
 438 1472 438 1472 570 1531 c 128,-1,49
 702 1590 702 1590 863 1590 c 0,50,51
 1032 1590 1032 1590 1162 1531 c 128,-1,52
 1292 1472 1292 1472 1380.5 1365 c 128,-1,53
 1469 1258 1469 1258 1514.5 1109.5 c 128,-1,54
 1560 961 1560 961 1560 781 c 0,55,56
 1560 610 1560 610 1510.5 462.5 c 128,-1,57
 1461 315 1461 315 1369 205.5 c 128,-1,58
 1277 96 1277 96 1146.5 33.5 c 128,-1,59
 1016 -29 1016 -29 855 -29 c 256,60,61
 694 -29 694 -29 563.5 33.5 c 128,-1,62
 433 96 433 96 341 205.5 c 128,-1,63
 249 315 249 315 199 462.5 c 128,-1,64
 149 610 149 610 149 781 c 0,45,46
858 185 m 0,65,66
 977 185 977 185 1065 235.5 c 128,-1,67
 1153 286 1153 286 1211 369.5 c 128,-1,68
 1269 453 1269 453 1297.5 560 c 128,-1,69
 1326 667 1326 667 1326 781 c 0,70,71
 1326 902 1326 902 1298 1009.5 c 128,-1,72
 1270 1117 1270 1117 1212.5 1198 c 128,-1,73
 1155 1279 1155 1279 1067 1326.5 c 128,-1,74
 979 1374 979 1374 858 1374 c 0,75,76
 744 1374 744 1374 655 1332 c 128,-1,77
 566 1290 566 1290 505.5 1212.5 c 128,-1,78
 445 1135 445 1135 413.5 1025.5 c 128,-1,79
 382 916 382 916 382 781 c 0,80,81
 382 667 382 667 413.5 560 c 128,-1,82
 445 453 445 453 505.5 369.5 c 128,-1,83
 566 286 566 286 655 235.5 c 128,-1,84
 744 185 744 185 858 185 c 0,65,66
EndSplineSet
EndChar

StartChar: R
Encoding: 82 82 75
Width: 1539
GlyphClass: 2
Flags: W
LayerCount: 2
Fore
SplineSet
202 112 m 0,0,1
 202 134 202 134 204 155.5 c 128,-1,2
 206 177 206 177 208 195 c 1,3,4
 208 335 208 335 208 453 c 128,-1,5
 208 571 208 571 208 673.5 c 128,-1,6
 208 776 208 776 208 866.5 c 128,-1,7
 208 957 208 957 208 1041 c 128,-1,8
 208 1125 208 1125 208.5 1206.5 c 128,-1,9
 209 1288 209 1288 209 1373 c 1,10,11
 204 1387 204 1387 199.5 1412 c 128,-1,12
 195 1437 195 1437 195 1460 c 0,13,14
 195 1481 195 1481 201.5 1502 c 128,-1,15
 208 1523 208 1523 221.5 1539.5 c 128,-1,16
 235 1556 235 1556 255 1566.5 c 128,-1,17
 275 1577 275 1577 302 1577 c 0,18,19
 344 1577 344 1577 388 1572 c 128,-1,20
 432 1567 432 1567 486 1567 c 0,21,22
 531 1567 531 1567 577 1571.5 c 128,-1,23
 623 1576 623 1576 674 1577 c 1,24,25
 826 1577 826 1577 949.5 1547 c 128,-1,26
 1073 1517 1073 1517 1160.5 1453 c 128,-1,27
 1248 1389 1248 1389 1295.5 1290.5 c 128,-1,28
 1343 1192 1343 1192 1343 1056 c 0,29,30
 1343 914 1343 914 1300 806 c 128,-1,31
 1257 698 1257 698 1191.5 621 c 128,-1,32
 1126 544 1126 544 1049 497.5 c 128,-1,33
 972 451 972 451 903 432 c 1,34,35
 912 376 912 376 930.5 330.5 c 128,-1,36
 949 285 949 285 979 252.5 c 128,-1,37
 1009 220 1009 220 1051 202 c 128,-1,38
 1093 184 1093 184 1150 184 c 0,39,40
 1169 184 1169 184 1190 189 c 128,-1,41
 1211 194 1211 194 1230 203.5 c 128,-1,42
 1249 213 1249 213 1265.5 227 c 128,-1,43
 1282 241 1282 241 1293 258 c 0,44,45
 1308 279 1308 279 1328 294.5 c 128,-1,46
 1348 310 1348 310 1379 310 c 0,47,48
 1434 310 1434 310 1464 279.5 c 128,-1,49
 1494 249 1494 249 1494 203 c 0,50,51
 1494 160 1494 160 1466.5 118.5 c 128,-1,52
 1439 77 1439 77 1391 44 c 128,-1,53
 1343 11 1343 11 1276.5 -9 c 128,-1,54
 1210 -29 1210 -29 1132 -29 c 0,55,56
 1057 -29 1057 -29 996 -8 c 128,-1,57
 935 13 935 13 887 47.5 c 128,-1,58
 839 82 839 82 803 127 c 128,-1,59
 767 172 767 172 741 220.5 c 128,-1,60
 715 269 715 269 698 318 c 128,-1,61
 681 367 681 367 671 409 c 1,62,63
 646 409 646 409 622 409 c 128,-1,64
 598 409 598 409 571 410 c 0,65,66
 542 411 542 411 508.5 411.5 c 128,-1,67
 475 412 475 412 439 412 c 1,68,-1
 439 265 l 1,69,70
 440 241 440 241 443.5 218 c 128,-1,71
 447 195 447 195 451 172 c 128,-1,72
 455 149 455 149 458.5 126 c 128,-1,73
 462 103 462 103 462 80 c 0,74,75
 462 51 462 51 450 30.5 c 128,-1,76
 438 10 438 10 420 -3.5 c 128,-1,77
 402 -17 402 -17 380.5 -23 c 128,-1,78
 359 -29 359 -29 340 -29 c 0,79,80
 310 -29 310 -29 285 -18.5 c 128,-1,81
 260 -8 260 -8 241.5 10.5 c 128,-1,82
 223 29 223 29 212.5 55 c 128,-1,83
 202 81 202 81 202 112 c 0,0,1
438 629 m 1,84,85
 465 628 465 628 500 627 c 128,-1,86
 535 626 535 626 567.5 625 c 128,-1,87
 600 624 600 624 625.5 623.5 c 128,-1,88
 651 623 651 623 658 623 c 0,89,90
 749 623 749 623 817.5 640 c 128,-1,91
 886 657 886 657 935.5 687.5 c 128,-1,92
 985 718 985 718 1018 759.5 c 128,-1,93
 1051 801 1051 801 1070 850.5 c 128,-1,94
 1089 900 1089 900 1097 954.5 c 128,-1,95
 1105 1009 1105 1009 1105 1065 c 0,96,97
 1105 1139 1105 1139 1081.5 1190 c 128,-1,98
 1058 1241 1058 1241 1020 1274.5 c 128,-1,99
 982 1308 982 1308 933.5 1327 c 128,-1,100
 885 1346 885 1346 835 1355 c 128,-1,101
 785 1364 785 1364 737 1366 c 128,-1,102
 689 1368 689 1368 653 1368 c 0,103,104
 601 1368 601 1368 548 1366.5 c 128,-1,105
 495 1365 495 1365 433 1364 c 1,106,107
 431 1325 431 1325 430.5 1294 c 128,-1,108
 430 1263 430 1263 429.5 1233 c 128,-1,109
 429 1203 429 1203 429 1172 c 128,-1,110
 429 1141 429 1141 429 1103 c 0,111,112
 429 1035 429 1035 429.5 975.5 c 128,-1,113
 430 916 430 916 431 860 c 128,-1,114
 432 804 432 804 433.5 747.5 c 128,-1,115
 435 691 435 691 438 629 c 1,84,85
EndSplineSet
EndChar

StartChar: S
Encoding: 83 83 76
Width: 1368
GlyphClass: 2
Flags: W
LayerCount: 2
Fore
SplineSet
161 363 m 1,0,1
 164 404 164 404 171.5 435 c 128,-1,2
 179 466 179 466 194.5 487 c 128,-1,3
 210 508 210 508 235 519 c 128,-1,4
 260 530 260 530 296 530 c 0,5,6
 342 530 342 530 374 504.5 c 128,-1,7
 406 479 406 479 406 433 c 0,8,9
 406 407 406 407 401 381 c 128,-1,10
 396 355 396 355 398 326 c 1,11,12
 402 292 402 292 425 266 c 128,-1,13
 448 240 448 240 485 222 c 128,-1,14
 522 204 522 204 570 195 c 128,-1,15
 618 186 618 186 672 186 c 256,16,17
 726 186 726 186 780.5 192.5 c 128,-1,18
 835 199 835 199 878.5 221 c 128,-1,19
 922 243 922 243 949.5 285.5 c 128,-1,20
 977 328 977 328 977 400 c 0,21,22
 977 448 977 448 956.5 490.5 c 128,-1,23
 936 533 936 533 903.5 569 c 128,-1,24
 871 605 871 605 830.5 634.5 c 128,-1,25
 790 664 790 664 749 685 c 0,26,27
 692 715 692 715 632 742 c 128,-1,28
 572 769 572 769 514.5 798.5 c 128,-1,29
 457 828 457 828 406 863.5 c 128,-1,30
 355 899 355 899 317 947 c 128,-1,31
 279 995 279 995 256.5 1059 c 128,-1,32
 234 1123 234 1123 234 1209 c 0,33,34
 234 1309 234 1309 277.5 1381 c 128,-1,35
 321 1453 321 1453 390 1499.5 c 128,-1,36
 459 1546 459 1546 544.5 1568 c 128,-1,37
 630 1590 630 1590 713 1590 c 0,38,39
 795 1590 795 1590 872.5 1575 c 128,-1,40
 950 1560 950 1560 1011.5 1525.5 c 128,-1,41
 1073 1491 1073 1491 1113 1434.5 c 128,-1,42
 1153 1378 1153 1378 1161 1295 c 0,43,44
 1164 1267 1164 1267 1155 1245.5 c 128,-1,45
 1146 1224 1146 1224 1129.5 1209 c 128,-1,46
 1113 1194 1113 1194 1092 1186.5 c 128,-1,47
 1071 1179 1071 1179 1050 1179 c 0,48,49
 1018 1179 1018 1179 996 1189 c 128,-1,50
 974 1199 974 1199 959.5 1214.5 c 128,-1,51
 945 1230 945 1230 938 1249 c 128,-1,52
 931 1268 931 1268 929 1286 c 1,53,54
 914 1316 914 1316 888.5 1335 c 128,-1,55
 863 1354 863 1354 832 1364.5 c 128,-1,56
 801 1375 801 1375 767 1379 c 128,-1,57
 733 1383 733 1383 701 1383 c 0,58,59
 663 1383 663 1383 621 1373.5 c 128,-1,60
 579 1364 579 1364 544 1343 c 128,-1,61
 509 1322 509 1322 486.5 1290 c 128,-1,62
 464 1258 464 1258 464 1213 c 0,63,64
 464 1160 464 1160 489 1120 c 128,-1,65
 514 1080 514 1080 552.5 1048.5 c 128,-1,66
 591 1017 591 1017 638 992.5 c 128,-1,67
 685 968 685 968 729 945 c 0,68,69
 782 918 782 918 838 887 c 128,-1,70
 894 856 894 856 947 819.5 c 128,-1,71
 1000 783 1000 783 1047 739.5 c 128,-1,72
 1094 696 1094 696 1129 643.5 c 128,-1,73
 1164 591 1164 591 1184.5 528.5 c 128,-1,74
 1205 466 1205 466 1205 392 c 0,75,76
 1205 313 1205 313 1183.5 250.5 c 128,-1,77
 1162 188 1162 188 1125 141 c 128,-1,78
 1088 94 1088 94 1037.5 61.5 c 128,-1,79
 987 29 987 29 928.5 8.5 c 128,-1,80
 870 -12 870 -12 806.5 -21 c 128,-1,81
 743 -30 743 -30 680 -30 c 0,82,83
 626 -30 626 -30 566 -21 c 128,-1,84
 506 -12 506 -12 447.5 8 c 128,-1,85
 389 28 389 28 336 58.5 c 128,-1,86
 283 89 283 89 243.5 133 c 128,-1,87
 204 177 204 177 181.5 234 c 128,-1,88
 159 291 159 291 161 363 c 1,0,1
EndSplineSet
EndChar

StartChar: T
Encoding: 84 84 77
Width: 1364
GlyphClass: 2
Flags: W
LayerCount: 2
Fore
SplineSet
535 1333 m 1,0,1
 464 1333 464 1333 390.5 1332 c 128,-1,2
 317 1331 317 1331 227 1331 c 0,3,4
 203 1331 203 1331 184.5 1340.5 c 128,-1,5
 166 1350 166 1350 154 1366 c 128,-1,6
 142 1382 142 1382 136 1403 c 128,-1,7
 130 1424 130 1424 130 1446 c 0,8,9
 130 1483 130 1483 141 1505.5 c 128,-1,10
 152 1528 152 1528 173 1540.5 c 128,-1,11
 194 1553 194 1553 224 1557 c 128,-1,12
 254 1561 254 1561 292 1561 c 2,13,-1
 1078 1561 l 2,14,15
 1098 1561 1098 1561 1119.5 1555.5 c 128,-1,16
 1141 1550 1141 1550 1159 1537.5 c 128,-1,17
 1177 1525 1177 1525 1188.5 1503 c 128,-1,18
 1200 1481 1200 1481 1200 1448 c 0,19,20
 1200 1424 1200 1424 1192 1402 c 128,-1,21
 1184 1380 1184 1380 1170.5 1363.5 c 128,-1,22
 1157 1347 1157 1347 1138 1337 c 128,-1,23
 1119 1327 1119 1327 1098 1327 c 0,24,25
 1096 1327 1096 1327 1091 1327 c 128,-1,26
 1086 1327 1086 1327 1082 1328 c 0,27,28
 1080 1328 1080 1328 1079 1328.5 c 128,-1,29
 1078 1329 1078 1329 1076 1329 c 0,30,31
 1065 1331 1065 1331 1053.5 1332 c 128,-1,32
 1042 1333 1042 1333 1034 1333 c 2,33,-1
 778 1333 l 1,34,-1
 771 194 l 2,35,36
 771 170 771 170 774.5 146.5 c 128,-1,37
 778 123 778 123 778 96 c 0,38,39
 778 74 778 74 774 51.5 c 128,-1,40
 770 29 770 29 757 11 c 128,-1,41
 744 -7 744 -7 720 -18.5 c 128,-1,42
 696 -30 696 -30 656 -30 c 0,43,44
 609 -30 609 -30 585 -14.5 c 128,-1,45
 561 1 561 1 550 25.5 c 128,-1,46
 539 50 539 50 538 79 c 128,-1,47
 537 108 537 108 537 135 c 2,48,-1
 535 1333 l 1,0,1
EndSplineSet
EndChar

StartChar: U
Encoding: 85 85 78
Width: 1537
GlyphClass: 2
Flags: W
LayerCount: 2
Fore
SplineSet
189 742 m 0,0,1
 188 903 188 903 189.5 1065.5 c 128,-1,2
 191 1228 191 1228 191 1405 c 0,3,4
 191 1448 191 1448 196 1482 c 128,-1,5
 201 1516 201 1516 213 1540 c 128,-1,6
 225 1564 225 1564 245.5 1577 c 128,-1,7
 266 1590 266 1590 298 1590 c 0,8,9
 335 1590 335 1590 360.5 1579 c 128,-1,10
 386 1568 386 1568 402 1547 c 128,-1,11
 418 1526 418 1526 425 1496.5 c 128,-1,12
 432 1467 432 1467 432 1430 c 0,13,14
 432 1409 432 1409 431 1385 c 128,-1,15
 430 1361 430 1361 429 1327 c 128,-1,16
 428 1293 428 1293 426.5 1246 c 128,-1,17
 425 1199 425 1199 424 1132 c 128,-1,18
 423 1065 423 1065 422 974.5 c 128,-1,19
 421 884 421 884 421 763 c 0,20,21
 421 690 421 690 425.5 618.5 c 128,-1,22
 430 547 430 547 444 483 c 128,-1,23
 458 419 458 419 483 364.5 c 128,-1,24
 508 310 508 310 548 270.5 c 128,-1,25
 588 231 588 231 646 208.5 c 128,-1,26
 704 186 704 186 784 186 c 0,27,28
 875 186 875 186 939 223 c 128,-1,29
 1003 260 1003 260 1042.5 332 c 128,-1,30
 1082 404 1082 404 1100 509.5 c 128,-1,31
 1118 615 1118 615 1118 752 c 0,32,33
 1118 874 1118 874 1117 978 c 128,-1,34
 1116 1082 1116 1082 1114.5 1166 c 128,-1,35
 1113 1250 1113 1250 1111 1312 c 128,-1,36
 1109 1374 1109 1374 1108 1412 c 0,37,38
 1107 1427 1107 1427 1107 1443.5 c 128,-1,39
 1107 1460 1107 1460 1107 1463 c 0,40,41
 1107 1535 1107 1535 1139 1562.5 c 128,-1,42
 1171 1590 1171 1590 1224 1590 c 0,43,44
 1259 1590 1259 1590 1282.5 1580 c 128,-1,45
 1306 1570 1306 1570 1320 1553.5 c 128,-1,46
 1334 1537 1334 1537 1340 1517 c 128,-1,47
 1346 1497 1346 1497 1346 1478 c 0,48,49
 1346 1444 1346 1444 1343.5 1409.5 c 128,-1,50
 1341 1375 1341 1375 1341 1337 c 0,51,52
 1341 1256 1341 1256 1342 1187.5 c 128,-1,53
 1343 1119 1343 1119 1345 1057 c 1,54,55
 1345 984 1345 984 1347.5 910 c 128,-1,56
 1350 836 1350 836 1350 750 c 0,57,58
 1350 565 1350 565 1315 420 c 128,-1,59
 1280 275 1280 275 1208.5 175 c 128,-1,60
 1137 75 1137 75 1028.5 22.5 c 128,-1,61
 920 -30 920 -30 773 -30 c 0,62,63
 699 -30 699 -30 627.5 -16.5 c 128,-1,64
 556 -3 556 -3 491.5 30.5 c 128,-1,65
 427 64 427 64 371.5 120.5 c 128,-1,66
 316 177 316 177 276 262.5 c 128,-1,67
 236 348 236 348 212.5 466.5 c 128,-1,68
 189 585 189 585 189 742 c 0,0,1
EndSplineSet
EndChar

StartChar: V
Encoding: 86 86 79
Width: 1371
GlyphClass: 2
Flags: W
LayerCount: 2
Fore
SplineSet
567 73 m 0,0,1
 530 176 530 176 486 292.5 c 128,-1,2
 442 409 442 409 397 526 c 128,-1,3
 352 643 352 643 307.5 754.5 c 128,-1,4
 263 866 263 866 226 961 c 0,5,6
 191 1049 191 1049 159 1129.5 c 128,-1,7
 127 1210 127 1210 102 1275.5 c 128,-1,8
 77 1341 77 1341 60 1388.5 c 128,-1,9
 43 1436 43 1436 38 1459 c 0,10,11
 31 1486 31 1486 37.5 1509.5 c 128,-1,12
 44 1533 44 1533 59.5 1550 c 128,-1,13
 75 1567 75 1567 98 1577 c 128,-1,14
 121 1587 121 1587 148 1587 c 0,15,16
 221 1587 221 1587 249 1522 c 0,17,18
 263 1487 263 1487 291 1417 c 128,-1,19
 319 1347 319 1347 355 1254.5 c 128,-1,20
 391 1162 391 1162 433.5 1052.5 c 128,-1,21
 476 943 476 943 519.5 828.5 c 128,-1,22
 563 714 563 714 606 600.5 c 128,-1,23
 649 487 649 487 686 387 c 1,24,25
 725 490 725 490 765 595.5 c 128,-1,26
 805 701 805 701 843 803 c 128,-1,27
 881 905 881 905 916.5 1000 c 128,-1,28
 952 1095 952 1095 982 1177.5 c 128,-1,29
 1012 1260 1012 1260 1036 1326.5 c 128,-1,30
 1060 1393 1060 1393 1076 1438 c 1,31,32
 1077 1460 1077 1460 1086.5 1486.5 c 128,-1,33
 1096 1513 1096 1513 1112.5 1536 c 128,-1,34
 1129 1559 1129 1559 1153 1574.5 c 128,-1,35
 1177 1590 1177 1590 1209 1590 c 0,36,37
 1233 1590 1233 1590 1255 1581 c 128,-1,38
 1277 1572 1277 1572 1294 1556 c 128,-1,39
 1311 1540 1311 1540 1321.5 1518 c 128,-1,40
 1332 1496 1332 1496 1332 1471 c 0,41,42
 1332 1450 1332 1450 1326 1428.5 c 128,-1,43
 1320 1407 1320 1407 1311.5 1387.5 c 128,-1,44
 1303 1368 1303 1368 1293.5 1351.5 c 128,-1,45
 1284 1335 1284 1335 1277 1323 c 2,46,-1
 1276 1321 l 1,47,48
 1228 1212 1228 1212 1188.5 1116 c 128,-1,49
 1149 1020 1149 1020 1114 930.5 c 128,-1,50
 1079 841 1079 841 1047 755 c 128,-1,51
 1015 669 1015 669 983 582 c 0,52,53
 945 479 945 479 899.5 358.5 c 128,-1,54
 854 238 854 238 801 104 c 1,55,56
 803 96 803 96 804 87 c 128,-1,57
 805 78 805 78 805 70 c 0,58,59
 805 39 805 39 794.5 19.5 c 128,-1,60
 784 0 784 0 766 -11 c 128,-1,61
 748 -22 748 -22 725 -26 c 128,-1,62
 702 -30 702 -30 678 -30 c 0,63,64
 649 -30 649 -30 630 -21 c 128,-1,65
 611 -12 611 -12 599 3 c 128,-1,66
 587 18 587 18 580 36.5 c 128,-1,67
 573 55 573 55 567 73 c 0,0,1
EndSplineSet
EndChar

StartChar: W
Encoding: 87 87 80
Width: 2054
GlyphClass: 2
Flags: W
LayerCount: 2
Fore
SplineSet
538 101 m 1,0,1
 500 206 500 206 458.5 321 c 128,-1,2
 417 436 417 436 375 552 c 128,-1,3
 333 668 333 668 292 781 c 128,-1,4
 251 894 251 894 213 996.5 c 128,-1,5
 175 1099 175 1099 142 1187 c 128,-1,6
 109 1275 109 1275 84 1340 c 0,7,8
 71 1374 71 1374 60.5 1409 c 128,-1,9
 50 1444 50 1444 50 1476 c 0,10,11
 50 1530 50 1530 80.5 1558 c 128,-1,12
 111 1586 111 1586 173 1586 c 0,13,14
 187 1586 187 1586 200.5 1583.5 c 128,-1,15
 214 1581 214 1581 227.5 1571 c 128,-1,16
 241 1561 241 1561 254 1542 c 128,-1,17
 267 1523 267 1523 279 1490 c 0,18,19
 358 1270 358 1270 417 1104 c 128,-1,20
 476 938 476 938 521 810.5 c 128,-1,21
 566 683 566 683 599.5 585.5 c 128,-1,22
 633 488 633 488 660 404 c 1,23,24
 688 486 688 486 713.5 557 c 128,-1,25
 739 628 739 628 764 695.5 c 128,-1,26
 789 763 789 763 815 831.5 c 128,-1,27
 841 900 841 900 871 977 c 1,28,29
 863 992 863 992 852.5 1020 c 128,-1,30
 842 1048 842 1048 829.5 1082.5 c 128,-1,31
 817 1117 817 1117 804 1154.5 c 128,-1,32
 791 1192 791 1192 778.5 1226.5 c 128,-1,33
 766 1261 766 1261 755 1289 c 128,-1,34
 744 1317 744 1317 736 1333 c 0,35,36
 718 1366 718 1366 705 1399.5 c 128,-1,37
 692 1433 692 1433 692 1459 c 0,38,39
 692 1524 692 1524 719.5 1552 c 128,-1,40
 747 1580 747 1580 813 1580 c 0,41,42
 832 1580 832 1580 849 1572.5 c 128,-1,43
 866 1565 866 1565 884.5 1540.5 c 128,-1,44
 903 1516 903 1516 925 1468.5 c 128,-1,45
 947 1421 947 1421 977 1340 c 0,46,47
 984 1323 984 1323 990.5 1306 c 128,-1,48
 997 1289 997 1289 1004 1270 c 1,49,50
 1024 1314 1024 1314 1043 1362 c 128,-1,51
 1062 1410 1062 1410 1074 1467 c 0,52,53
 1078 1486 1078 1486 1085.5 1507 c 128,-1,54
 1093 1528 1093 1528 1106.5 1546 c 128,-1,55
 1120 1564 1120 1564 1142 1575.5 c 128,-1,56
 1164 1587 1164 1587 1198 1587 c 0,57,58
 1224 1587 1224 1587 1246 1578 c 128,-1,59
 1268 1569 1268 1569 1284.5 1553.5 c 128,-1,60
 1301 1538 1301 1538 1310.5 1516 c 128,-1,61
 1320 1494 1320 1494 1320 1467 c 0,62,63
 1320 1438 1320 1438 1308 1407.5 c 128,-1,64
 1296 1377 1296 1377 1280 1345 c 0,65,66
 1236 1257 1236 1257 1200 1174 c 128,-1,67
 1164 1091 1164 1091 1128 1000 c 1,68,69
 1152 940 1152 940 1174 881.5 c 128,-1,70
 1196 823 1196 823 1221 754 c 128,-1,71
 1246 685 1246 685 1276.5 599 c 128,-1,72
 1307 513 1307 513 1348 398 c 1,73,74
 1394 530 1394 530 1437.5 659 c 128,-1,75
 1481 788 1481 788 1524.5 915.5 c 128,-1,76
 1568 1043 1568 1043 1613 1171 c 128,-1,77
 1658 1299 1658 1299 1708 1429 c 1,78,-1
 1708 1428 l 1,79,80
 1714 1459 1714 1459 1723.5 1487 c 128,-1,81
 1733 1515 1733 1515 1748.5 1536.5 c 128,-1,82
 1764 1558 1764 1558 1786.5 1570.5 c 128,-1,83
 1809 1583 1809 1583 1841 1583 c 0,84,85
 1898 1583 1898 1583 1928.5 1553.5 c 128,-1,86
 1959 1524 1959 1524 1959 1473 c 0,87,88
 1959 1454 1959 1454 1957 1439 c 128,-1,89
 1955 1424 1955 1424 1951 1409.5 c 128,-1,90
 1947 1395 1947 1395 1941 1379.5 c 128,-1,91
 1935 1364 1935 1364 1927 1344 c 0,92,93
 1865 1188 1865 1188 1810.5 1042 c 128,-1,94
 1756 896 1756 896 1702 747 c 128,-1,95
 1648 598 1648 598 1592.5 438.5 c 128,-1,96
 1537 279 1537 279 1474 95 c 1,97,98
 1476 90 1476 90 1475 87 c 128,-1,99
 1474 84 1474 84 1474 79 c 0,100,101
 1474 34 1474 34 1440 2 c 128,-1,102
 1406 -30 1406 -30 1337 -30 c 0,103,104
 1310 -30 1310 -30 1293 -21.5 c 128,-1,105
 1276 -13 1276 -13 1265 0.5 c 128,-1,106
 1254 14 1254 14 1248 31 c 128,-1,107
 1242 48 1242 48 1237 66 c 1,108,-1
 1237 65 l 1,109,110
 1215 135 1215 135 1192.5 193.5 c 128,-1,111
 1170 252 1170 252 1148 314 c 0,112,113
 1111 415 1111 415 1073.5 516 c 128,-1,114
 1036 617 1036 617 997 720 c 1,115,116
 968 643 968 643 941.5 564.5 c 128,-1,117
 915 486 915 486 889.5 407.5 c 128,-1,118
 864 329 864 329 837.5 250 c 128,-1,119
 811 171 811 171 781 93 c 1,120,121
 783 84 783 84 783 75 c 128,-1,122
 783 66 783 66 783 63 c 0,123,124
 783 40 783 40 772.5 22.5 c 128,-1,125
 762 5 762 5 744 -6.5 c 128,-1,126
 726 -18 726 -18 703 -24 c 128,-1,127
 680 -30 680 -30 656 -30 c 0,128,129
 622 -30 622 -30 600.5 -16 c 128,-1,130
 579 -2 579 -2 566 18 c 128,-1,131
 553 38 553 38 547 60.5 c 128,-1,132
 541 83 541 83 538 101 c 1,0,1
EndSplineSet
EndChar

StartChar: X
Encoding: 88 88 81
Width: 1540
GlyphClass: 2
Flags: W
LayerCount: 2
Fore
SplineSet
180 109 m 0,0,1
 180 134 180 134 194 156.5 c 128,-1,2
 208 179 208 179 231 207 c 1,3,4
 302 312 302 312 361 402 c 128,-1,5
 420 492 420 492 469.5 569 c 128,-1,6
 519 646 519 646 559.5 710.5 c 128,-1,7
 600 775 600 775 633 830 c 1,8,9
 573 924 573 924 498 1035 c 128,-1,10
 423 1146 423 1146 327 1285 c 0,11,12
 305 1317 305 1317 285 1346 c 128,-1,13
 265 1375 265 1375 250 1399.5 c 128,-1,14
 235 1424 235 1424 226 1444 c 128,-1,15
 217 1464 217 1464 217 1478 c 0,16,17
 217 1501 217 1501 226 1521 c 128,-1,18
 235 1541 235 1541 250.5 1556 c 128,-1,19
 266 1571 266 1571 286.5 1579.5 c 128,-1,20
 307 1588 307 1588 330 1588 c 0,21,22
 356 1588 356 1588 377 1576 c 128,-1,23
 398 1564 398 1564 414 1544 c 1,24,25
 427 1526 427 1526 449.5 1492.5 c 128,-1,26
 472 1459 472 1459 499 1416.5 c 128,-1,27
 526 1374 526 1374 556.5 1325.5 c 128,-1,28
 587 1277 587 1277 617 1228 c 0,29,30
 659 1158 659 1158 692.5 1104.5 c 128,-1,31
 726 1051 726 1051 756 1003 c 1,32,33
 787 1052 787 1052 819 1105 c 128,-1,34
 851 1158 851 1158 885.5 1216 c 128,-1,35
 920 1274 920 1274 958 1338.5 c 128,-1,36
 996 1403 996 1403 1038 1477 c 1,37,38
 1049 1501 1049 1501 1059.5 1520.5 c 128,-1,39
 1070 1540 1070 1540 1083.5 1553.5 c 128,-1,40
 1097 1567 1097 1567 1114.5 1574.5 c 128,-1,41
 1132 1582 1132 1582 1157 1582 c 256,42,43
 1182 1582 1182 1582 1204.5 1574 c 128,-1,44
 1227 1566 1227 1566 1243.5 1551 c 128,-1,45
 1260 1536 1260 1536 1270 1514.5 c 128,-1,46
 1280 1493 1280 1493 1280 1467 c 256,47,48
 1280 1441 1280 1441 1260.5 1406 c 128,-1,49
 1241 1371 1241 1371 1211 1336 c 1,50,51
 1153 1249 1153 1249 1105.5 1177 c 128,-1,52
 1058 1105 1058 1105 1017.5 1043 c 128,-1,53
 977 981 977 981 942 926.5 c 128,-1,54
 907 872 907 872 873 820 c 1,55,56
 901 774 901 774 935 720 c 128,-1,57
 969 666 969 666 1005 608.5 c 128,-1,58
 1041 551 1041 551 1077.5 494 c 128,-1,59
 1114 437 1114 437 1146.5 386.5 c 128,-1,60
 1179 336 1179 336 1206.5 295 c 128,-1,61
 1234 254 1234 254 1252 229 c 0,62,63
 1267 209 1267 209 1282 194 c 0,64,65
 1302 173 1302 173 1318 151 c 128,-1,66
 1334 129 1334 129 1334 98 c 0,67,68
 1334 72 1334 72 1328 48.5 c 128,-1,69
 1322 25 1322 25 1306 7.5 c 128,-1,70
 1290 -10 1290 -10 1262.5 -20 c 128,-1,71
 1235 -30 1235 -30 1192 -30 c 0,72,73
 1183 -30 1183 -30 1170 -23 c 128,-1,74
 1157 -16 1157 -16 1142.5 -2 c 128,-1,75
 1128 12 1128 12 1113.5 32.5 c 128,-1,76
 1099 53 1099 53 1087 81 c 1,77,-1
 1087 82 l 1,78,79
 1084 90 1084 90 1059.5 132.5 c 128,-1,80
 1035 175 1035 175 991.5 247.5 c 128,-1,81
 948 320 948 320 887 419.5 c 128,-1,82
 826 519 826 519 750 641 c 1,83,84
 727 602 727 602 699 554 c 128,-1,85
 671 506 671 506 641 454.5 c 128,-1,86
 611 403 611 403 580.5 350 c 128,-1,87
 550 297 550 297 521.5 248 c 128,-1,88
 493 199 493 199 468 156 c 128,-1,89
 443 113 443 113 424 81 c 1,90,91
 398 33 398 33 376 1.5 c 128,-1,92
 354 -30 354 -30 328 -30 c 0,93,94
 303 -30 303 -30 276.5 -22 c 128,-1,95
 250 -14 250 -14 228.5 3.5 c 128,-1,96
 207 21 207 21 193.5 47 c 128,-1,97
 180 73 180 73 180 109 c 0,0,1
EndSplineSet
EndChar

StartChar: Y
Encoding: 89 89 82
Width: 1364
GlyphClass: 2
Flags: W
LayerCount: 2
Fore
SplineSet
550 70 m 0,0,1
 550 107 550 107 551 135.5 c 128,-1,2
 552 164 552 164 553.5 194.5 c 128,-1,3
 555 225 555 225 556.5 262.5 c 128,-1,4
 558 300 558 300 558.5 354.5 c 128,-1,5
 559 409 559 409 558.5 486 c 128,-1,6
 558 563 558 563 556 672 c 1,7,8
 482 796 482 796 421.5 894.5 c 128,-1,9
 361 993 361 993 309.5 1074 c 128,-1,10
 258 1155 258 1155 213 1221.5 c 128,-1,11
 168 1288 168 1288 126 1349 c 0,12,13
 99 1387 99 1387 82 1417.5 c 128,-1,14
 65 1448 65 1448 65 1473 c 0,15,16
 65 1530 65 1530 100 1559.5 c 128,-1,17
 135 1589 135 1589 191 1589 c 0,18,19
 213 1589 213 1589 232 1576 c 128,-1,20
 251 1563 251 1563 266.5 1542 c 128,-1,21
 282 1521 282 1521 295 1495 c 128,-1,22
 308 1469 308 1469 319 1444 c 1,23,24
 352 1378 352 1378 390.5 1315.5 c 128,-1,25
 429 1253 429 1253 470 1191.5 c 128,-1,26
 511 1130 511 1130 553 1068 c 128,-1,27
 595 1006 595 1006 636 941 c 1,28,-1
 668 888 l 1,29,-1
 700 941 l 1,30,31
 812 1116 812 1116 894.5 1248.5 c 128,-1,32
 977 1381 977 1381 1018 1459 c 1,33,-1
 1017 1459 l 1,34,35
 1027 1485 1027 1485 1038 1508.5 c 128,-1,36
 1049 1532 1049 1532 1063 1550 c 128,-1,37
 1077 1568 1077 1568 1095.5 1578.5 c 128,-1,38
 1114 1589 1114 1589 1139 1589 c 0,39,40
 1161 1589 1161 1589 1183 1584.5 c 128,-1,41
 1205 1580 1205 1580 1223 1567 c 128,-1,42
 1241 1554 1241 1554 1252 1531 c 128,-1,43
 1263 1508 1263 1508 1263 1472 c 0,44,45
 1263 1453 1263 1453 1253 1421.5 c 128,-1,46
 1243 1390 1243 1390 1207 1356 c 1,47,48
 1145 1260 1145 1260 1083.5 1164.5 c 128,-1,49
 1022 1069 1022 1069 965.5 980.5 c 128,-1,50
 909 892 909 892 860.5 813 c 128,-1,51
 812 734 812 734 778 670 c 1,52,53
 772 611 772 611 772.5 539 c 128,-1,54
 773 467 773 467 776.5 389 c 128,-1,55
 780 311 780 311 784 230.5 c 128,-1,56
 788 150 788 150 788 74 c 0,57,58
 788 53 788 53 782.5 34.5 c 128,-1,59
 777 16 777 16 763.5 1.5 c 128,-1,60
 750 -13 750 -13 727.5 -21.5 c 128,-1,61
 705 -30 705 -30 670 -30 c 0,62,63
 616 -30 616 -30 583 -0.5 c 128,-1,64
 550 29 550 29 550 70 c 0,0,1
EndSplineSet
EndChar

StartChar: Z
Encoding: 90 90 83
Width: 1368
GlyphClass: 2
Flags: W
LayerCount: 2
Fore
SplineSet
123 123 m 0,0,1
 123 137 123 137 130 155 c 128,-1,2
 137 173 137 173 148 191.5 c 128,-1,3
 159 210 159 210 173 228 c 128,-1,4
 187 246 187 246 201 260 c 1,5,6
 276 377 276 377 337.5 471.5 c 128,-1,7
 399 566 399 566 449.5 643.5 c 128,-1,8
 500 721 500 721 542.5 784.5 c 128,-1,9
 585 848 585 848 622 903.5 c 128,-1,10
 659 959 659 959 692 1009.5 c 128,-1,11
 725 1060 725 1060 758.5 1111 c 128,-1,12
 792 1162 792 1162 827 1217 c 128,-1,13
 862 1272 862 1272 902 1337 c 1,14,-1
 310 1334 l 2,15,16
 234 1334 234 1334 199 1363 c 128,-1,17
 164 1392 164 1392 164 1449 c 0,18,19
 164 1561 164 1561 300 1561 c 0,20,21
 431 1561 431 1561 529 1561 c 128,-1,22
 627 1561 627 1561 701 1561 c 128,-1,23
 775 1561 775 1561 827.5 1561 c 128,-1,24
 880 1561 880 1561 920 1561.5 c 128,-1,25
 960 1562 960 1562 990.5 1562 c 128,-1,26
 1021 1562 1021 1562 1051 1563 c 1,27,28
 1073 1581 1073 1581 1136 1581 c 0,29,30
 1167 1581 1167 1581 1188 1570.5 c 128,-1,31
 1209 1560 1209 1560 1222 1543 c 128,-1,32
 1235 1526 1235 1526 1240 1505 c 128,-1,33
 1245 1484 1245 1484 1245 1464 c 0,34,35
 1245 1450 1245 1450 1237 1430 c 128,-1,36
 1229 1410 1229 1410 1217.5 1390 c 128,-1,37
 1206 1370 1206 1370 1194 1351.5 c 128,-1,38
 1182 1333 1182 1333 1175 1322 c 0,39,40
 995 1041 995 1041 810 765 c 128,-1,41
 625 489 625 489 445 207 c 1,42,-1
 998 213 l 1,43,44
 1021 219 1021 219 1056 222 c 128,-1,45
 1091 225 1091 225 1114 225 c 0,46,47
 1173 225 1173 225 1206.5 199 c 128,-1,48
 1240 173 1240 173 1240 110 c 0,49,50
 1240 82 1240 82 1230.5 61.5 c 128,-1,51
 1221 41 1221 41 1198 27.5 c 128,-1,52
 1175 14 1175 14 1136.5 7 c 128,-1,53
 1098 0 1098 0 1039 0 c 2,54,-1
 270 0 l 2,55,56
 228 0 228 0 200 8.5 c 128,-1,57
 172 17 172 17 154.5 33 c 128,-1,58
 137 49 137 49 130 72 c 128,-1,59
 123 95 123 95 123 123 c 0,0,1
EndSplineSet
EndChar

StartChar: bracketleft
Encoding: 91 91 84
Width: 857
GlyphClass: 2
Flags: W
LayerCount: 2
Fore
SplineSet
151 -147 m 0,0,1
 151 63 151 63 156.5 272 c 128,-1,2
 162 481 162 481 164 700 c 1,3,-1
 164 803 l 2,4,5
 164 908 164 908 162 1014 c 128,-1,6
 160 1120 160 1120 158 1228.5 c 128,-1,7
 156 1337 156 1337 154 1449 c 128,-1,8
 152 1561 152 1561 152 1679 c 0,9,10
 152 1836 152 1836 271 1836 c 2,11,-1
 497 1836 l 2,12,13
 520 1836 520 1836 544.5 1838.5 c 128,-1,14
 569 1841 569 1841 596 1842 c 1,15,16
 625 1842 625 1842 644 1832.5 c 128,-1,17
 663 1823 663 1823 674 1808 c 128,-1,18
 685 1793 685 1793 689.5 1774.5 c 128,-1,19
 694 1756 694 1756 694 1738 c 0,20,21
 694 1698 694 1698 678 1675.5 c 128,-1,22
 662 1653 662 1653 639.5 1642.5 c 128,-1,23
 617 1632 617 1632 594 1629.5 c 128,-1,24
 571 1627 571 1627 557 1627 c 0,25,26
 542 1627 542 1627 525.5 1628 c 128,-1,27
 509 1629 509 1629 482 1629 c 2,28,-1
 381 1629 l 1,29,-1
 378 -93 l 1,30,31
 403 -93 403 -93 419.5 -93 c 128,-1,32
 436 -93 436 -93 447 -92.5 c 128,-1,33
 458 -92 458 -92 465.5 -91.5 c 128,-1,34
 473 -91 473 -91 479 -91 c 2,35,-1
 540 -89 l 2,36,37
 568 -89 568 -89 589.5 -100 c 128,-1,38
 611 -111 611 -111 625 -128 c 128,-1,39
 639 -145 639 -145 646 -165 c 128,-1,40
 653 -185 653 -185 653 -203 c 0,41,42
 653 -218 653 -218 648.5 -236 c 128,-1,43
 644 -254 644 -254 633.5 -270 c 128,-1,44
 623 -286 623 -286 606.5 -298.5 c 128,-1,45
 590 -311 590 -311 567 -316 c 0,46,47
 543 -322 543 -322 513 -322 c 0,48,49
 507 -322 507 -322 496.5 -321.5 c 128,-1,50
 486 -321 486 -321 462 -320.5 c 128,-1,51
 438 -320 438 -320 396 -318.5 c 128,-1,52
 354 -317 354 -317 284 -314 c 1,53,54
 242 -314 242 -314 216 -299 c 128,-1,55
 190 -284 190 -284 175.5 -260 c 128,-1,56
 161 -236 161 -236 156 -206.5 c 128,-1,57
 151 -177 151 -177 151 -147 c 0,0,1
EndSplineSet
EndChar

StartChar: asciicircum
Encoding: 94 94 87
Width: 1561
GlyphClass: 2
Flags: W
LayerCount: 2
Fore
SplineSet
338 416 m 0,0,1
 317 416 317 416 297 422.5 c 128,-1,2
 277 429 277 429 262 442 c 128,-1,3
 247 455 247 455 238 474 c 128,-1,4
 229 493 229 493 229 518 c 0,5,6
 229 525 229 525 230 535.5 c 128,-1,7
 231 546 231 546 236 557 c 0,8,9
 264 613 264 613 291.5 670 c 128,-1,10
 319 727 319 727 348 790 c 128,-1,11
 377 853 377 853 408 923.5 c 128,-1,12
 439 994 439 994 475 1078 c 128,-1,13
 511 1162 511 1162 553 1261 c 128,-1,14
 595 1360 595 1360 646 1480 c 1,15,16
 669 1522 669 1522 700 1542 c 128,-1,17
 731 1562 731 1562 762 1562 c 256,18,19
 793 1562 793 1562 823.5 1541.5 c 128,-1,20
 854 1521 854 1521 877 1481 c 1,21,22
 921 1379 921 1379 967.5 1278 c 128,-1,23
 1014 1177 1014 1177 1062 1074 c 128,-1,24
 1110 971 1110 971 1159 864.5 c 128,-1,25
 1208 758 1208 758 1257 645 c 1,26,-1
 1256 646 l 1,27,28
 1268 632 1268 632 1277 613.5 c 128,-1,29
 1286 595 1286 595 1292.5 575.5 c 128,-1,30
 1299 556 1299 556 1302 539.5 c 128,-1,31
 1305 523 1305 523 1305 514 c 0,32,33
 1305 490 1305 490 1296.5 472 c 128,-1,34
 1288 454 1288 454 1273 441.5 c 128,-1,35
 1258 429 1258 429 1238.5 422.5 c 128,-1,36
 1219 416 1219 416 1197 416 c 0,37,38
 1163 416 1163 416 1137.5 434 c 128,-1,39
 1112 452 1112 452 1092.5 479.5 c 128,-1,40
 1073 507 1073 507 1059 539 c 128,-1,41
 1045 571 1045 571 1036 599 c 1,42,-1
 759 1189 l 1,43,44
 680 1008 680 1008 600 827.5 c 128,-1,45
 520 647 520 647 441 466 c 1,46,-1
 440 466 l 1,47,48
 421 443 421 443 398.5 429.5 c 128,-1,49
 376 416 376 416 338 416 c 0,0,1
EndSplineSet
EndChar

StartChar: underscore
Encoding: 95 95 88
Width: 1362
GlyphClass: 2
Flags: W
LayerCount: 2
Fore
SplineSet
1362 -160 m 2,0,1
 1388 -160 1388 -160 1416.5 -161.5 c 128,-1,2
 1445 -163 1445 -163 1469 -172 c 128,-1,3
 1493 -181 1493 -181 1508.5 -200.5 c 128,-1,4
 1524 -220 1524 -220 1524 -256 c 0,5,6
 1524 -350 1524 -350 1362 -350 c 2,7,-1
 0 -350 l 2,8,9
 -79 -350 -79 -350 -124.5 -330 c 128,-1,10
 -170 -310 -170 -310 -170 -260 c 0,11,12
 -170 -231 -170 -231 -162 -212 c 128,-1,13
 -154 -193 -154 -193 -134.5 -181.5 c 128,-1,14
 -115 -170 -115 -170 -82.5 -165 c 128,-1,15
 -50 -160 -50 -160 0 -160 c 2,16,-1
 1362 -160 l 2,0,1
EndSplineSet
EndChar

StartChar: grave
Encoding: 96 96 89
Width: 683
GlyphClass: 2
Flags: W
LayerCount: 2
Fore
SplineSet
435 1418 m 0,0,1
 412 1418 412 1418 396 1422.5 c 128,-1,2
 380 1427 380 1427 365.5 1436.5 c 128,-1,3
 351 1446 351 1446 337 1460.5 c 128,-1,4
 323 1475 323 1475 305 1495 c 1,5,-1
 305 1494 l 1,6,7
 257 1542 257 1542 208.5 1589 c 128,-1,8
 160 1636 160 1636 104 1684 c 0,9,10
 71 1711 71 1711 61 1734.5 c 128,-1,11
 51 1758 51 1758 51 1790 c 0,12,13
 51 1807 51 1807 59.5 1825.5 c 128,-1,14
 68 1844 68 1844 82.5 1859 c 128,-1,15
 97 1874 97 1874 116 1884 c 128,-1,16
 135 1894 135 1894 156 1894 c 256,17,18
 177 1894 177 1894 204 1881.5 c 128,-1,19
 231 1869 231 1869 266 1837 c 1,20,21
 319 1786 319 1786 354.5 1752.5 c 128,-1,22
 390 1719 390 1719 413.5 1697 c 128,-1,23
 437 1675 437 1675 451.5 1662 c 128,-1,24
 466 1649 466 1649 476 1641 c 1,25,26
 484 1638 484 1638 497.5 1628 c 128,-1,27
 511 1618 511 1618 523.5 1604 c 128,-1,28
 536 1590 536 1590 545 1573 c 128,-1,29
 554 1556 554 1556 554 1538 c 0,30,31
 554 1481 554 1481 520 1449.5 c 128,-1,32
 486 1418 486 1418 435 1418 c 0,0,1
EndSplineSet
EndChar

StartChar: a
Encoding: 97 97 90
Width: 1703
GlyphClass: 2
Flags: W
LayerCount: 2
Fore
SplineSet
131 606 m 0,0,1
 131 744 131 744 177.5 862 c 128,-1,2
 224 980 224 980 305 1067 c 128,-1,3
 386 1154 386 1154 496 1203.5 c 128,-1,4
 606 1253 606 1253 733 1253 c 0,5,6
 798 1253 798 1253 857 1238 c 128,-1,7
 916 1223 916 1223 967 1198 c 128,-1,8
 1018 1173 1018 1173 1059 1141.5 c 128,-1,9
 1100 1110 1100 1110 1129 1077 c 1,10,11
 1128 1091 1128 1091 1128 1107 c 128,-1,12
 1128 1123 1128 1123 1128 1135 c 0,13,14
 1128 1160 1128 1160 1135 1182 c 128,-1,15
 1142 1204 1142 1204 1157 1220.5 c 128,-1,16
 1172 1237 1172 1237 1195.5 1246.5 c 128,-1,17
 1219 1256 1219 1256 1252 1256 c 0,18,19
 1280 1256 1280 1256 1303 1245.5 c 128,-1,20
 1326 1235 1326 1235 1342.5 1219.5 c 128,-1,21
 1359 1204 1359 1204 1368 1186 c 128,-1,22
 1377 1168 1377 1168 1377 1154 c 0,23,24
 1377 1119 1377 1119 1373.5 1084.5 c 128,-1,25
 1370 1050 1370 1050 1368 1014 c 1,26,27
 1368 903 1368 903 1366 818 c 128,-1,28
 1364 733 1364 733 1362 661 c 0,29,30
 1360 612 1360 612 1359 560 c 128,-1,31
 1358 508 1358 508 1358 465 c 0,32,33
 1358 366 1358 366 1358 308.5 c 128,-1,34
 1358 251 1358 251 1363 225 c 1,35,36
 1368 226 1368 226 1374 228 c 128,-1,37
 1380 230 1380 230 1390 234 c 128,-1,38
 1400 238 1400 238 1416 245 c 128,-1,39
 1432 252 1432 252 1456 263 c 1,40,-1
 1454 263 l 1,41,42
 1468 269 1468 269 1482 274 c 128,-1,43
 1496 279 1496 279 1518 279 c 0,44,45
 1542 279 1542 279 1560.5 268.5 c 128,-1,46
 1579 258 1579 258 1591 241 c 128,-1,47
 1603 224 1603 224 1609.5 203.5 c 128,-1,48
 1616 183 1616 183 1616 164 c 0,49,50
 1616 136 1616 136 1601 109.5 c 128,-1,51
 1586 83 1586 83 1554 69 c 1,52,53
 1523 58 1523 58 1481.5 43.5 c 128,-1,54
 1440 29 1440 29 1399 16 c 128,-1,55
 1358 3 1358 3 1323 -6 c 128,-1,56
 1288 -15 1288 -15 1270 -15 c 0,57,58
 1230 -15 1230 -15 1205 1.5 c 128,-1,59
 1180 18 1180 18 1165.5 43.5 c 128,-1,60
 1151 69 1151 69 1145 100.5 c 128,-1,61
 1139 132 1139 132 1138 162 c 1,62,63
 1106 123 1106 123 1062 88.5 c 128,-1,64
 1018 54 1018 54 964.5 27.5 c 128,-1,65
 911 1 911 1 850 -14 c 128,-1,66
 789 -29 789 -29 724 -29 c 0,67,68
 593 -29 593 -29 484 19 c 128,-1,69
 375 67 375 67 296.5 152 c 128,-1,70
 218 237 218 237 174.5 353 c 128,-1,71
 131 469 131 469 131 606 c 0,0,1
363 606 m 0,72,73
 363 524 363 524 388 448.5 c 128,-1,74
 413 373 413 373 460 315 c 128,-1,75
 507 257 507 257 575.5 222.5 c 128,-1,76
 644 188 644 188 731 188 c 0,77,78
 816 188 816 188 886 221.5 c 128,-1,79
 956 255 956 255 1008 308 c 128,-1,80
 1060 361 1060 361 1093.5 428 c 128,-1,81
 1127 495 1127 495 1139 561 c 1,82,-1
 1139 649 l 1,83,84
 1131 690 1131 690 1115 735 c 128,-1,85
 1099 780 1099 780 1074.5 823.5 c 128,-1,86
 1050 867 1050 867 1016.5 906.5 c 128,-1,87
 983 946 983 946 941 975.5 c 128,-1,88
 899 1005 899 1005 848.5 1022.5 c 128,-1,89
 798 1040 798 1040 739 1040 c 0,90,91
 656 1040 656 1040 587 1006 c 128,-1,92
 518 972 518 972 468.5 913.5 c 128,-1,93
 419 855 419 855 391 775.5 c 128,-1,94
 363 696 363 696 363 606 c 0,72,73
EndSplineSet
EndChar

StartChar: b
Encoding: 98 98 91
Width: 1535
GlyphClass: 2
Flags: W
LayerCount: 2
Fore
SplineSet
203 66 m 0,0,1
 203 106 203 106 203 159 c 128,-1,2
 203 212 203 212 202 272 c 0,3,4
 200 410 200 410 201 564 c 128,-1,5
 202 718 202 718 202.5 877.5 c 128,-1,6
 203 1037 203 1037 202.5 1197.5 c 128,-1,7
 202 1358 202 1358 197 1509 c 1,8,9
 179 1510 179 1510 159.5 1506.5 c 128,-1,10
 140 1503 140 1503 115 1503 c 0,11,12
 97 1503 97 1503 79.5 1509 c 128,-1,13
 62 1515 62 1515 48.5 1528.5 c 128,-1,14
 35 1542 35 1542 26.5 1563.5 c 128,-1,15
 18 1585 18 1585 18 1615 c 0,16,17
 18 1669 18 1669 46 1696.5 c 128,-1,18
 74 1724 74 1724 114 1724 c 0,19,20
 130 1724 130 1724 145.5 1720 c 128,-1,21
 161 1716 161 1716 178 1716 c 0,22,23
 218 1716 218 1716 258 1720 c 128,-1,24
 298 1724 298 1724 343 1724 c 0,25,26
 385 1724 385 1724 412 1696.5 c 128,-1,27
 439 1669 439 1669 439 1620 c 0,28,29
 439 1488 439 1488 436 1357 c 128,-1,30
 433 1226 433 1226 431 1087 c 1,31,32
 464 1122 464 1122 508 1151 c 128,-1,33
 552 1180 552 1180 603 1200.5 c 128,-1,34
 654 1221 654 1221 711 1232.5 c 128,-1,35
 768 1244 768 1244 827 1244 c 0,36,37
 962 1244 962 1244 1073.5 1199.5 c 128,-1,38
 1185 1155 1185 1155 1264.5 1073 c 128,-1,39
 1344 991 1344 991 1388 874.5 c 128,-1,40
 1432 758 1432 758 1432 614 c 0,41,42
 1432 456 1432 456 1384 335.5 c 128,-1,43
 1336 215 1336 215 1250.5 134 c 128,-1,44
 1165 53 1165 53 1046 12 c 128,-1,45
 927 -29 927 -29 785 -29 c 0,46,47
 732 -29 732 -29 680.5 -19 c 128,-1,48
 629 -9 629 -9 581.5 9.5 c 128,-1,49
 534 28 534 28 492.5 53.5 c 128,-1,50
 451 79 451 79 419 109 c 1,51,-1
 419 67 l 2,52,53
 419 40 419 40 407 23 c 128,-1,54
 395 6 395 6 377 -3.5 c 128,-1,55
 359 -13 359 -13 337 -17 c 128,-1,56
 315 -21 315 -21 296 -21 c 0,57,58
 252 -21 252 -21 227.5 -4.5 c 128,-1,59
 203 12 203 12 203 66 c 0,0,1
410 600 m 0,60,61
 410 504 410 504 441 428 c 128,-1,62
 472 352 472 352 523 298.5 c 128,-1,63
 574 245 574 245 640.5 216.5 c 128,-1,64
 707 188 707 188 778 188 c 0,65,66
 866 188 866 188 941 212.5 c 128,-1,67
 1016 237 1016 237 1071.5 288.5 c 128,-1,68
 1127 340 1127 340 1158.5 420 c 128,-1,69
 1190 500 1190 500 1190 611 c 0,70,71
 1190 707 1190 707 1163 784 c 128,-1,72
 1136 861 1136 861 1086 915 c 128,-1,73
 1036 969 1036 969 963.5 997.5 c 128,-1,74
 891 1026 891 1026 801 1026 c 0,75,76
 724 1026 724 1026 653.5 994 c 128,-1,77
 583 962 583 962 529 905 c 128,-1,78
 475 848 475 848 442.5 770 c 128,-1,79
 410 692 410 692 410 600 c 0,60,61
EndSplineSet
EndChar

StartChar: c
Encoding: 99 99 92
Width: 1368
GlyphClass: 2
Flags: W
LayerCount: 2
Fore
SplineSet
76 610 m 0,0,1
 76 687 76 687 92.5 763.5 c 128,-1,2
 109 840 109 840 143 910.5 c 128,-1,3
 177 981 177 981 230 1042 c 128,-1,4
 283 1103 283 1103 356 1148 c 128,-1,5
 429 1193 429 1193 522.5 1218.5 c 128,-1,6
 616 1244 616 1244 732 1244 c 0,7,8
 805 1244 805 1244 867.5 1228 c 128,-1,9
 930 1212 930 1212 972 1185 c 1,10,11
 977 1216 977 1216 989.5 1235 c 128,-1,12
 1002 1254 1002 1254 1018.5 1264.5 c 128,-1,13
 1035 1275 1035 1275 1054.5 1279 c 128,-1,14
 1074 1283 1074 1283 1092 1283 c 0,15,16
 1141 1283 1141 1283 1168 1256.5 c 128,-1,17
 1195 1230 1195 1230 1195 1188 c 0,18,19
 1195 1166 1195 1166 1192 1143 c 128,-1,20
 1189 1120 1189 1120 1189 1094 c 0,21,22
 1189 1071 1189 1071 1192.5 1048.5 c 128,-1,23
 1196 1026 1196 1026 1199.5 1003.5 c 128,-1,24
 1203 981 1203 981 1206.5 958.5 c 128,-1,25
 1210 936 1210 936 1210 913 c 0,26,27
 1210 864 1210 864 1184.5 830.5 c 128,-1,28
 1159 797 1159 797 1106 797 c 0,29,30
 1079 797 1079 797 1061.5 803.5 c 128,-1,31
 1044 810 1044 810 1031.5 822 c 128,-1,32
 1019 834 1019 834 1009.5 849.5 c 128,-1,33
 1000 865 1000 865 991 883 c 0,34,35
 979 907 979 907 962.5 932.5 c 128,-1,36
 946 958 946 958 914.5 979 c 128,-1,37
 883 1000 883 1000 831.5 1013 c 128,-1,38
 780 1026 780 1026 698 1026 c 0,39,40
 602 1026 602 1026 529 990 c 128,-1,41
 456 954 456 954 407 894.5 c 128,-1,42
 358 835 358 835 333 757 c 128,-1,43
 308 679 308 679 308 595 c 0,44,45
 308 554 308 554 318.5 508.5 c 128,-1,46
 329 463 329 463 350 417.5 c 128,-1,47
 371 372 371 372 403.5 330.5 c 128,-1,48
 436 289 436 289 480 257.5 c 128,-1,49
 524 226 524 226 580 207 c 128,-1,50
 636 188 636 188 705 188 c 0,51,52
 743 188 743 188 785.5 198.5 c 128,-1,53
 828 209 828 209 869 228.5 c 128,-1,54
 910 248 910 248 946 276.5 c 128,-1,55
 982 305 982 305 1007 342 c 0,56,57
 1022 365 1022 365 1049.5 385 c 128,-1,58
 1077 405 1077 405 1108 405 c 0,59,60
 1138 405 1138 405 1159 395.5 c 128,-1,61
 1180 386 1180 386 1193 371 c 128,-1,62
 1206 356 1206 356 1211.5 338 c 128,-1,63
 1217 320 1217 320 1217 303 c 0,64,65
 1217 258 1217 258 1197.5 221 c 128,-1,66
 1178 184 1178 184 1155 154 c 1,67,68
 1111 105 1111 105 1055.5 70 c 128,-1,69
 1000 35 1000 35 938.5 13 c 128,-1,70
 877 -9 877 -9 814.5 -19 c 128,-1,71
 752 -29 752 -29 695 -29 c 0,72,73
 558 -29 558 -29 444.5 22 c 128,-1,74
 331 73 331 73 249 160 c 128,-1,75
 167 247 167 247 121.5 363 c 128,-1,76
 76 479 76 479 76 610 c 0,0,1
EndSplineSet
EndChar

StartChar: d
Encoding: 100 100 93
Width: 1537
GlyphClass: 2
Flags: W
LayerCount: 2
Fore
SplineSet
68 606 m 0,0,1
 68 743 68 743 114 860 c 128,-1,2
 160 977 160 977 241.5 1062.5 c 128,-1,3
 323 1148 323 1148 434 1196 c 128,-1,4
 545 1244 545 1244 675 1244 c 0,5,6
 734 1244 734 1244 791.5 1232.5 c 128,-1,7
 849 1221 849 1221 901 1198.5 c 128,-1,8
 953 1176 953 1176 997.5 1142.5 c 128,-1,9
 1042 1109 1042 1109 1075 1066 c 1,10,11
 1075 1092 1075 1092 1075 1129.5 c 128,-1,12
 1075 1167 1075 1167 1074.5 1220.5 c 128,-1,13
 1074 1274 1074 1274 1073 1345 c 128,-1,14
 1072 1416 1072 1416 1071 1508 c 1,15,-1
 985 1508 l 2,16,17
 962 1508 962 1508 940 1503 c 128,-1,18
 918 1498 918 1498 892 1498 c 0,19,20
 874 1498 874 1498 855.5 1506.5 c 128,-1,21
 837 1515 837 1515 822 1530.5 c 128,-1,22
 807 1546 807 1546 797.5 1569 c 128,-1,23
 788 1592 788 1592 788 1621 c 0,24,25
 788 1674 788 1674 815.5 1702 c 128,-1,26
 843 1730 843 1730 884 1730 c 0,27,28
 894 1730 894 1730 908.5 1729.5 c 128,-1,29
 923 1729 923 1729 941 1724 c 1,30,31
 1008 1723 1008 1723 1075.5 1725.5 c 128,-1,32
 1143 1728 1143 1728 1221 1729 c 0,33,34
 1263 1729 1263 1729 1287.5 1700 c 128,-1,35
 1312 1671 1312 1671 1312 1622 c 0,36,37
 1312 1604 1312 1604 1310 1591.5 c 128,-1,38
 1308 1579 1308 1579 1303 1568 c 1,39,40
 1301 1502 1301 1502 1300 1411 c 128,-1,41
 1299 1320 1299 1320 1298 1218.5 c 128,-1,42
 1297 1117 1297 1117 1296 1013.5 c 128,-1,43
 1295 910 1295 910 1294.5 819 c 128,-1,44
 1294 728 1294 728 1294 657.5 c 128,-1,45
 1294 587 1294 587 1294 553 c 0,46,47
 1294 453 1294 453 1295.5 374 c 128,-1,48
 1297 295 1297 295 1302 250 c 1,49,-1
 1320 261 l 2,50,51
 1341 273 1341 273 1361 282 c 128,-1,52
 1381 291 1381 291 1404 293 c 0,53,54
 1421 295 1421 295 1439.5 289.5 c 128,-1,55
 1458 284 1458 284 1473 271 c 128,-1,56
 1488 258 1488 258 1498 237 c 128,-1,57
 1508 216 1508 216 1508 186 c 0,58,59
 1508 143 1508 143 1485 117.5 c 128,-1,60
 1462 92 1462 92 1438 82 c 0,61,62
 1414 71 1414 71 1391.5 59.5 c 128,-1,63
 1369 48 1369 48 1346 35 c 0,64,65
 1312 17 1312 17 1280 1 c 128,-1,66
 1248 -15 1248 -15 1224 -15 c 0,67,68
 1176 -15 1176 -15 1146 31 c 128,-1,69
 1116 77 1116 77 1101 154 c 1,70,71
 1060 113 1060 113 1008.5 79 c 128,-1,72
 957 45 957 45 898.5 21 c 128,-1,73
 840 -3 840 -3 776 -16 c 128,-1,74
 712 -29 712 -29 647 -29 c 0,75,76
 516 -29 516 -29 409 20.5 c 128,-1,77
 302 70 302 70 226.5 156 c 128,-1,78
 151 242 151 242 109.5 357.5 c 128,-1,79
 68 473 68 473 68 606 c 0,0,1
293 606 m 0,80,81
 293 526 293 526 318.5 451 c 128,-1,82
 344 376 344 376 392 317.5 c 128,-1,83
 440 259 440 259 508.5 223.5 c 128,-1,84
 577 188 577 188 664 188 c 0,85,86
 731 188 731 188 797.5 209.5 c 128,-1,87
 864 231 864 231 920.5 271 c 128,-1,88
 977 311 977 311 1018 368.5 c 128,-1,89
 1059 426 1059 426 1074 497 c 1,90,91
 1074 538 1074 538 1074 564.5 c 128,-1,92
 1074 591 1074 591 1073.5 609.5 c 128,-1,93
 1073 628 1073 628 1073 644 c 128,-1,94
 1073 660 1073 660 1073 680 c 1,95,96
 1057 753 1057 753 1021 816 c 128,-1,97
 985 879 985 879 933.5 925.5 c 128,-1,98
 882 972 882 972 818 998.5 c 128,-1,99
 754 1025 754 1025 682 1025 c 0,100,101
 598 1025 598 1025 526.5 995 c 128,-1,102
 455 965 455 965 403.5 910 c 128,-1,103
 352 855 352 855 322.5 777.5 c 128,-1,104
 293 700 293 700 293 606 c 0,80,81
EndSplineSet
EndChar

StartChar: e
Encoding: 101 101 94
Width: 1537
GlyphClass: 2
Flags: W
LayerCount: 2
Fore
SplineSet
392 456 m 1,0,1
 412 381 412 381 452 329.5 c 128,-1,2
 492 278 492 278 542 246.5 c 128,-1,3
 592 215 592 215 648.5 201.5 c 128,-1,4
 705 188 705 188 758 188 c 0,5,6
 837 188 837 188 898.5 201.5 c 128,-1,7
 960 215 960 215 1004 234.5 c 128,-1,8
 1048 254 1048 254 1075.5 275.5 c 128,-1,9
 1103 297 1103 297 1114 313 c 0,10,11
 1134 344 1134 344 1164 366.5 c 128,-1,12
 1194 389 1194 389 1221 389 c 0,13,14
 1271 389 1271 389 1299 359 c 128,-1,15
 1327 329 1327 329 1327 279 c 0,16,17
 1327 260 1327 260 1313 230.5 c 128,-1,18
 1299 201 1299 201 1260 166 c 0,19,20
 1218 127 1218 127 1166 91.5 c 128,-1,21
 1114 56 1114 56 1051 29.5 c 128,-1,22
 988 3 988 3 914.5 -13 c 128,-1,23
 841 -29 841 -29 757 -29 c 0,24,25
 654 -29 654 -29 568 -2.5 c 128,-1,26
 482 24 482 24 414.5 70 c 128,-1,27
 347 116 347 116 296.5 177 c 128,-1,28
 246 238 246 238 212.5 306.5 c 128,-1,29
 179 375 179 375 162.5 447.5 c 128,-1,30
 146 520 146 520 146 589 c 0,31,32
 146 738 146 738 196 859 c 128,-1,33
 246 980 246 980 333.5 1065.5 c 128,-1,34
 421 1151 421 1151 541 1197.5 c 128,-1,35
 661 1244 661 1244 801 1244 c 0,36,37
 902 1244 902 1244 989.5 1215 c 128,-1,38
 1077 1186 1077 1186 1146 1134.5 c 128,-1,39
 1215 1083 1215 1083 1262 1011 c 128,-1,40
 1309 939 1309 939 1328 852 c 1,41,42
 1348 835 1348 835 1357.5 807 c 128,-1,43
 1367 779 1367 779 1367 752 c 0,44,45
 1367 707 1367 707 1336.5 678 c 128,-1,46
 1306 649 1306 649 1259 637 c 0,47,48
 1046 586 1046 586 829.5 545.5 c 128,-1,49
 613 505 613 505 392 456 c 1,0,1
374 642 m 1,50,51
 555 683 555 683 741.5 718 c 128,-1,52
 928 753 928 753 1119 797 c 1,53,54
 1101 844 1101 844 1070 885.5 c 128,-1,55
 1039 927 1039 927 997 958.5 c 128,-1,56
 955 990 955 990 903.5 1008 c 128,-1,57
 852 1026 852 1026 793 1026 c 0,58,59
 703 1026 703 1026 629.5 998.5 c 128,-1,60
 556 971 556 971 502 920.5 c 128,-1,61
 448 870 448 870 415.5 799.5 c 128,-1,62
 383 729 383 729 374 642 c 1,50,51
EndSplineSet
EndChar

StartChar: f
Encoding: 102 102 95
Width: 1023
GlyphClass: 2
Flags: W
LayerCount: 2
Fore
SplineSet
283 90 m 0,0,1
 283 110 283 110 283.5 130 c 128,-1,2
 284 150 284 150 285 170 c 1,3,-1
 268 1007 l 1,4,-1
 239 1007 l 2,5,6
 221 1007 221 1007 201.5 1012 c 128,-1,7
 182 1017 182 1017 166.5 1029.5 c 128,-1,8
 151 1042 151 1042 141 1062.5 c 128,-1,9
 131 1083 131 1083 131 1115 c 0,10,11
 131 1141 131 1141 139 1161 c 128,-1,12
 147 1181 147 1181 160.5 1194.5 c 128,-1,13
 174 1208 174 1208 191 1215 c 128,-1,14
 208 1222 208 1222 227 1222 c 0,15,16
 236 1222 236 1222 244 1219 c 128,-1,17
 252 1216 252 1216 262 1215 c 1,18,19
 259 1246 259 1246 257 1279.5 c 128,-1,20
 255 1313 255 1313 255 1343 c 0,21,22
 255 1454 255 1454 283.5 1533.5 c 128,-1,23
 312 1613 312 1613 364.5 1663.5 c 128,-1,24
 417 1714 417 1714 491 1738 c 128,-1,25
 565 1762 565 1762 655 1762 c 0,26,27
 739 1762 739 1762 800 1737 c 128,-1,28
 861 1712 861 1712 901 1676 c 128,-1,29
 941 1640 941 1640 960 1600 c 128,-1,30
 979 1560 979 1560 979 1530 c 0,31,32
 979 1482 979 1482 948 1456 c 128,-1,33
 917 1430 917 1430 872 1430 c 0,34,35
 836 1430 836 1430 806 1449.5 c 128,-1,36
 776 1469 776 1469 753 1501 c 0,37,38
 731 1531 731 1531 706 1544.5 c 128,-1,39
 681 1558 681 1558 635 1558 c 0,40,41
 555 1558 555 1558 517.5 1490.5 c 128,-1,42
 480 1423 480 1423 480 1290 c 0,43,44
 480 1278 480 1278 482 1259 c 128,-1,45
 484 1240 484 1240 486 1220 c 1,46,47
 537 1221 537 1221 600 1221 c 128,-1,48
 663 1221 663 1221 738 1221 c 0,49,50
 788 1221 788 1221 813.5 1191 c 128,-1,51
 839 1161 839 1161 839 1121 c 0,52,53
 839 1100 839 1100 831 1080 c 128,-1,54
 823 1060 823 1060 808 1043.5 c 128,-1,55
 793 1027 793 1027 770.5 1017 c 128,-1,56
 748 1007 748 1007 718 1007 c 2,57,-1
 497 1007 l 1,58,-1
 506 205 l 1,59,60
 519 208 519 208 530.5 211.5 c 128,-1,61
 542 215 542 215 553 219 c 0,62,63
 583 229 583 229 608 236 c 128,-1,64
 633 243 633 243 659 243 c 0,65,66
 676 243 676 243 693.5 235.5 c 128,-1,67
 711 228 711 228 724.5 214 c 128,-1,68
 738 200 738 200 746.5 180.5 c 128,-1,69
 755 161 755 161 755 137 c 0,70,71
 755 99 755 99 729 68.5 c 128,-1,72
 703 38 703 38 652 27 c 0,73,74
 631 22 631 22 605 15.5 c 128,-1,75
 579 9 579 9 544 -1 c 0,76,77
 504 -12 504 -12 463 -20.5 c 128,-1,78
 422 -29 422 -29 400 -29 c 0,79,80
 380 -29 380 -29 359.5 -24 c 128,-1,81
 339 -19 339 -19 322 -5.5 c 128,-1,82
 305 8 305 8 294 31 c 128,-1,83
 283 54 283 54 283 90 c 0,0,1
EndSplineSet
EndChar

StartChar: g
Encoding: 103 103 96
Width: 1537
GlyphClass: 2
Flags: W
LayerCount: 2
Fore
SplineSet
244 -258 m 0,0,1
 244 -234 244 -234 251.5 -211 c 128,-1,2
 259 -188 259 -188 273 -169.5 c 128,-1,3
 287 -151 287 -151 306.5 -139.5 c 128,-1,4
 326 -128 326 -128 350 -128 c 0,5,6
 367 -128 367 -128 391.5 -135 c 128,-1,7
 416 -142 416 -142 432 -156 c 0,8,9
 458 -179 458 -179 486.5 -202 c 128,-1,10
 515 -225 515 -225 551 -243.5 c 128,-1,11
 587 -262 587 -262 633.5 -273.5 c 128,-1,12
 680 -285 680 -285 741 -285 c 256,13,14
 802 -285 802 -285 867 -263 c 128,-1,15
 932 -241 932 -241 986 -197.5 c 128,-1,16
 1040 -154 1040 -154 1075 -89.5 c 128,-1,17
 1110 -25 1110 -25 1110 61 c 0,18,19
 1110 75 1110 75 1109 91.5 c 128,-1,20
 1108 108 1108 108 1108 124 c 1,21,22
 1081 91 1081 91 1046 63 c 128,-1,23
 1011 35 1011 35 963.5 14.5 c 128,-1,24
 916 -6 916 -6 854 -17.5 c 128,-1,25
 792 -29 792 -29 712 -29 c 0,26,27
 582 -29 582 -29 472.5 19 c 128,-1,28
 363 67 363 67 284 152 c 128,-1,29
 205 237 205 237 160.5 353 c 128,-1,30
 116 469 116 469 116 606 c 0,31,32
 116 744 116 744 162 860.5 c 128,-1,33
 208 977 208 977 289 1062.5 c 128,-1,34
 370 1148 370 1148 481 1196 c 128,-1,35
 592 1244 592 1244 722 1244 c 0,36,37
 860 1244 860 1244 961 1204 c 128,-1,38
 1062 1164 1062 1164 1133 1086 c 1,39,40
 1138 1102 1138 1102 1146 1117.5 c 128,-1,41
 1154 1133 1154 1133 1166.5 1145.5 c 128,-1,42
 1179 1158 1179 1158 1196 1165.5 c 128,-1,43
 1213 1173 1213 1173 1236 1173 c 0,44,45
 1270 1173 1270 1173 1291.5 1164 c 128,-1,46
 1313 1155 1313 1155 1325.5 1140 c 128,-1,47
 1338 1125 1338 1125 1342.5 1104.5 c 128,-1,48
 1347 1084 1347 1084 1347 1060 c 0,49,50
 1347 1037 1347 1037 1343 1015.5 c 128,-1,51
 1339 994 1339 994 1339 969 c 0,52,53
 1339 854 1339 854 1338.5 751 c 128,-1,54
 1338 648 1338 648 1336 545 c 0,55,56
 1334 445 1334 445 1333 332 c 128,-1,57
 1332 219 1332 219 1332 104 c 0,58,59
 1332 -28 1332 -28 1303 -124 c 128,-1,60
 1274 -220 1274 -220 1226 -287 c 128,-1,61
 1178 -354 1178 -354 1115.5 -395.5 c 128,-1,62
 1053 -437 1053 -437 987 -460 c 128,-1,63
 921 -483 921 -483 855.5 -491 c 128,-1,64
 790 -499 790 -499 735 -499 c 0,65,66
 685 -499 685 -499 629 -490 c 128,-1,67
 573 -481 573 -481 518.5 -465 c 128,-1,68
 464 -449 464 -449 414 -427 c 128,-1,69
 364 -405 364 -405 326.5 -378 c 128,-1,70
 289 -351 289 -351 266.5 -321 c 128,-1,71
 244 -291 244 -291 244 -258 c 0,0,1
341 606 m 0,72,73
 341 516 341 516 367.5 439.5 c 128,-1,74
 394 363 394 363 443.5 307 c 128,-1,75
 493 251 493 251 563 219.5 c 128,-1,76
 633 188 633 188 719 188 c 0,77,78
 817 188 817 188 892 219.5 c 128,-1,79
 967 251 967 251 1017.5 307 c 128,-1,80
 1068 363 1068 363 1094 439.5 c 128,-1,81
 1120 516 1120 516 1120 606 c 0,82,83
 1120 694 1120 694 1097.5 770.5 c 128,-1,84
 1075 847 1075 847 1028 904 c 128,-1,85
 981 961 981 961 908 993.5 c 128,-1,86
 835 1026 835 1026 734 1026 c 0,87,88
 647 1026 647 1026 574.5 994.5 c 128,-1,89
 502 963 502 963 450.5 907 c 128,-1,90
 399 851 399 851 370 774 c 128,-1,91
 341 697 341 697 341 606 c 0,72,73
EndSplineSet
EndChar

StartChar: h
Encoding: 104 104 97
Width: 1533
GlyphClass: 2
Flags: W
LayerCount: 2
Fore
SplineSet
222 73 m 0,0,1
 222 91 222 91 223.5 110 c 128,-1,2
 225 129 225 129 227 148 c 0,3,4
 230 175 230 175 233 207 c 128,-1,5
 236 239 236 239 236 279 c 0,6,7
 236 339 236 339 235.5 427.5 c 128,-1,8
 235 516 235 516 234 622.5 c 128,-1,9
 233 729 233 729 232 846.5 c 128,-1,10
 231 964 231 964 229.5 1081.5 c 128,-1,11
 228 1199 228 1199 226.5 1310 c 128,-1,12
 225 1421 225 1421 224 1514 c 1,13,14
 209 1516 209 1516 192 1512.5 c 128,-1,15
 175 1509 175 1509 151 1509 c 0,16,17
 133 1509 133 1509 114 1515 c 128,-1,18
 95 1521 95 1521 80 1534 c 128,-1,19
 65 1547 65 1547 55 1568 c 128,-1,20
 45 1589 45 1589 45 1619 c 0,21,22
 45 1673 45 1673 73.5 1700.5 c 128,-1,23
 102 1728 102 1728 141 1728 c 0,24,25
 157 1728 157 1728 172.5 1724 c 128,-1,26
 188 1720 188 1720 205 1720 c 0,27,28
 225 1720 225 1720 246 1721 c 128,-1,29
 267 1722 267 1722 288 1724 c 0,30,31
 310 1726 310 1726 331.5 1727 c 128,-1,32
 353 1728 353 1728 370 1728 c 0,33,34
 412 1728 412 1728 439 1700.5 c 128,-1,35
 466 1673 466 1673 466 1624 c 0,36,37
 466 1619 466 1619 465.5 1608 c 128,-1,38
 465 1597 465 1597 465 1581 c 0,39,40
 465 1569 465 1569 464.5 1553 c 128,-1,41
 464 1537 464 1537 464 1520 c 2,42,-1
 458 1140 l 1,43,-1
 456 1089 l 1,44,45
 491 1120 491 1120 533.5 1148 c 128,-1,46
 576 1176 576 1176 624 1197.5 c 128,-1,47
 672 1219 672 1219 723.5 1231.5 c 128,-1,48
 775 1244 775 1244 829 1244 c 0,49,50
 956 1244 956 1244 1056 1206.5 c 128,-1,51
 1156 1169 1156 1169 1224 1092.5 c 128,-1,52
 1292 1016 1292 1016 1328 899.5 c 128,-1,53
 1364 783 1364 783 1364 625 c 0,54,55
 1364 578 1364 578 1357.5 528 c 128,-1,56
 1351 478 1351 478 1339 427.5 c 128,-1,57
 1327 377 1327 377 1310 328 c 128,-1,58
 1293 279 1293 279 1272 236 c 1,59,60
 1294 244 1294 244 1316 251 c 128,-1,61
 1338 258 1338 258 1365 258 c 0,62,63
 1398 258 1398 258 1419 245.5 c 128,-1,64
 1440 233 1440 233 1452 215.5 c 128,-1,65
 1464 198 1464 198 1468 180 c 128,-1,66
 1472 162 1472 162 1472 152 c 0,67,68
 1472 114 1472 114 1449 86.5 c 128,-1,69
 1426 59 1426 59 1391 46 c 0,70,71
 1361 35 1361 35 1317 22 c 128,-1,72
 1273 9 1273 9 1228 -2 c 128,-1,73
 1183 -13 1183 -13 1143.5 -21 c 128,-1,74
 1104 -29 1104 -29 1084 -29 c 0,75,76
 1019 -29 1019 -29 990.5 3 c 128,-1,77
 962 35 962 35 962 85 c 0,78,79
 962 112 962 112 977.5 144.5 c 128,-1,80
 993 177 993 177 1014 204 c 1,81,82
 1040 241 1040 241 1062.5 290 c 128,-1,83
 1085 339 1085 339 1101.5 394.5 c 128,-1,84
 1118 450 1118 450 1127.5 509 c 128,-1,85
 1137 568 1137 568 1137 625 c 0,86,87
 1137 721 1137 721 1119.5 795.5 c 128,-1,88
 1102 870 1102 870 1063.5 921 c 128,-1,89
 1025 972 1025 972 964 999 c 128,-1,90
 903 1026 903 1026 816 1026 c 0,91,92
 766 1026 766 1026 715 1007.5 c 128,-1,93
 664 989 664 989 616.5 959 c 128,-1,94
 569 929 569 929 527 890.5 c 128,-1,95
 485 852 485 852 453 812 c 1,96,97
 451 662 451 662 450.5 512.5 c 128,-1,98
 450 363 450 363 452 208 c 1,99,100
 454 208 454 208 457.5 209 c 128,-1,101
 461 210 461 210 475 215 c 0,102,103
 484 219 484 219 494.5 222 c 128,-1,104
 505 225 505 225 518 226 c 0,105,106
 573 228 573 228 601.5 200 c 128,-1,107
 630 172 630 172 630 121 c 0,108,109
 630 103 630 103 623.5 85.5 c 128,-1,110
 617 68 617 68 606 53.5 c 128,-1,111
 595 39 595 39 579.5 29 c 128,-1,112
 564 19 564 19 546 15 c 0,113,114
 526 11 526 11 506.5 6.5 c 128,-1,115
 487 2 487 2 467 -2 c 0,116,117
 448 -6 448 -6 427 -11 c 128,-1,118
 406 -16 406 -16 386.5 -20 c 128,-1,119
 367 -24 367 -24 351 -26.5 c 128,-1,120
 335 -29 335 -29 325 -29 c 0,121,122
 265 -29 265 -29 243.5 -3 c 128,-1,123
 222 23 222 23 222 73 c 0,0,1
EndSplineSet
EndChar

StartChar: i
Encoding: 105 105 98
Width: 853
GlyphClass: 2
Flags: W
LayerCount: 2
Fore
SplineSet
459 1386 m 0,0,1
 433 1379 433 1379 407.5 1383.5 c 128,-1,2
 382 1388 382 1388 362 1402 c 128,-1,3
 342 1416 342 1416 329.5 1438 c 128,-1,4
 317 1460 317 1460 317 1489 c 0,5,6
 317 1509 317 1509 323.5 1528.5 c 128,-1,7
 330 1548 330 1548 338.5 1567 c 128,-1,8
 347 1586 347 1586 355.5 1605.5 c 128,-1,9
 364 1625 364 1625 369 1645 c 0,10,11
 379 1689 379 1689 408 1715.5 c 128,-1,12
 437 1742 437 1742 485 1742 c 0,13,14
 521 1742 521 1742 550.5 1727 c 128,-1,15
 580 1712 580 1712 589 1676 c 0,16,17
 592 1665 592 1665 593.5 1649.5 c 128,-1,18
 595 1634 595 1634 595 1623 c 0,19,20
 595 1602 595 1602 587 1580 c 128,-1,21
 579 1558 579 1558 565 1535 c 0,22,23
 554 1518 554 1518 548.5 1499.5 c 128,-1,24
 543 1481 543 1481 538 1466 c 0,25,26
 532 1450 532 1450 526.5 1437.5 c 128,-1,27
 521 1425 521 1425 512.5 1415.5 c 128,-1,28
 504 1406 504 1406 491.5 1398.5 c 128,-1,29
 479 1391 479 1391 459 1386 c 0,0,1
294 76 m 0,30,31
 294 101 294 101 296.5 118.5 c 128,-1,32
 299 136 299 136 301.5 156 c 128,-1,33
 304 176 304 176 306.5 205 c 128,-1,34
 309 234 309 234 309 282 c 0,35,36
 309 372 309 372 309 461 c 128,-1,37
 309 550 309 550 308 641 c 128,-1,38
 307 732 307 732 306 825.5 c 128,-1,39
 305 919 305 919 303 1018 c 1,40,41
 288 1017 288 1017 268.5 1016 c 128,-1,42
 249 1015 249 1015 229 1014.5 c 128,-1,43
 209 1014 209 1014 189.5 1013.5 c 128,-1,44
 170 1013 170 1013 155 1013 c 0,45,46
 137 1013 137 1013 118 1018.5 c 128,-1,47
 99 1024 99 1024 84 1037 c 128,-1,48
 69 1050 69 1050 59 1071 c 128,-1,49
 49 1092 49 1092 49 1122 c 0,50,51
 49 1176 49 1176 77.5 1203.5 c 128,-1,52
 106 1231 106 1231 146 1231 c 0,53,54
 184 1231 184 1231 222 1227.5 c 128,-1,55
 260 1224 260 1224 296 1224 c 0,56,57
 334 1224 334 1224 371 1227.5 c 128,-1,58
 408 1231 408 1231 442 1231 c 0,59,60
 493 1231 493 1231 515.5 1203.5 c 128,-1,61
 538 1176 538 1176 538 1128 c 0,62,63
 538 1087 538 1087 530.5 1047 c 128,-1,64
 523 1007 523 1007 523 962 c 0,65,66
 523 870 523 870 522 778.5 c 128,-1,67
 521 687 521 687 520.5 592 c 128,-1,68
 520 497 520 497 519.5 398 c 128,-1,69
 519 299 519 299 521 194 c 1,70,71
 537 195 537 195 553.5 199.5 c 128,-1,72
 570 204 570 204 586.5 209 c 128,-1,73
 603 214 603 214 619.5 218 c 128,-1,74
 636 222 636 222 654 222 c 0,75,76
 680 222 680 222 696.5 216 c 128,-1,77
 713 210 713 210 723 199 c 128,-1,78
 733 188 733 188 738 173 c 128,-1,79
 743 158 743 158 747 139 c 0,80,81
 751 115 751 115 744.5 96.5 c 128,-1,82
 738 78 738 78 724 63.5 c 128,-1,83
 710 49 710 49 688.5 38 c 128,-1,84
 667 27 667 27 641 19 c 1,85,86
 611 11 611 11 576 2.5 c 128,-1,87
 541 -6 541 -6 508.5 -13 c 128,-1,88
 476 -20 476 -20 449.5 -24.5 c 128,-1,89
 423 -29 423 -29 410 -29 c 0,90,91
 351 -29 351 -29 322.5 -1.5 c 128,-1,92
 294 26 294 26 294 76 c 0,30,31
EndSplineSet
EndChar

StartChar: j
Encoding: 106 106 99
Width: 853
GlyphClass: 2
Flags: W
LayerCount: 2
Fore
SplineSet
458 1379 m 0,0,1
 432 1372 432 1372 406.5 1378 c 128,-1,2
 381 1384 381 1384 361 1399.5 c 128,-1,3
 341 1415 341 1415 329 1438 c 128,-1,4
 317 1461 317 1461 317 1489 c 0,5,6
 317 1509 317 1509 323.5 1528.5 c 128,-1,7
 330 1548 330 1548 338.5 1567 c 128,-1,8
 347 1586 347 1586 355.5 1605.5 c 128,-1,9
 364 1625 364 1625 369 1645 c 0,10,11
 379 1688 379 1688 407.5 1715 c 128,-1,12
 436 1742 436 1742 485 1742 c 0,13,14
 535 1742 535 1742 565 1711.5 c 128,-1,15
 595 1681 595 1681 595 1623 c 0,16,17
 595 1602 595 1602 587 1580 c 128,-1,18
 579 1558 579 1558 565 1535 c 0,19,20
 557 1522 557 1522 550 1501.5 c 128,-1,21
 543 1481 543 1481 538 1466 c 0,22,23
 533 1450 533 1450 527.5 1436.5 c 128,-1,24
 522 1423 522 1423 513 1412 c 128,-1,25
 504 1401 504 1401 491 1392.5 c 128,-1,26
 478 1384 478 1384 458 1379 c 0,0,1
65 -307 m 0,27,28
 75 -304 75 -304 97.5 -297 c 128,-1,29
 120 -290 120 -290 155.5 -275.5 c 128,-1,30
 191 -261 191 -261 240 -239 c 128,-1,31
 289 -217 289 -217 353 -184 c 1,32,33
 352 -129 352 -129 351 -70.5 c 128,-1,34
 350 -12 350 -12 350 54 c 0,35,36
 350 187 350 187 349 324.5 c 128,-1,37
 348 462 348 462 345.5 589.5 c 128,-1,38
 343 717 343 717 339.5 828 c 128,-1,39
 336 939 336 939 332 1020 c 1,40,41
 307 1018 307 1018 282.5 1016.5 c 128,-1,42
 258 1015 258 1015 237.5 1014.5 c 128,-1,43
 217 1014 217 1014 202.5 1013.5 c 128,-1,44
 188 1013 188 1013 183 1013 c 0,45,46
 165 1013 165 1013 145.5 1018 c 128,-1,47
 126 1023 126 1023 110.5 1036 c 128,-1,48
 95 1049 95 1049 85 1069.5 c 128,-1,49
 75 1090 75 1090 75 1122 c 0,50,51
 75 1174 75 1174 103.5 1202 c 128,-1,52
 132 1230 132 1230 173 1230 c 0,53,54
 188 1230 188 1230 199 1229 c 128,-1,55
 210 1228 210 1228 221.5 1227 c 128,-1,56
 233 1226 233 1226 246 1225 c 128,-1,57
 259 1224 259 1224 279 1225 c 1,58,59
 322 1225 322 1225 367 1227 c 128,-1,60
 412 1229 412 1229 467 1229 c 0,61,62
 503 1229 503 1229 524.5 1218 c 128,-1,63
 546 1207 546 1207 556.5 1191 c 128,-1,64
 567 1175 567 1175 570 1157 c 128,-1,65
 573 1139 573 1139 573 1125 c 0,66,67
 573 1088 573 1088 567.5 1051.5 c 128,-1,68
 562 1015 562 1015 562 973 c 0,69,70
 562 898 562 898 562 829 c 128,-1,71
 562 760 562 760 562.5 689 c 128,-1,72
 563 618 563 618 564 541.5 c 128,-1,73
 565 465 565 465 566 376.5 c 128,-1,74
 567 288 567 288 568 183.5 c 128,-1,75
 569 79 569 79 571 -49 c 0,76,77
 571 -90 571 -90 574.5 -131 c 128,-1,78
 578 -172 578 -172 581 -219 c 1,79,80
 581 -257 581 -257 566.5 -289.5 c 128,-1,81
 552 -322 552 -322 517 -338 c 1,82,-1
 517 -337 l 1,83,84
 428 -382 428 -382 352.5 -419.5 c 128,-1,85
 277 -457 277 -457 203 -486 c 1,86,87
 170 -509 170 -509 146.5 -517.5 c 128,-1,88
 123 -526 123 -526 100 -526 c 0,89,90
 75 -526 75 -526 53 -520 c 128,-1,91
 31 -514 31 -514 15 -500 c 128,-1,92
 -1 -486 -1 -486 -10 -464 c 128,-1,93
 -19 -442 -19 -442 -19 -409 c 0,94,95
 -19 -368 -19 -368 4 -344 c 128,-1,96
 27 -320 27 -320 65 -307 c 0,27,28
EndSplineSet
EndChar

StartChar: k
Encoding: 107 107 100
Width: 1536
GlyphClass: 2
Flags: W
LayerCount: 2
Fore
SplineSet
205 71 m 0,0,1
 205 122 205 122 212 171.5 c 128,-1,2
 219 221 219 221 219 277 c 0,3,4
 219 336 219 336 218.5 425 c 128,-1,5
 218 514 218 514 217 620.5 c 128,-1,6
 216 727 216 727 215 845 c 128,-1,7
 214 963 214 963 212.5 1080.5 c 128,-1,8
 211 1198 211 1198 209.5 1309.5 c 128,-1,9
 208 1421 208 1421 207 1514 c 1,10,11
 194 1512 194 1512 176 1510.5 c 128,-1,12
 158 1509 158 1509 134 1509 c 0,13,14
 116 1509 116 1509 97 1515 c 128,-1,15
 78 1521 78 1521 63 1534 c 128,-1,16
 48 1547 48 1547 38 1568 c 128,-1,17
 28 1589 28 1589 28 1619 c 0,18,19
 28 1673 28 1673 56.5 1700.5 c 128,-1,20
 85 1728 85 1728 124 1728 c 0,21,22
 140 1728 140 1728 155.5 1724 c 128,-1,23
 171 1720 171 1720 188 1720 c 0,24,25
 228 1720 228 1720 268 1724 c 128,-1,26
 308 1728 308 1728 353 1728 c 0,27,28
 395 1728 395 1728 422 1700.5 c 128,-1,29
 449 1673 449 1673 449 1624 c 1,30,31
 447 1597 447 1597 444.5 1573.5 c 128,-1,32
 442 1550 442 1550 440 1523 c 128,-1,33
 438 1496 438 1496 436 1461.5 c 128,-1,34
 434 1427 434 1427 434 1378 c 2,35,-1
 429 1003 l 1,36,37
 468 1052 468 1052 517.5 1095.5 c 128,-1,38
 567 1139 567 1139 624.5 1172 c 128,-1,39
 682 1205 682 1205 744.5 1224.5 c 128,-1,40
 807 1244 807 1244 872 1244 c 0,41,42
 975 1244 975 1244 1052 1217 c 128,-1,43
 1129 1190 1129 1190 1180.5 1142 c 128,-1,44
 1232 1094 1232 1094 1258 1027.5 c 128,-1,45
 1284 961 1284 961 1284 883 c 0,46,47
 1284 815 1284 815 1265 758.5 c 128,-1,48
 1246 702 1246 702 1215.5 656.5 c 128,-1,49
 1185 611 1185 611 1145 576.5 c 128,-1,50
 1105 542 1105 542 1063 520 c 1,51,52
 1106 484 1106 484 1130 437 c 128,-1,53
 1154 390 1154 390 1168 336 c 0,54,55
 1174 315 1174 315 1181.5 291 c 128,-1,56
 1189 267 1189 267 1198.5 246 c 128,-1,57
 1208 225 1208 225 1220.5 211.5 c 128,-1,58
 1233 198 1233 198 1249 198 c 0,59,60
 1276 198 1276 198 1302.5 207.5 c 128,-1,61
 1329 217 1329 217 1358 217 c 0,62,63
 1402 217 1402 217 1432 187 c 128,-1,64
 1462 157 1462 157 1462 103 c 0,65,66
 1462 59 1462 59 1439.5 33 c 128,-1,67
 1417 7 1417 7 1382 -7.5 c 128,-1,68
 1347 -22 1347 -22 1305 -26.5 c 128,-1,69
 1263 -31 1263 -31 1225 -31 c 0,70,71
 1154 -31 1154 -31 1108.5 -5.5 c 128,-1,72
 1063 20 1063 20 1034 60 c 128,-1,73
 1005 100 1005 100 987.5 149.5 c 128,-1,74
 970 199 970 199 956 247 c 0,75,76
 946 281 946 281 936 312 c 128,-1,77
 926 343 926 343 912.5 366 c 128,-1,78
 899 389 899 389 880.5 403 c 128,-1,79
 862 417 862 417 835 417 c 0,80,81
 759 417 759 417 721 440 c 128,-1,82
 683 463 683 463 683 524 c 0,83,84
 683 578 683 578 718 606 c 128,-1,85
 753 634 753 634 810 634 c 0,86,87
 824 634 824 634 834.5 632.5 c 128,-1,88
 845 631 845 631 857 629 c 1,89,90
 881 639 881 639 914 657 c 128,-1,91
 947 675 947 675 977 703 c 128,-1,92
 1007 731 1007 731 1028 771 c 128,-1,93
 1049 811 1049 811 1049 865 c 0,94,95
 1049 951 1049 951 993 988.5 c 128,-1,96
 937 1026 937 1026 837 1026 c 0,97,98
 771 1026 771 1026 707 992 c 128,-1,99
 643 958 643 958 589 900.5 c 128,-1,100
 535 843 535 843 493 768 c 128,-1,101
 451 693 451 693 428 612 c 1,102,-1
 431 481 l 2,103,104
 431 472 431 472 431 460.5 c 128,-1,105
 431 449 431 449 431.5 421 c 128,-1,106
 432 393 432 393 433 343.5 c 128,-1,107
 434 294 434 294 435 209 c 1,108,109
 451 213 451 213 467.5 218.5 c 128,-1,110
 484 224 484 224 501 224 c 0,111,112
 557 224 557 224 585 197 c 128,-1,113
 613 170 613 170 613 119 c 0,114,115
 613 81 613 81 598 58 c 128,-1,116
 583 35 583 35 559.5 22.5 c 128,-1,117
 536 10 536 10 507.5 5 c 128,-1,118
 479 0 479 0 453 -3 c 0,119,120
 417 -7 417 -7 381.5 -18 c 128,-1,121
 346 -29 346 -29 308 -29 c 0,122,123
 248 -29 248 -29 226.5 -4 c 128,-1,124
 205 21 205 21 205 71 c 0,0,1
EndSplineSet
EndChar

StartChar: l
Encoding: 108 108 101
Width: 853
GlyphClass: 2
Flags: W
LayerCount: 2
Fore
SplineSet
280 104 m 0,0,1
 280 167 280 167 283 236 c 0,2,3
 285 273 285 273 286 319 c 128,-1,4
 287 365 287 365 287 410 c 0,5,6
 287 441 287 441 286.5 501.5 c 128,-1,7
 286 562 286 562 285.5 645.5 c 128,-1,8
 285 729 285 729 283.5 831 c 128,-1,9
 282 933 282 933 280.5 1045.5 c 128,-1,10
 279 1158 279 1158 277.5 1278.5 c 128,-1,11
 276 1399 276 1399 274 1519 c 1,12,13
 234 1518 234 1518 193.5 1514.5 c 128,-1,14
 153 1511 153 1511 111 1511 c 0,15,16
 93 1511 93 1511 74 1517 c 128,-1,17
 55 1523 55 1523 40 1536 c 128,-1,18
 25 1549 25 1549 15 1570 c 128,-1,19
 5 1591 5 1591 5 1621 c 0,20,21
 5 1675 5 1675 33.5 1702.5 c 128,-1,22
 62 1730 62 1730 101 1730 c 0,23,24
 136 1730 136 1730 170.5 1726 c 128,-1,25
 205 1722 205 1722 243 1722 c 0,26,27
 271 1722 271 1722 292 1723 c 128,-1,28
 313 1724 313 1724 333 1725.5 c 128,-1,29
 353 1727 353 1727 375.5 1728.5 c 128,-1,30
 398 1730 398 1730 429 1730 c 0,31,32
 472 1730 472 1730 498.5 1703.5 c 128,-1,33
 525 1677 525 1677 525 1621 c 0,34,35
 525 1601 525 1601 521.5 1582 c 128,-1,36
 518 1563 518 1563 513.5 1543.5 c 128,-1,37
 509 1524 509 1524 505.5 1504.5 c 128,-1,38
 502 1485 502 1485 501 1464 c 1,39,-1
 501 210 l 1,40,41
 542 222 542 222 567 228 c 128,-1,42
 592 234 592 234 610 234 c 0,43,44
 716 234 716 234 716 123 c 0,45,46
 716 78 716 78 685 53 c 128,-1,47
 654 28 654 28 597 14 c 2,48,-1
 496 -12 l 2,49,50
 479 -17 479 -17 466 -20.5 c 128,-1,51
 453 -24 453 -24 442 -26 c 128,-1,52
 431 -28 431 -28 421.5 -28.5 c 128,-1,53
 412 -29 412 -29 401 -29 c 0,54,55
 369 -29 369 -29 346 -17 c 128,-1,56
 323 -5 323 -5 308.5 14.5 c 128,-1,57
 294 34 294 34 287 57.5 c 128,-1,58
 280 81 280 81 280 104 c 0,0,1
EndSplineSet
EndChar

StartChar: m
Encoding: 109 109 102
Width: 2391
GlyphClass: 2
Flags: W
LayerCount: 2
Fore
SplineSet
295 74 m 0,0,1
 295 125 295 125 302.5 174.5 c 128,-1,2
 310 224 310 224 310 280 c 0,3,4
 310 322 310 322 309.5 362 c 128,-1,5
 309 402 309 402 308.5 447.5 c 128,-1,6
 308 493 308 493 307 547 c 128,-1,7
 306 601 306 601 304.5 669.5 c 128,-1,8
 303 738 303 738 301 825 c 128,-1,9
 299 912 299 912 297 1024 c 1,10,11
 284 1022 284 1022 267 1020.5 c 128,-1,12
 250 1019 250 1019 225 1019 c 0,13,14
 207 1019 207 1019 188 1025 c 128,-1,15
 169 1031 169 1031 153.5 1043.5 c 128,-1,16
 138 1056 138 1056 128 1077 c 128,-1,17
 118 1098 118 1098 118 1128 c 0,18,19
 118 1183 118 1183 146.5 1210.5 c 128,-1,20
 175 1238 175 1238 215 1238 c 0,21,22
 231 1238 231 1238 246.5 1234 c 128,-1,23
 262 1230 262 1230 279 1230 c 0,24,25
 319 1230 319 1230 359 1234 c 128,-1,26
 399 1238 399 1238 443 1238 c 256,27,28
 487 1238 487 1238 503.5 1211 c 128,-1,29
 520 1184 520 1184 520 1134 c 2,30,-1
 520 1114 l 1,31,32
 560 1147 560 1147 603 1171.5 c 128,-1,33
 646 1196 646 1196 689 1212 c 128,-1,34
 732 1228 732 1228 774 1236 c 128,-1,35
 816 1244 816 1244 854 1244 c 0,36,37
 980 1244 980 1244 1078 1207.5 c 128,-1,38
 1176 1171 1176 1171 1245 1100 c 1,39,40
 1331 1171 1331 1171 1427.5 1207.5 c 128,-1,41
 1524 1244 1524 1244 1607 1244 c 0,42,43
 1734 1244 1734 1244 1838 1206 c 128,-1,44
 1942 1168 1942 1168 2016.5 1094.5 c 128,-1,45
 2091 1021 2091 1021 2131.5 913.5 c 128,-1,46
 2172 806 2172 806 2172 666 c 0,47,48
 2172 622 2172 622 2165.5 565.5 c 128,-1,49
 2159 509 2159 509 2147.5 450 c 128,-1,50
 2136 391 2136 391 2120.5 334 c 128,-1,51
 2105 277 2105 277 2086 231 c 1,52,53
 2099 235 2099 235 2107 236 c 128,-1,54
 2115 237 2115 237 2121 237 c 0,55,56
 2156 237 2156 237 2177.5 224 c 128,-1,57
 2199 211 2199 211 2210.5 193 c 128,-1,58
 2222 175 2222 175 2225.5 155 c 128,-1,59
 2229 135 2229 135 2229 122 c 0,60,61
 2229 90 2229 90 2218 71 c 128,-1,62
 2207 52 2207 52 2179 38 c 128,-1,63
 2151 24 2151 24 2104.5 13 c 128,-1,64
 2058 2 2058 2 1986 -13 c 1,65,66
 1954 -21 1954 -21 1935 -26 c 128,-1,67
 1916 -31 1916 -31 1899 -31 c 0,68,69
 1834 -31 1834 -31 1805.5 3.5 c 128,-1,70
 1777 38 1777 38 1777 87 c 0,71,72
 1777 113 1777 113 1791 146 c 128,-1,73
 1805 179 1805 179 1828 205 c 1,74,75
 1854 243 1854 243 1875 298.5 c 128,-1,76
 1896 354 1896 354 1910.5 416.5 c 128,-1,77
 1925 479 1925 479 1933 544 c 128,-1,78
 1941 609 1941 609 1941 666 c 0,79,80
 1941 747 1941 747 1921 813.5 c 128,-1,81
 1901 880 1901 880 1859.5 927.5 c 128,-1,82
 1818 975 1818 975 1754 1001 c 128,-1,83
 1690 1027 1690 1027 1602 1027 c 0,84,85
 1558 1027 1558 1027 1523 1020.5 c 128,-1,86
 1488 1014 1488 1014 1458 1002 c 128,-1,87
 1428 990 1428 990 1402 971.5 c 128,-1,88
 1376 953 1376 953 1349 929 c 1,89,90
 1391 816 1391 816 1391 666 c 0,91,92
 1391 620 1391 620 1385 562.5 c 128,-1,93
 1379 505 1379 505 1367.5 444.5 c 128,-1,94
 1356 384 1356 384 1339 325 c 128,-1,95
 1322 266 1322 266 1301 218 c 1,96,97
 1317 221 1317 221 1334 227.5 c 128,-1,98
 1351 234 1351 234 1372 234 c 0,99,100
 1406 234 1406 234 1426 221 c 128,-1,101
 1446 208 1446 208 1457 189 c 128,-1,102
 1468 170 1468 170 1471.5 148.5 c 128,-1,103
 1475 127 1475 127 1475 110 c 0,104,105
 1475 78 1475 78 1462.5 59 c 128,-1,106
 1450 40 1450 40 1429.5 29.5 c 128,-1,107
 1409 19 1409 19 1382.5 14.5 c 128,-1,108
 1356 10 1356 10 1329 7 c 128,-1,109
 1302 4 1302 4 1276 -0.5 c 128,-1,110
 1250 -5 1250 -5 1230 -15 c 0,111,112
 1227 -17 1227 -17 1216 -19.5 c 128,-1,113
 1205 -22 1205 -22 1192 -24.5 c 128,-1,114
 1179 -27 1179 -27 1166.5 -29 c 128,-1,115
 1154 -31 1154 -31 1147 -31 c 0,116,117
 1114 -31 1114 -31 1091 -19 c 128,-1,118
 1068 -7 1068 -7 1053.5 12 c 128,-1,119
 1039 31 1039 31 1032 54 c 128,-1,120
 1025 77 1025 77 1025 100 c 0,121,122
 1025 126 1025 126 1033 153 c 128,-1,123
 1041 180 1041 180 1055 203 c 1,124,125
 1077 244 1077 244 1096.5 299.5 c 128,-1,126
 1116 355 1116 355 1130 417 c 128,-1,127
 1144 479 1144 479 1152 543.5 c 128,-1,128
 1160 608 1160 608 1160 666 c 0,129,130
 1160 747 1160 747 1144 813.5 c 128,-1,131
 1128 880 1128 880 1092 927.5 c 128,-1,132
 1056 975 1056 975 996.5 1001 c 128,-1,133
 937 1027 937 1027 850 1027 c 0,134,135
 764 1027 764 1027 682.5 990.5 c 128,-1,136
 601 954 601 954 520 873 c 1,137,138
 520 828 520 828 519.5 760.5 c 128,-1,139
 519 693 519 693 519 618.5 c 128,-1,140
 519 544 519 544 519 470 c 128,-1,141
 519 396 519 396 519.5 337.5 c 128,-1,142
 520 279 520 279 520.5 243 c 128,-1,143
 521 207 521 207 522 210 c 1,144,145
 541 215 541 215 552.5 218.5 c 128,-1,146
 564 222 564 222 571.5 224 c 128,-1,147
 579 226 579 226 583 226.5 c 128,-1,148
 587 227 587 227 592 227 c 0,149,150
 647 227 647 227 675 200 c 128,-1,151
 703 173 703 173 703 122 c 0,152,153
 703 84 703 84 688 61.5 c 128,-1,154
 673 39 673 39 649.5 26 c 128,-1,155
 626 13 626 13 597 7.5 c 128,-1,156
 568 2 568 2 540 -1 c 0,157,158
 523 -3 523 -3 505 -8 c 128,-1,159
 487 -13 487 -13 468.5 -18 c 128,-1,160
 450 -23 450 -23 432 -27 c 128,-1,161
 414 -31 414 -31 399 -31 c 0,162,163
 339 -31 339 -31 317 -3.5 c 128,-1,164
 295 24 295 24 295 74 c 0,0,1
EndSplineSet
EndChar

StartChar: n
Encoding: 110 110 103
Width: 1700
GlyphClass: 2
Flags: W
LayerCount: 2
Fore
SplineSet
291 75 m 0,0,1
 291 93 291 93 292.5 112 c 128,-1,2
 294 131 294 131 296 150 c 0,3,4
 299 177 299 177 302 209 c 128,-1,5
 305 241 305 241 305 282 c 0,6,7
 305 361 305 361 304.5 431 c 128,-1,8
 304 501 304 501 302 576 c 0,9,10
 302 578 302 578 302 582.5 c 128,-1,11
 302 587 302 587 301.5 601 c 128,-1,12
 301 615 301 615 300.5 642.5 c 128,-1,13
 300 670 300 670 299 719 c 128,-1,14
 298 768 298 768 296.5 842.5 c 128,-1,15
 295 917 295 917 293 1024 c 1,16,17
 280 1022 280 1022 262 1020.5 c 128,-1,18
 244 1019 244 1019 220 1019 c 0,19,20
 202 1019 202 1019 183 1025 c 128,-1,21
 164 1031 164 1031 149 1043.5 c 128,-1,22
 134 1056 134 1056 124 1077 c 128,-1,23
 114 1098 114 1098 114 1128 c 0,24,25
 114 1183 114 1183 142 1210.5 c 128,-1,26
 170 1238 170 1238 210 1238 c 0,27,28
 226 1238 226 1238 241.5 1234 c 128,-1,29
 257 1230 257 1230 274 1230 c 0,30,31
 294 1230 294 1230 315 1231 c 128,-1,32
 336 1232 336 1232 357 1234 c 0,33,34
 379 1236 379 1236 400.5 1237 c 128,-1,35
 422 1238 422 1238 439 1238 c 0,36,37
 481 1238 481 1238 508 1211 c 128,-1,38
 535 1184 535 1184 535 1134 c 0,39,40
 535 1122 535 1122 534.5 1106 c 128,-1,41
 534 1090 534 1090 532 1074 c 1,42,43
 567 1107 567 1107 610.5 1137.5 c 128,-1,44
 654 1168 654 1168 705 1192 c 128,-1,45
 756 1216 756 1216 814.5 1230 c 128,-1,46
 873 1244 873 1244 938 1244 c 0,47,48
 1066 1244 1066 1244 1163 1202.5 c 128,-1,49
 1260 1161 1260 1161 1325 1081.5 c 128,-1,50
 1390 1002 1390 1002 1423 887 c 128,-1,51
 1456 772 1456 772 1456 625 c 0,52,53
 1456 581 1456 581 1450 532.5 c 128,-1,54
 1444 484 1444 484 1433 435 c 128,-1,55
 1422 386 1422 386 1407.5 338.5 c 128,-1,56
 1393 291 1393 291 1375 248 c 1,57,58
 1398 256 1398 256 1419 261 c 128,-1,59
 1440 266 1440 266 1454 268 c 0,60,61
 1510 273 1510 273 1539 247 c 128,-1,62
 1568 221 1568 221 1568 165 c 0,63,64
 1568 150 1568 150 1564.5 133.5 c 128,-1,65
 1561 117 1561 117 1552 101.5 c 128,-1,66
 1543 86 1543 86 1527 72.5 c 128,-1,67
 1511 59 1511 59 1486 50 c 1,68,-1
 1377 24 l 1,69,70
 1326 9 1326 9 1295 -1.5 c 128,-1,71
 1264 -12 1264 -12 1243.5 -18.5 c 128,-1,72
 1223 -25 1223 -25 1209 -27.5 c 128,-1,73
 1195 -30 1195 -30 1178 -29 c 1,74,75
 1154 -29 1154 -29 1135.5 -17.5 c 128,-1,76
 1117 -6 1117 -6 1105 11.5 c 128,-1,77
 1093 29 1093 29 1087 50.5 c 128,-1,78
 1081 72 1081 72 1081 92 c 0,79,80
 1081 124 1081 124 1090 157.5 c 128,-1,81
 1099 191 1099 191 1122 218 c 0,82,83
 1151 254 1151 254 1170.5 299.5 c 128,-1,84
 1190 345 1190 345 1202 397.5 c 128,-1,85
 1214 450 1214 450 1219.5 507.5 c 128,-1,86
 1225 565 1225 565 1225 625 c 0,87,88
 1225 694 1225 694 1210.5 765 c 128,-1,89
 1196 836 1196 836 1161 894 c 128,-1,90
 1126 952 1126 952 1068.5 989 c 128,-1,91
 1011 1026 1011 1026 926 1026 c 0,92,93
 866 1026 866 1026 809 1007 c 128,-1,94
 752 988 752 988 700 957.5 c 128,-1,95
 648 927 648 927 603 887.5 c 128,-1,96
 558 848 558 848 523 806 c 1,97,98
 522 761 522 761 521.5 715 c 128,-1,99
 521 669 521 669 521 623 c 1,100,101
 519 545 519 545 518 467 c 128,-1,102
 517 389 517 389 517 309 c 0,103,104
 517 286 517 286 517 262 c 128,-1,105
 517 238 517 238 519 212 c 1,106,-1
 546 220 l 2,107,108
 557 223 557 223 568 225.5 c 128,-1,109
 579 228 579 228 587 228 c 0,110,111
 642 228 642 228 670 201 c 128,-1,112
 698 174 698 174 698 123 c 0,113,114
 698 85 698 85 683 62 c 128,-1,115
 668 39 668 39 644.5 26.5 c 128,-1,116
 621 14 621 14 593 9 c 128,-1,117
 565 4 565 4 539 1 c 0,118,119
 525 -1 525 -1 512 -2.5 c 128,-1,120
 499 -4 499 -4 490 -7 c 0,121,122
 457 -16 457 -16 434 -22.5 c 128,-1,123
 411 -29 411 -29 394 -29 c 0,124,125
 334 -29 334 -29 312.5 -2 c 128,-1,126
 291 25 291 25 291 75 c 0,0,1
EndSplineSet
EndChar

StartChar: o
Encoding: 111 111 104
Width: 1535
GlyphClass: 2
Flags: W
LayerCount: 2
Fore
SplineSet
129 609 m 0,0,1
 129 697 129 697 151.5 778 c 128,-1,2
 174 859 174 859 214.5 929.5 c 128,-1,3
 255 1000 255 1000 312.5 1058 c 128,-1,4
 370 1116 370 1116 439.5 1157.5 c 128,-1,5
 509 1199 509 1199 589 1221.5 c 128,-1,6
 669 1244 669 1244 756 1244 c 0,7,8
 898 1244 898 1244 1014 1194 c 128,-1,9
 1130 1144 1130 1144 1212.5 1058 c 128,-1,10
 1295 972 1295 972 1339.5 856.5 c 128,-1,11
 1384 741 1384 741 1384 609 c 0,12,13
 1384 465 1384 465 1333.5 347.5 c 128,-1,14
 1283 230 1283 230 1197.5 146 c 128,-1,15
 1112 62 1112 62 997.5 16.5 c 128,-1,16
 883 -29 883 -29 756 -29 c 0,17,18
 628 -29 628 -29 514.5 16.5 c 128,-1,19
 401 62 401 62 315 146 c 128,-1,20
 229 230 229 230 179 347.5 c 128,-1,21
 129 465 129 465 129 609 c 0,0,1
362 609 m 0,22,23
 362 513 362 513 389.5 435 c 128,-1,24
 417 357 417 357 468 302.5 c 128,-1,25
 519 248 519 248 591.5 218 c 128,-1,26
 664 188 664 188 755 188 c 0,27,28
 836 188 836 188 908 215 c 128,-1,29
 980 242 980 242 1034 295.5 c 128,-1,30
 1088 349 1088 349 1119.5 427.5 c 128,-1,31
 1151 506 1151 506 1151 609 c 0,32,33
 1151 694 1151 694 1124.5 770 c 128,-1,34
 1098 846 1098 846 1047 903 c 128,-1,35
 996 960 996 960 922.5 993 c 128,-1,36
 849 1026 849 1026 755 1026 c 0,37,38
 662 1026 662 1026 588.5 993 c 128,-1,39
 515 960 515 960 465 903 c 128,-1,40
 415 846 415 846 388.5 770 c 128,-1,41
 362 694 362 694 362 609 c 0,22,23
EndSplineSet
EndChar

StartChar: p
Encoding: 112 112 105
Width: 1533
GlyphClass: 2
Flags: W
LayerCount: 2
Fore
SplineSet
416 -73 m 2,0,1
 417 -118 417 -118 417.5 -168.5 c 128,-1,2
 418 -219 418 -219 418.5 -267.5 c 128,-1,3
 419 -316 419 -316 419.5 -358 c 128,-1,4
 420 -400 420 -400 420 -428 c 0,5,6
 420 -455 420 -455 409.5 -472 c 128,-1,7
 399 -489 399 -489 382.5 -498.5 c 128,-1,8
 366 -508 366 -508 345.5 -512 c 128,-1,9
 325 -516 325 -516 306 -516 c 0,10,11
 285 -516 285 -516 266 -512.5 c 128,-1,12
 247 -509 247 -509 233.5 -499 c 128,-1,13
 220 -489 220 -489 212 -472.5 c 128,-1,14
 204 -456 204 -456 204 -429 c 2,15,-1
 204 556 l 2,16,17
 204 619 204 619 204 694.5 c 128,-1,18
 204 770 204 770 203.5 839.5 c 128,-1,19
 203 909 203 909 201.5 963 c 128,-1,20
 200 1017 200 1017 198 1037 c 1,21,22
 190 1037 190 1037 171 1033.5 c 128,-1,23
 152 1030 152 1030 135 1030 c 0,24,25
 117 1030 117 1030 98.5 1035 c 128,-1,26
 80 1040 80 1040 64.5 1052 c 128,-1,27
 49 1064 49 1064 39 1084.5 c 128,-1,28
 29 1105 29 1105 29 1136 c 0,29,30
 29 1168 29 1168 36.5 1188.5 c 128,-1,31
 44 1209 44 1209 58 1220.5 c 128,-1,32
 72 1232 72 1232 93 1236 c 128,-1,33
 114 1240 114 1240 140 1240 c 0,34,35
 162 1240 162 1240 184 1237 c 128,-1,36
 206 1234 206 1234 230 1234 c 0,37,38
 252 1234 252 1234 274 1237 c 128,-1,39
 296 1240 296 1240 323 1240 c 0,40,41
 368 1240 368 1240 394 1218.5 c 128,-1,42
 420 1197 420 1197 420 1151 c 0,43,44
 420 1130 420 1130 416.5 1109 c 128,-1,45
 413 1088 413 1088 411 1066 c 1,46,47
 442 1105 442 1105 484.5 1138 c 128,-1,48
 527 1171 527 1171 577.5 1194.5 c 128,-1,49
 628 1218 628 1218 685.5 1231 c 128,-1,50
 743 1244 743 1244 806 1244 c 0,51,52
 937 1244 937 1244 1045 1201 c 128,-1,53
 1153 1158 1153 1158 1230.5 1077.5 c 128,-1,54
 1308 997 1308 997 1350.5 881 c 128,-1,55
 1393 765 1393 765 1393 619 c 0,56,57
 1393 482 1393 482 1353 364 c 128,-1,58
 1313 246 1313 246 1236 158.5 c 128,-1,59
 1159 71 1159 71 1047 21 c 128,-1,60
 935 -29 935 -29 790 -29 c 0,61,62
 679 -29 679 -29 579.5 10.5 c 128,-1,63
 480 50 480 50 412 122 c 1,64,-1
 416 -73 l 2,0,1
410 530 m 1,65,66
 422 456 422 456 453.5 393.5 c 128,-1,67
 485 331 485 331 530.5 285.5 c 128,-1,68
 576 240 576 240 633.5 214 c 128,-1,69
 691 188 691 188 754 188 c 0,70,71
 856 188 856 188 931 217.5 c 128,-1,72
 1006 247 1006 247 1055.5 302 c 128,-1,73
 1105 357 1105 357 1129 436.5 c 128,-1,74
 1153 516 1153 516 1153 616 c 0,75,76
 1153 701 1153 701 1128.5 776 c 128,-1,77
 1104 851 1104 851 1057.5 906.5 c 128,-1,78
 1011 962 1011 962 943.5 994 c 128,-1,79
 876 1026 876 1026 790 1026 c 0,80,81
 720 1026 720 1026 655.5 993 c 128,-1,82
 591 960 591 960 539.5 904.5 c 128,-1,83
 488 849 488 849 454 776 c 128,-1,84
 420 703 420 703 410 622 c 1,85,-1
 410 530 l 1,65,66
EndSplineSet
EndChar

StartChar: q
Encoding: 113 113 106
Width: 1533
GlyphClass: 2
Flags: W
LayerCount: 2
Fore
SplineSet
96 609 m 0,0,1
 96 695 96 695 117 776 c 128,-1,2
 138 857 138 857 177.5 927.5 c 128,-1,3
 217 998 217 998 272.5 1056.5 c 128,-1,4
 328 1115 328 1115 397 1156.5 c 128,-1,5
 466 1198 466 1198 547 1221 c 128,-1,6
 628 1244 628 1244 717 1244 c 0,7,8
 789 1244 789 1244 849.5 1232.5 c 128,-1,9
 910 1221 910 1221 961 1198.5 c 128,-1,10
 1012 1176 1012 1176 1055 1143 c 128,-1,11
 1098 1110 1098 1110 1135 1067 c 1,12,13
 1149 1116 1149 1116 1174.5 1145 c 128,-1,14
 1200 1174 1200 1174 1239 1174 c 0,15,16
 1299 1174 1299 1174 1329.5 1140 c 128,-1,17
 1360 1106 1360 1106 1360 1053 c 0,18,19
 1360 1004 1360 1004 1348 955 c 1,20,21
 1348 929 1348 929 1347.5 897.5 c 128,-1,22
 1347 866 1347 866 1346 834 c 0,23,24
 1345 810 1345 810 1344.5 782.5 c 128,-1,25
 1344 755 1344 755 1343.5 709.5 c 128,-1,26
 1343 664 1343 664 1343 592.5 c 128,-1,27
 1343 521 1343 521 1342.5 408.5 c 128,-1,28
 1342 296 1342 296 1342 136 c 128,-1,29
 1342 -24 1342 -24 1342 -246 c 1,30,31
 1376 -224 1376 -224 1408 -208.5 c 128,-1,32
 1440 -193 1440 -193 1468 -193 c 0,33,34
 1516 -193 1516 -193 1548 -218.5 c 128,-1,35
 1580 -244 1580 -244 1580 -293 c 0,36,37
 1580 -322 1580 -322 1574 -341.5 c 128,-1,38
 1568 -361 1568 -361 1556.5 -376 c 128,-1,39
 1545 -391 1545 -391 1527.5 -403 c 128,-1,40
 1510 -415 1510 -415 1487 -428 c 1,41,-1
 1375 -481 l 1,42,43
 1359 -494 1359 -494 1345 -501 c 128,-1,44
 1331 -508 1331 -508 1316.5 -511.5 c 128,-1,45
 1302 -515 1302 -515 1287 -515.5 c 128,-1,46
 1272 -516 1272 -516 1254 -516 c 0,47,48
 1228 -516 1228 -516 1204 -507 c 128,-1,49
 1180 -498 1180 -498 1162 -478 c 128,-1,50
 1144 -458 1144 -458 1133 -427 c 128,-1,51
 1122 -396 1122 -396 1122 -352 c 2,52,-1
 1122 139 l 1,53,54
 1047 63 1047 63 937 17 c 128,-1,55
 827 -29 827 -29 698 -29 c 0,56,57
 568 -29 568 -29 457.5 16.5 c 128,-1,58
 347 62 347 62 267 146 c 128,-1,59
 187 230 187 230 141.5 347.5 c 128,-1,60
 96 465 96 465 96 609 c 0,0,1
319 609 m 0,61,62
 319 515 319 515 349 437.5 c 128,-1,63
 379 360 379 360 431.5 304.5 c 128,-1,64
 484 249 484 249 554.5 218.5 c 128,-1,65
 625 188 625 188 705 188 c 0,66,67
 780 188 780 188 847.5 213 c 128,-1,68
 915 238 915 238 969.5 283 c 128,-1,69
 1024 328 1024 328 1063 390 c 128,-1,70
 1102 452 1102 452 1119 526 c 1,71,-1
 1115 702 l 1,72,73
 1099 765 1099 765 1065 823.5 c 128,-1,74
 1031 882 1031 882 980 927 c 128,-1,75
 929 972 929 972 862 999 c 128,-1,76
 795 1026 795 1026 714 1026 c 0,77,78
 620 1026 620 1026 546.5 990.5 c 128,-1,79
 473 955 473 955 422.5 897 c 128,-1,80
 372 839 372 839 345.5 763.5 c 128,-1,81
 319 688 319 688 319 609 c 0,61,62
EndSplineSet
EndChar

StartChar: r
Encoding: 114 114 107
Width: 1193
GlyphClass: 2
Flags: W
LayerCount: 2
Fore
SplineSet
145 90 m 0,0,1
 145 125 145 125 146 160.5 c 128,-1,2
 147 196 147 196 148 238 c 1,3,-1
 148 1017 l 2,4,5
 148 1046 148 1046 142 1074.5 c 128,-1,6
 136 1103 136 1103 136 1134 c 0,7,8
 136 1188 136 1188 174.5 1216 c 128,-1,9
 213 1244 213 1244 278 1244 c 0,10,11
 306 1244 306 1244 327.5 1234.5 c 128,-1,12
 349 1225 349 1225 363.5 1210 c 128,-1,13
 378 1195 378 1195 385 1175.5 c 128,-1,14
 392 1156 392 1156 392 1136 c 0,15,16
 392 1121 392 1121 389.5 1106 c 128,-1,17
 387 1091 387 1091 385 1076 c 1,18,19
 539 1113 539 1113 647.5 1140.5 c 128,-1,20
 756 1168 756 1168 817 1188 c 1,21,22
 830 1211 830 1211 854 1227.5 c 128,-1,23
 878 1244 878 1244 916 1244 c 0,24,25
 972 1244 972 1244 1004.5 1215.5 c 128,-1,26
 1037 1187 1037 1187 1037 1143 c 0,27,28
 1037 1126 1037 1126 1035 1108 c 128,-1,29
 1033 1090 1033 1090 1033 1072 c 1,30,31
 1027 1010 1027 1010 1030.5 946.5 c 128,-1,32
 1034 883 1034 883 1039 818 c 0,33,34
 1041 798 1041 798 1041.5 775 c 128,-1,35
 1042 752 1042 752 1042 729 c 0,36,37
 1042 705 1042 705 1030 689 c 128,-1,38
 1018 673 1018 673 999 663 c 128,-1,39
 980 653 980 653 958 649 c 128,-1,40
 936 645 936 645 915 645 c 0,41,42
 885 645 885 645 864.5 655.5 c 128,-1,43
 844 666 844 666 831.5 683 c 128,-1,44
 819 700 819 700 813.5 720.5 c 128,-1,45
 808 741 808 741 808 762 c 0,46,47
 808 808 808 808 809 856 c 128,-1,48
 810 904 810 904 811 962 c 1,49,50
 772 952 772 952 705 937 c 128,-1,51
 638 922 638 922 558 905 c 1,52,53
 513 894 513 894 469 885 c 128,-1,54
 425 876 425 876 379 865 c 1,55,-1
 379 205 l 1,56,-1
 429 221 l 2,57,58
 449 228 449 228 469 233.5 c 128,-1,59
 489 239 489 239 513 241 c 1,60,61
 532 239 532 239 550.5 232 c 128,-1,62
 569 225 569 225 584 211.5 c 128,-1,63
 599 198 599 198 608.5 178.5 c 128,-1,64
 618 159 618 159 618 133 c 0,65,66
 618 110 618 110 610.5 89 c 128,-1,67
 603 68 603 68 589.5 51.5 c 128,-1,68
 576 35 576 35 558 24.5 c 128,-1,69
 540 14 540 14 519 13 c 1,70,71
 504 11 504 11 478 6.5 c 128,-1,72
 452 2 452 2 420 -4 c 0,73,74
 368 -14 368 -14 326.5 -21.5 c 128,-1,75
 285 -29 285 -29 263 -29 c 0,76,77
 240 -29 240 -29 218.5 -21 c 128,-1,78
 197 -13 197 -13 180.5 2 c 128,-1,79
 164 17 164 17 154.5 39 c 128,-1,80
 145 61 145 61 145 90 c 0,0,1
EndSplineSet
EndChar

StartChar: s
Encoding: 115 115 108
Width: 1363
GlyphClass: 2
Flags: W
LayerCount: 2
Fore
SplineSet
144 262 m 0,0,1
 144 285 144 285 155 304 c 128,-1,2
 166 323 166 323 183 337 c 128,-1,3
 200 351 200 351 220 358.5 c 128,-1,4
 240 366 240 366 259 366 c 0,5,6
 282 366 282 366 298 360.5 c 128,-1,7
 314 355 314 355 326 346 c 128,-1,8
 338 337 338 337 347.5 325 c 128,-1,9
 357 313 357 313 367 299 c 0,10,11
 408 238 408 238 485.5 205.5 c 128,-1,12
 563 173 563 173 689 173 c 0,13,14
 740 173 740 173 786.5 182 c 128,-1,15
 833 191 833 191 867.5 209 c 128,-1,16
 902 227 902 227 922.5 253.5 c 128,-1,17
 943 280 943 280 943 314 c 0,18,19
 943 360 943 360 916.5 392.5 c 128,-1,20
 890 425 890 425 846 448 c 128,-1,21
 802 471 802 471 746 487.5 c 128,-1,22
 690 504 690 504 632 519 c 0,23,24
 579 532 579 532 524 547.5 c 128,-1,25
 469 563 469 563 418 584 c 128,-1,26
 367 605 367 605 322 633.5 c 128,-1,27
 277 662 277 662 243.5 701.5 c 128,-1,28
 210 741 210 741 190.5 793 c 128,-1,29
 171 845 171 845 171 913 c 0,30,31
 171 1004 171 1004 214 1067 c 128,-1,32
 257 1130 257 1130 325 1169.5 c 128,-1,33
 393 1209 393 1209 476.5 1226.5 c 128,-1,34
 560 1244 560 1244 641 1244 c 0,35,36
 687 1244 687 1244 725.5 1239 c 128,-1,37
 764 1234 764 1234 797.5 1226 c 128,-1,38
 831 1218 831 1218 861 1206.5 c 128,-1,39
 891 1195 891 1195 922 1183 c 1,40,41
 926 1198 926 1198 934.5 1214 c 128,-1,42
 943 1230 943 1230 955 1242.5 c 128,-1,43
 967 1255 967 1255 983.5 1263 c 128,-1,44
 1000 1271 1000 1271 1020 1271 c 0,45,46
 1070 1271 1070 1271 1097 1251.5 c 128,-1,47
 1124 1232 1124 1232 1124 1184 c 0,48,49
 1124 1145 1124 1145 1121 1104 c 128,-1,50
 1118 1063 1118 1063 1118 1013 c 1,51,52
 1123 1001 1123 1001 1125 986.5 c 128,-1,53
 1127 972 1127 972 1127 961 c 0,54,55
 1127 913 1127 913 1097.5 892.5 c 128,-1,56
 1068 872 1068 872 1023 872 c 0,57,58
 981 872 981 872 950 897.5 c 128,-1,59
 919 923 919 923 907 956 c 1,60,61
 890 969 890 969 865.5 985.5 c 128,-1,62
 841 1002 841 1002 807 1016.5 c 128,-1,63
 773 1031 773 1031 730 1040.5 c 128,-1,64
 687 1050 687 1050 634 1050 c 0,65,66
 583 1050 583 1050 539 1040 c 128,-1,67
 495 1030 495 1030 463 1012 c 128,-1,68
 431 994 431 994 413 968.5 c 128,-1,69
 395 943 395 943 395 912 c 0,70,71
 395 872 395 872 419.5 843 c 128,-1,72
 444 814 444 814 486 792.5 c 128,-1,73
 528 771 528 771 582.5 753.5 c 128,-1,74
 637 736 637 736 697 720 c 0,75,76
 752 705 752 705 807.5 688.5 c 128,-1,77
 863 672 863 672 915 650.5 c 128,-1,78
 967 629 967 629 1012.5 600.5 c 128,-1,79
 1058 572 1058 572 1091.5 533.5 c 128,-1,80
 1125 495 1125 495 1144.5 444.5 c 128,-1,81
 1164 394 1164 394 1164 329 c 0,82,83
 1164 254 1164 254 1141 198 c 128,-1,84
 1118 142 1118 142 1079.5 102 c 128,-1,85
 1041 62 1041 62 990 36.5 c 128,-1,86
 939 11 939 11 883.5 -3.5 c 128,-1,87
 828 -18 828 -18 771.5 -23.5 c 128,-1,88
 715 -29 715 -29 665 -29 c 0,89,90
 560 -29 560 -29 465 -0.5 c 128,-1,91
 370 28 370 28 299 71 c 128,-1,92
 228 114 228 114 186 165.5 c 128,-1,93
 144 217 144 217 144 262 c 0,0,1
EndSplineSet
EndChar

StartChar: t
Encoding: 116 116 109
Width: 1022
GlyphClass: 2
Flags: W
LayerCount: 2
Fore
SplineSet
310 293 m 1,0,-1
 304 1005 l 1,1,-1
 182 1004 l 2,2,3
 159 1004 159 1004 141.5 1014 c 128,-1,4
 124 1024 124 1024 112.5 1040.5 c 128,-1,5
 101 1057 101 1057 95 1078 c 128,-1,6
 89 1099 89 1099 89 1122 c 0,7,8
 89 1161 89 1161 98.5 1182 c 128,-1,9
 108 1203 108 1203 126 1212.5 c 128,-1,10
 144 1222 144 1222 170.5 1223.5 c 128,-1,11
 197 1225 197 1225 231 1225 c 2,12,-1
 303 1225 l 1,13,-1
 303 1263 l 2,14,15
 303 1300 303 1300 302.5 1323.5 c 128,-1,16
 302 1347 302 1347 302 1355 c 0,17,18
 302 1384 302 1384 296.5 1413 c 128,-1,19
 291 1442 291 1442 291 1473 c 0,20,21
 291 1522 291 1522 318 1550 c 128,-1,22
 345 1578 345 1578 416 1578 c 0,23,24
 440 1578 440 1578 462 1574 c 128,-1,25
 484 1570 484 1570 500.5 1558.5 c 128,-1,26
 517 1547 517 1547 527 1527 c 128,-1,27
 537 1507 537 1507 537 1474 c 0,28,29
 537 1430 537 1430 529.5 1387.5 c 128,-1,30
 522 1345 522 1345 523 1300 c 1,31,-1
 523 1226 l 1,32,33
 607 1227 607 1227 655 1228.5 c 128,-1,34
 703 1230 703 1230 731 1231 c 0,35,36
 735 1231 735 1231 738.5 1231.5 c 128,-1,37
 742 1232 742 1232 745 1232 c 0,38,39
 757 1233 757 1233 772 1233 c 128,-1,40
 787 1233 787 1233 797 1233 c 0,41,42
 816 1233 816 1233 834 1227 c 128,-1,43
 852 1221 852 1221 866 1207 c 128,-1,44
 880 1193 880 1193 888 1171 c 128,-1,45
 896 1149 896 1149 896 1117 c 0,46,47
 896 1093 896 1093 892 1072 c 128,-1,48
 888 1051 888 1051 876.5 1034.5 c 128,-1,49
 865 1018 865 1018 844 1008.5 c 128,-1,50
 823 999 823 999 790 999 c 0,51,52
 758 999 758 999 726.5 1002.5 c 128,-1,53
 695 1006 695 1006 661 1007 c 1,54,-1
 525 1006 l 1,55,-1
 530 206 l 1,56,57
 572 213 572 213 606 220 c 128,-1,58
 640 227 640 227 670.5 234.5 c 128,-1,59
 701 242 701 242 730 251 c 128,-1,60
 759 260 759 260 790 273 c 1,61,62
 807 282 807 282 830 291.5 c 128,-1,63
 853 301 853 301 878 301 c 0,64,65
 928 301 928 301 956 267 c 128,-1,66
 984 233 984 233 984 179 c 0,67,68
 984 165 984 165 977.5 147.5 c 128,-1,69
 971 130 971 130 958 113.5 c 128,-1,70
 945 97 945 97 924 83.5 c 128,-1,71
 903 70 903 70 875 64 c 0,72,73
 845 58 845 58 804.5 48.5 c 128,-1,74
 764 39 764 39 719 28.5 c 128,-1,75
 674 18 674 18 628.5 7.5 c 128,-1,76
 583 -3 583 -3 543 -11.5 c 128,-1,77
 503 -20 503 -20 472.5 -25 c 128,-1,78
 442 -30 442 -30 427 -29 c 1,79,80
 409 -29 409 -29 387.5 -24.5 c 128,-1,81
 366 -20 366 -20 348 -8 c 128,-1,82
 330 4 330 4 318 24.5 c 128,-1,83
 306 45 306 45 306 77 c 2,84,-1
 310 293 l 1,0,-1
EndSplineSet
EndChar

